if (_typeface_js && _typeface_js.loadFace) _typeface_js.loadFace({"glyphs":{"蔇":{"x_min":0,"x_max":0,"ha":1389},"筕":{"x_min":0,"x_max":0,"ha":1389},"囁":{"x_min":0,"x_max":0,"ha":1389},"剽":{"x_min":0,"x_max":0,"ha":1389},"Ҿ":{"x_min":0,"x_max":0,"ha":694},"頇":{"x_min":0,"x_max":0,"ha":1389},"蕟":{"x_min":0,"x_max":0,"ha":1389},"骾":{"x_min":0,"x_max":0,"ha":1389},"泅":{"x_min":0,"x_max":0,"ha":1389},"吮":{"x_min":0,"x_max":0,"ha":1389},"鐇":{"x_min":0,"x_max":0,"ha":1389},"圚":{"x_min":0,"x_max":0,"ha":1389},"痮":{"x_min":0,"x_max":0,"ha":1389},"耍":{"x_min":0,"x_max":0,"ha":1389},"躕":{"x_min":0,"x_max":0,"ha":1389},"脰":{"x_min":0,"x_max":0,"ha":1389},"覷":{"x_min":0,"x_max":0,"ha":1389},"嵶":{"x_min":0,"x_max":0,"ha":1389},"寂":{"x_min":0,"x_max":0,"ha":1389},"ご":{"x_min":345,"x_max":1272.25,"ha":1389,"o":"m 1272 875 q 1246 835 1272 840 q 1169 871 1219 840 q 1087 903 1120 903 q 1075 897 1075 903 q 1105 866 1075 894 q 1135 813 1135 837 q 1104 756 1135 772 q 1017 816 1067 763 q 939 898 977 858 l 950 905 l 999 908 q 1099 960 1047 960 q 1272 875 1272 960 m 969 150 l 961 112 q 834 54 923 74 q 690 37 761 37 q 463 92 562 37 q 345 275 345 158 q 442 538 345 398 q 633 754 500 621 q 438 911 478 812 l 454 912 q 542 895 489 895 q 636 903 573 895 q 731 911 699 911 q 834 896 784 911 q 911 838 899 876 q 865 770 906 789 q 775 739 841 758 q 686 702 717 721 q 504 545 584 640 q 407 335 407 431 q 451 226 407 275 q 553 177 495 177 q 675 202 595 177 q 798 226 755 226 q 969 150 930 226 "},"添":{"x_min":0,"x_max":0,"ha":1389},"騙":{"x_min":0,"x_max":0,"ha":1389},"芋":{"x_min":0,"x_max":0,"ha":1389},"斲":{"x_min":0,"x_max":0,"ha":1389},"幖":{"x_min":0,"x_max":0,"ha":1389},"樋":{"x_min":0,"x_max":0,"ha":1389},"谷":{"x_min":145,"x_max":1204.296875,"ha":1389,"o":"m 1204 591 q 1060 458 1204 543 q 793 307 926 382 q 652 152 650 216 q 669 151 660 151 q 743 165 698 151 q 815 184 793 182 q 1015 47 994 123 q 971 5 1003 12 q 889 -6 943 1 q 790 -32 861 -10 q 691 -53 729 -51 q 774 46 752 0 q 572 153 568 64 l 572 161 q 672 316 581 222 q 854 483 699 344 q 999 636 965 582 q 908 661 975 661 q 758 635 848 661 q 625 570 656 605 q 557 465 619 563 q 248 30 309 71 q 212 19 231 19 q 145 113 145 19 q 170 235 145 167 q 343 471 218 359 q 576 654 459 563 q 711 815 631 697 q 816 999 787 926 q 615 917 726 993 q 493 785 526 854 q 440 742 473 742 q 423 746 432 742 q 387 818 401 767 q 375 899 375 861 q 439 993 375 940 l 454 982 q 490 923 466 949 q 678 1031 584 978 q 885 1086 789 1086 q 972 1060 942 1086 q 987 1006 988 1029 l 985 995 q 860 858 961 952 q 725 709 759 763 q 956 749 848 749 q 1108 702 1021 749 q 1204 591 1204 651 m 497 515 q 251 241 325 389 q 218 151 218 174 q 219 143 218 146 q 318 259 266 187 q 402 387 360 322 q 445 454 424 420 q 497 515 472 493 "},"Ⅽ":{"x_min":0,"x_max":0,"ha":1389},"殭":{"x_min":0,"x_max":0,"ha":1389},"篗":{"x_min":0,"x_max":0,"ha":1389},"ѕ":{"x_min":0,"x_max":0,"ha":694},"閝":{"x_min":0,"x_max":0,"ha":1389},"嬖":{"x_min":0,"x_max":0,"ha":1389},"肸":{"x_min":0,"x_max":0,"ha":1389},"豢":{"x_min":0,"x_max":0,"ha":1389},"嶴":{"x_min":0,"x_max":0,"ha":1389},"蜮":{"x_min":0,"x_max":0,"ha":1389},"藋":{"x_min":0,"x_max":0,"ha":1389},"╲":{"x_min":0,"x_max":0,"ha":694},"悛":{"x_min":0,"x_max":0,"ha":1389},"℣":{"x_min":0,"x_max":0,"ha":694},"紗":{"x_min":0,"x_max":0,"ha":1389},"戳":{"x_min":0,"x_max":0,"ha":1389},"≷":{"x_min":0,"x_max":0,"ha":694},"鍪":{"x_min":0,"x_max":0,"ha":1389},"燜":{"x_min":0,"x_max":0,"ha":1389},"遼":{"x_min":0,"x_max":0,"ha":1389},"愌":{"x_min":0,"x_max":0,"ha":1389},"絅":{"x_min":0,"x_max":0,"ha":1389},"仚":{"x_min":0,"x_max":0,"ha":1389},"折":{"x_min":111,"x_max":1145,"ha":1389,"o":"m 1145 344 q 1143 174 1145 252 q 998 -43 1139 28 q 728 -113 908 -89 q 934 46 878 -17 q 1036 279 1015 136 q 1055 480 1055 417 q 1026 683 1055 626 q 903 603 958 661 l 896 602 q 834 660 862 602 q 877 789 836 698 q 918 916 918 876 q 903 952 918 939 q 771 812 842 901 q 652 660 712 736 q 492 431 512 493 q 502 249 502 325 q 404 -84 502 -10 q 370 -65 386 -78 q 314 -8 349 -48 q 258 49 279 32 q 200 86 237 66 q 142 120 155 109 q 111 174 111 141 q 173 288 111 222 q 272 383 222 336 q 405 515 317 427 q 402 581 405 537 q 400 648 400 626 q 404 689 400 668 q 299 619 337 619 q 184 678 253 619 q 305 769 237 709 q 418 868 401 854 q 439 988 428 929 q 469 1106 451 1062 q 508 1040 501 1085 q 521 965 517 975 q 554 968 539 968 q 642 907 622 968 q 578 840 623 877 q 513 779 530 798 q 484 691 484 741 q 485 558 484 542 q 684 755 572 626 q 857 980 790 877 q 900 1053 870 1006 q 944 1075 916 1075 q 1018 1056 963 1075 q 1089 1026 1074 1037 q 1066 987 1089 1014 q 1035 948 1039 954 q 1003 863 1022 925 q 952 737 984 802 q 1039 764 1025 764 q 1098 739 1074 764 q 1128 679 1123 714 q 1145 344 1145 577 m 407 311 q 404 379 407 345 q 271 278 337 328 q 167 166 167 195 q 175 151 167 157 q 263 110 191 138 q 354 82 335 82 q 363 84 354 82 q 407 311 407 131 "},"趺":{"x_min":0,"x_max":0,"ha":1389},"k":{"x_min":0,"x_max":0,"ha":694},"╾":{"x_min":0,"x_max":0,"ha":694},"魹":{"x_min":0,"x_max":0,"ha":1389},"穽":{"x_min":0,"x_max":0,"ha":1389},"≚":{"x_min":0,"x_max":0,"ha":694},"扌":{"x_min":0,"x_max":0,"ha":1389},"趄":{"x_min":0,"x_max":0,"ha":1389},"薸":{"x_min":0,"x_max":0,"ha":1389},"鏟":{"x_min":0,"x_max":0,"ha":1389},"已":{"x_min":0,"x_max":0,"ha":1389},"墦":{"x_min":0,"x_max":0,"ha":1389},"鰔":{"x_min":0,"x_max":0,"ha":1389},"〈":{"x_min":735.140625,"x_max":1262.75,"ha":1389,"o":"m 1262 -25 l 1216 -62 l 735 504 l 1212 1076 l 1261 1043 l 824 505 l 1262 -25 "},"于":{"x_min":0,"x_max":0,"ha":1389},"壈":{"x_min":0,"x_max":0,"ha":1389},"棰":{"x_min":0,"x_max":0,"ha":1389},"慷":{"x_min":0,"x_max":0,"ha":1389},"縨":{"x_min":0,"x_max":0,"ha":1389},"擧":{"x_min":0,"x_max":0,"ha":1389},"撻":{"x_min":0,"x_max":0,"ha":1389},"可":{"x_min":240,"x_max":1121,"ha":1389,"o":"m 1121 356 q 1022 116 1121 205 q 788 -11 935 36 q 524 -57 651 -57 q 496 -51 524 -57 q 925 243 822 108 q 968 405 968 300 q 928 501 968 474 q 822 526 896 526 q 648 493 728 526 q 526 223 627 368 q 301 58 410 58 q 268 60 286 58 q 240 158 240 98 q 341 393 240 289 q 556 543 406 459 q 558 558 558 551 q 538 620 558 578 q 519 695 519 662 q 563 780 519 737 q 619 846 613 831 q 447 814 531 814 q 258 870 322 814 q 333 886 288 871 q 407 912 371 898 q 575 968 509 942 q 707 1023 641 995 q 837 1061 799 1061 q 970 1041 896 1061 q 1067 972 1067 1014 q 912 888 1067 939 q 649 763 752 833 q 576 692 576 711 q 628 581 576 637 q 828 606 745 606 q 1035 547 958 606 q 1121 356 1121 482 m 538 453 q 374 316 428 419 q 339 221 339 249 q 347 191 339 204 q 467 302 406 212 q 538 453 522 382 "},"踑":{"x_min":0,"x_max":0,"ha":1389},"崆":{"x_min":0,"x_max":0,"ha":1389},"∺":{"x_min":0,"x_max":0,"ha":694},"流":{"x_min":99.96875,"x_max":1340.0625,"ha":1389,"o":"m 1340 188 q 1280 118 1340 118 q 1178 207 1232 118 q 1086 329 1116 311 q 1113 330 1099 330 q 1251 288 1174 330 q 1340 188 1340 241 m 1094 838 q 1043 771 1094 801 q 907 702 1037 769 q 778 621 826 661 q 761 527 761 560 q 781 486 761 493 q 907 454 845 470 q 1012 383 983 431 q 1030 279 1030 351 q 1016 174 1030 215 q 942 37 991 104 q 831 -63 887 -39 q 794 -50 812 -58 q 739 -9 773 -39 q 689 31 705 20 q 605 78 647 54 q 529 134 552 108 q 487 83 512 128 q 440 31 461 37 q 404 92 422 44 q 389 164 389 135 q 408 210 389 174 q 435 245 427 245 q 466 222 443 242 q 500 207 484 206 l 504 207 q 728 332 656 313 q 645 253 712 311 q 575 169 591 206 q 780 112 676 112 q 834 122 812 112 q 894 269 894 181 q 879 365 894 344 q 809 391 865 386 q 723 412 746 398 q 681 515 681 439 q 686 575 681 542 q 365 354 469 491 q 268 187 306 275 q 208 48 250 139 q 162 8 188 13 q 99 160 99 18 q 147 446 99 264 q 173 534 156 474 q 211 725 182 598 q 249 804 216 745 q 279 874 279 855 q 265 933 279 897 q 243 988 254 960 q 327 979 299 987 q 395 948 364 968 q 436 891 436 920 q 372 835 436 862 q 265 767 293 804 q 242 709 242 737 q 247 667 242 697 q 252 623 252 638 q 221 460 252 566 q 190 299 190 354 q 200 242 190 267 q 452 512 299 387 q 516 564 472 530 q 635 642 576 603 q 732 745 707 694 q 807 1089 774 835 q 855 1102 817 1102 q 887 1094 877 1102 l 887 1076 q 938 953 884 999 q 1039 896 959 935 q 1094 838 1094 869 m 919 824 q 870 952 920 862 q 831 775 872 863 q 919 824 872 789 "},"撲":{"x_min":0,"x_max":0,"ha":1389},"Ϋ":{"x_min":0,"x_max":0,"ha":694},"偣":{"x_min":0,"x_max":0,"ha":1389},"髟":{"x_min":0,"x_max":0,"ha":1389},"҆":{"x_min":0,"x_max":0,"ha":694},"輟":{"x_min":0,"x_max":0,"ha":1389},"嶐":{"x_min":0,"x_max":0,"ha":1389},"8":{"x_min":0,"x_max":0,"ha":694},"恚":{"x_min":0,"x_max":0,"ha":1389},"堦":{"x_min":0,"x_max":0,"ha":1389},"≭":{"x_min":0,"x_max":0,"ha":694},"狎":{"x_min":0,"x_max":0,"ha":1389},"蛭":{"x_min":0,"x_max":0,"ha":1389},"鼾":{"x_min":0,"x_max":0,"ha":1389},"洩":{"x_min":0,"x_max":0,"ha":1389},"悔":{"x_min":0,"x_max":0,"ha":1389},"骰":{"x_min":0,"x_max":0,"ha":1389},"稙":{"x_min":0,"x_max":0,"ha":1389},"沂":{"x_min":0,"x_max":0,"ha":1389},"椓":{"x_min":0,"x_max":0,"ha":1389},"浦":{"x_min":0,"x_max":0,"ha":1389},"摧":{"x_min":0,"x_max":0,"ha":1389},"儕":{"x_min":0,"x_max":0,"ha":1389},"浴":{"x_min":104.703125,"x_max":1228.84375,"ha":1389,"o":"m 721 949 q 670 847 697 918 q 617 744 644 775 q 556 839 556 769 q 606 990 556 851 q 652 920 619 965 l 718 969 l 721 949 m 1228 258 q 1156 190 1228 232 q 1062 98 1079 144 q 1117 68 1089 84 q 1143 19 1146 52 l 1143 7 q 1034 -30 1108 -18 q 916 -44 975 -37 q 884 -15 900 -36 q 868 22 868 6 q 906 92 868 53 q 968 151 937 122 q 1032 270 1005 187 q 845 174 942 270 q 698 11 771 92 q 664 50 676 19 q 653 105 652 77 l 653 110 q 863 431 764 296 q 1025 634 925 498 q 736 507 895 634 q 410 98 516 98 q 358 156 358 98 q 466 391 358 258 q 663 567 558 503 q 823 876 756 715 q 853 953 838 915 q 891 1028 872 999 q 973 1081 927 1081 q 1032 1047 1003 1081 q 1075 990 1053 1018 q 1108 1064 1085 1020 l 1127 1049 q 1151 981 1129 1026 q 1173 916 1173 935 q 1113 807 1173 864 q 1040 903 1087 819 q 971 978 996 978 l 965 978 q 789 624 903 907 q 1108 707 954 707 q 1167 679 1135 707 q 1204 624 1199 651 q 1118 547 1192 608 q 980 433 981 433 q 874 296 893 353 q 983 346 919 322 q 1095 376 1057 376 q 1175 330 1123 376 q 1228 258 1228 284 m 489 888 q 486 869 489 880 q 406 829 471 849 q 310 771 342 809 q 285 718 285 739 q 288 685 285 708 q 291 651 291 663 q 252 479 291 591 q 213 309 213 367 q 214 295 213 302 q 325 448 267 348 q 423 613 414 599 l 423 571 q 365 412 391 495 q 300 225 325 288 q 214 51 253 101 q 163 20 192 24 q 104 158 104 36 q 137 364 104 248 q 199 564 168 463 q 243 741 211 623 q 286 816 248 760 q 319 884 319 865 q 285 983 319 889 l 293 995 q 382 981 350 992 q 448 945 415 969 q 489 888 489 915 m 618 446 q 455 218 461 329 q 547 320 491 234 q 618 446 600 398 "},"愓":{"x_min":0,"x_max":0,"ha":1389},"噋":{"x_min":0,"x_max":0,"ha":1389},"㋇":{"x_min":0,"x_max":0,"ha":1389},"‷":{"x_min":0,"x_max":0,"ha":694},"紐":{"x_min":0,"x_max":0,"ha":1389},"噤":{"x_min":0,"x_max":0,"ha":1389},"彗":{"x_min":0,"x_max":0,"ha":1389},"㌊":{"x_min":0,"x_max":0,"ha":1389},"訟":{"x_min":0,"x_max":0,"ha":1389},"析":{"x_min":0,"x_max":0,"ha":1389},"蘙":{"x_min":0,"x_max":0,"ha":1389},"汎":{"x_min":0,"x_max":0,"ha":1389},"р":{"x_min":0,"x_max":0,"ha":1389},"魬":{"x_min":0,"x_max":0,"ha":1389},"瞿":{"x_min":0,"x_max":0,"ha":1389},"Ö":{"x_min":0,"x_max":0,"ha":694},"虘":{"x_min":0,"x_max":0,"ha":1389},"司":{"x_min":231,"x_max":1097.203125,"ha":1389,"o":"m 1097 876 q 1091 747 1097 833 q 1085 619 1085 662 q 1087 467 1085 568 q 1090 316 1090 366 q 947 -38 1090 73 q 844 -87 898 -76 q 661 20 778 -72 q 504 171 553 106 q 408 141 451 138 l 468 214 l 403 288 q 297 174 370 246 q 254 210 270 176 q 241 271 241 239 q 274 335 241 289 q 319 402 313 391 q 231 560 231 522 q 271 657 231 605 q 389 749 312 710 q 530 806 417 762 q 630 791 581 806 q 711 737 692 772 l 711 731 q 702 707 711 720 q 622 640 692 695 q 428 421 462 514 q 684 533 564 511 q 825 434 797 510 q 779 381 812 411 q 726 337 753 358 q 653 269 667 281 q 568 217 607 232 q 829 75 698 88 q 928 176 888 98 q 968 318 968 250 q 968 476 968 370 q 967 636 967 582 q 960 928 967 883 q 838 965 922 965 q 608 917 736 965 q 393 821 553 897 q 287 902 325 833 q 447 962 352 918 q 649 1035 532 1001 q 857 1072 779 1072 q 1015 1016 941 1072 q 1097 876 1097 956 m 512 695 q 392 640 461 693 q 319 535 319 583 q 347 448 319 495 q 512 695 396 530 m 655 408 q 629 410 642 410 q 531 386 588 410 q 446 332 474 362 q 519 253 477 294 q 655 408 581 298 "},"鰆":{"x_min":0,"x_max":0,"ha":1389},"筍":{"x_min":0,"x_max":0,"ha":1389},"㏴":{"x_min":0,"x_max":0,"ha":1389},"鄰":{"x_min":0,"x_max":0,"ha":1389},"眒":{"x_min":0,"x_max":0,"ha":1389},"敟":{"x_min":0,"x_max":0,"ha":1389},"儌":{"x_min":0,"x_max":0,"ha":1389},"畚":{"x_min":0,"x_max":0,"ha":1389},"戧":{"x_min":0,"x_max":0,"ha":1389},"³":{"x_min":0,"x_max":0,"ha":694},"薜":{"x_min":0,"x_max":0,"ha":1389},"全":{"x_min":130.203125,"x_max":1201.71875,"ha":1389,"o":"m 1201 743 q 1193 719 1201 731 q 1131 691 1166 701 q 1064 674 1097 682 q 996 647 1041 664 q 849 602 944 626 l 826 605 q 910 683 868 644 q 968 777 963 735 q 855 795 950 795 q 545 723 680 795 q 299 518 425 660 q 237 445 268 481 q 169 379 199 401 q 130 485 130 407 q 189 606 130 526 q 324 761 195 614 q 454 910 427 877 q 566 1071 531 1005 q 523 1124 546 1112 q 560 1143 542 1134 q 596 1155 585 1155 q 689 1115 661 1155 q 634 980 689 1051 q 526 860 617 956 q 439 742 458 788 q 670 856 569 824 q 923 890 777 890 q 1010 884 973 890 q 1125 831 1055 877 q 1201 743 1201 781 m 961 19 q 903 -28 961 -28 q 884 -27 895 -28 q 710 -10 789 -10 q 442 -79 595 -10 q 385 18 387 -62 l 485 98 q 400 144 481 102 q 333 205 333 178 q 385 288 333 242 q 470 347 427 326 q 583 401 573 395 q 638 504 638 439 q 636 531 638 517 q 531 509 592 509 q 465 517 497 509 l 444 534 q 534 602 488 550 q 613 679 591 664 q 653 688 626 688 q 804 654 752 688 l 804 644 q 790 595 805 616 q 758 554 774 574 q 736 444 739 519 q 787 426 741 436 q 849 397 832 416 q 850 383 850 390 q 751 237 850 340 q 621 87 636 117 q 800 111 698 111 q 961 19 961 111 m 619 340 q 419 219 462 311 q 518 188 427 193 q 619 340 580 211 "},"蜼":{"x_min":0,"x_max":0,"ha":1389},"鄘":{"x_min":0,"x_max":0,"ha":1389},"遙":{"x_min":0,"x_max":0,"ha":1389},"㏗":{"x_min":0,"x_max":0,"ha":1389},"櫕":{"x_min":0,"x_max":0,"ha":1389},"酵":{"x_min":0,"x_max":0,"ha":1389},"芸":{"x_min":184.46875,"x_max":1177.296875,"ha":1389,"o":"m 1087 954 q 1081 924 1087 940 q 1043 912 1071 914 q 988 910 1022 909 q 945 912 939 912 q 872 895 904 912 q 789 819 851 884 q 668 703 745 783 q 729 661 702 694 q 756 593 756 627 q 659 543 743 572 q 549 510 585 515 q 627 609 583 547 q 590 635 622 619 q 566 673 566 648 q 622 730 585 696 q 682 785 667 769 q 759 880 727 834 l 756 880 q 677 860 735 880 q 595 825 619 840 q 558 745 585 757 q 497 787 533 750 q 398 758 416 758 q 267 796 367 758 l 268 817 q 382 867 302 827 q 496 910 455 901 q 530 1030 508 948 l 547 1030 q 583 997 568 1030 q 609 950 602 955 q 813 1007 706 977 q 839 1073 834 1048 l 794 1084 l 796 1105 q 872 1153 834 1137 q 920 1130 914 1136 q 954 1088 939 1118 l 938 1025 l 949 1025 q 1033 1011 992 1026 q 1087 954 1087 990 m 1177 24 q 1136 -59 1177 -35 l 1128 -59 q 1049 -2 1086 -62 q 1005 90 1048 0 q 901 229 976 149 l 912 244 q 1085 179 1000 242 q 1177 24 1177 109 m 1007 443 l 1007 438 q 897 364 988 417 q 596 81 699 248 q 872 145 778 120 l 878 128 q 815 54 861 74 q 591 -17 754 27 q 371 -100 447 -58 q 335 -36 341 -92 q 333 47 333 -24 q 337 63 333 47 q 416 77 364 65 q 535 196 457 116 q 691 358 585 252 q 496 295 609 345 q 259 191 259 191 q 206 221 229 191 q 184 283 184 250 q 302 383 184 309 q 292 318 299 360 l 298 318 q 401 345 330 317 q 571 420 457 371 q 809 500 649 446 q 849 519 836 509 q 872 522 859 522 q 956 501 910 522 q 1007 443 1010 476 "},"粤":{"x_min":0,"x_max":0,"ha":1389},"㋅":{"x_min":0,"x_max":0,"ha":1389},"墇":{"x_min":0,"x_max":0,"ha":1389},"蜋":{"x_min":0,"x_max":0,"ha":1389},"艖":{"x_min":0,"x_max":0,"ha":1389},"蓇":{"x_min":0,"x_max":0,"ha":1389},"┭":{"x_min":0,"x_max":0,"ha":694},"戍":{"x_min":0,"x_max":0,"ha":1389},"夔":{"x_min":0,"x_max":0,"ha":1389},"虻":{"x_min":0,"x_max":0,"ha":1389},"糞":{"x_min":0,"x_max":0,"ha":1389},"1":{"x_min":0,"x_max":0,"ha":694},"郝":{"x_min":0,"x_max":0,"ha":1389},"堄":{"x_min":0,"x_max":0,"ha":1389},"沲":{"x_min":0,"x_max":0,"ha":1389},"杏":{"x_min":0,"x_max":0,"ha":1389},"弝":{"x_min":0,"x_max":0,"ha":1389},"鰧":{"x_min":0,"x_max":0,"ha":1389},"榖":{"x_min":0,"x_max":0,"ha":1389},"攱":{"x_min":0,"x_max":0,"ha":1389},"ī":{"x_min":0,"x_max":0,"ha":694},"樠":{"x_min":0,"x_max":0,"ha":1389},"∐":{"x_min":0,"x_max":0,"ha":694},"貓":{"x_min":0,"x_max":0,"ha":1389},"喰":{"x_min":0,"x_max":0,"ha":1389},"虱":{"x_min":0,"x_max":0,"ha":1389},"齰":{"x_min":0,"x_max":0,"ha":1389},"結":{"x_min":119,"x_max":1276.3125,"ha":1389,"o":"m 1276 46 q 1232 -35 1276 -35 q 1158 9 1201 -35 q 1131 46 1144 21 q 1106 86 1110 80 q 1053 154 1079 120 q 1010 229 1021 196 q 1043 234 1034 234 q 1154 200 1089 234 q 1247 131 1215 168 q 1276 46 1276 97 m 1163 852 q 1114 814 1150 826 q 994 767 1013 775 q 880 707 931 740 q 848 501 847 542 l 848 490 q 898 508 867 490 q 934 525 928 525 q 1012 497 961 525 q 1063 443 1063 468 q 1036 401 1063 417 q 943 356 1003 387 q 792 250 927 346 l 770 250 q 819 312 794 281 q 861 380 847 350 l 805 379 q 740 441 770 401 q 758 559 740 483 q 786 680 773 620 q 585 580 686 630 q 415 429 485 521 q 537 209 537 312 q 427 51 537 136 q 237 -33 317 -33 q 154 0 190 -33 q 119 78 119 33 q 321 437 119 219 q 298 575 298 502 q 348 791 298 664 q 296 741 341 786 q 245 704 260 704 q 194 738 222 704 q 154 790 174 764 l 154 805 q 317 911 180 817 q 462 993 436 993 q 535 961 488 993 q 592 904 583 928 q 516 799 576 863 q 420 689 440 719 q 373 552 373 622 q 382 504 373 527 q 815 779 513 627 q 844 906 821 826 q 876 1034 869 995 q 873 1057 873 1046 q 884 1099 873 1080 q 950 1118 918 1118 q 972 1115 961 1118 l 972 1102 q 969 1054 972 1085 q 965 1007 965 1022 q 976 963 965 991 q 1000 925 987 936 q 1095 905 1013 915 q 1163 852 1160 897 m 834 240 l 831 218 q 727 58 727 113 q 731 27 727 48 q 735 -5 735 5 q 733 -18 735 -10 q 672 -48 703 -48 q 615 -27 637 -48 q 593 27 593 -6 q 586 67 593 40 q 579 108 579 94 q 580 122 579 115 l 595 135 l 642 113 q 733 184 661 124 q 834 240 788 229 m 958 855 q 929 915 937 884 l 900 820 q 958 855 931 835 m 452 242 q 380 372 452 292 q 269 237 325 304 q 198 85 198 139 q 203 65 198 72 q 221 58 208 58 q 361 128 271 58 q 452 242 452 199 "},"螇":{"x_min":0,"x_max":0,"ha":1389},"巘":{"x_min":0,"x_max":0,"ha":1389},"交":{"x_min":118,"x_max":1258.6875,"ha":1389,"o":"m 1258 5 q 1209 -25 1235 -20 q 971 -33 1204 -26 l 967 -24 l 1049 28 q 691 201 980 89 q 301 -22 493 -22 q 127 7 226 -22 l 118 26 q 576 244 420 62 q 409 334 511 275 l 405 359 l 444 359 q 644 342 557 361 q 709 472 676 407 q 790 582 760 568 q 615 535 721 578 q 461 447 509 492 q 405 397 424 412 q 344 357 374 371 q 329 447 329 390 q 413 559 329 480 q 528 658 470 608 q 653 785 585 709 q 477 698 579 754 q 325 614 427 667 q 284 670 284 631 q 421 826 284 703 q 599 986 590 974 l 511 1063 l 515 1088 q 569 1112 556 1093 q 609 1115 590 1115 q 712 1090 664 1115 q 770 1009 770 1059 q 714 959 770 981 q 636 930 675 944 q 446 799 590 909 q 671 902 558 850 q 888 978 845 978 q 977 964 938 978 q 1034 906 1032 945 q 847 815 1013 884 q 543 583 691 749 q 731 665 637 624 q 911 722 866 722 q 929 722 916 722 q 948 722 942 722 q 1089 639 1034 722 l 1089 629 q 1044 580 1091 580 q 1002 584 1030 580 q 958 589 973 589 q 733 331 797 589 q 1045 222 916 285 q 1258 5 1245 123 "},"柂":{"x_min":0,"x_max":0,"ha":1389},"螞":{"x_min":0,"x_max":0,"ha":1389},"崟":{"x_min":0,"x_max":0,"ha":1389},"娭":{"x_min":0,"x_max":0,"ha":1389},"㍒":{"x_min":0,"x_max":0,"ha":1389},"鼕":{"x_min":0,"x_max":0,"ha":1389},"櫬":{"x_min":0,"x_max":0,"ha":1389},"❒":{"x_min":0,"x_max":0,"ha":1389},"⑭":{"x_min":0,"x_max":0,"ha":1389},"蟤":{"x_min":0,"x_max":0,"ha":1389},"苡":{"x_min":0,"x_max":0,"ha":1389},"沕":{"x_min":0,"x_max":0,"ha":1389},"蝝":{"x_min":0,"x_max":0,"ha":1389},"狽":{"x_min":0,"x_max":0,"ha":1389},"㋀":{"x_min":0,"x_max":0,"ha":1389},"霰":{"x_min":0,"x_max":0,"ha":1389},"↢":{"x_min":0,"x_max":0,"ha":694},"溌":{"x_min":0,"x_max":0,"ha":1389},"胎":{"x_min":0,"x_max":0,"ha":1389},"咅":{"x_min":0,"x_max":0,"ha":1389},"礫":{"x_min":0,"x_max":0,"ha":1389},"掤":{"x_min":0,"x_max":0,"ha":1389},"簏":{"x_min":0,"x_max":0,"ha":1389},"蹊":{"x_min":0,"x_max":0,"ha":1389},"p":{"x_min":0,"x_max":0,"ha":694},"Ѹ":{"x_min":0,"x_max":0,"ha":694},"鍐":{"x_min":0,"x_max":0,"ha":1389},"詳":{"x_min":0,"x_max":0,"ha":1389},"洛":{"x_min":0,"x_max":0,"ha":1389},"柗":{"x_min":0,"x_max":0,"ha":1389},"酬":{"x_min":0,"x_max":0,"ha":1389},"噞":{"x_min":0,"x_max":0,"ha":1389},"呎":{"x_min":0,"x_max":0,"ha":1389},"㍧":{"x_min":0,"x_max":0,"ha":1389},"瑢":{"x_min":0,"x_max":0,"ha":1389},"絽":{"x_min":0,"x_max":0,"ha":1389},"ラ":{"x_min":250.921875,"x_max":1070.15625,"ha":1389,"o":"m 1070 591 q 1033 530 1064 574 q 990 466 994 476 q 840 233 892 302 q 640 45 748 111 q 458 -11 550 -11 q 421 -13 425 -11 q 865 574 767 267 l 834 574 q 565 534 703 576 q 320 418 423 492 l 313 418 q 259 469 271 418 q 250 552 257 472 q 370 648 263 565 q 565 807 497 746 q 457 829 481 819 q 374 895 394 849 l 378 903 q 448 909 428 907 q 519 925 489 914 q 638 967 579 945 q 763 998 709 991 q 857 986 811 991 q 914 924 914 972 l 914 915 q 805 867 880 890 q 691 827 714 838 q 547 724 651 807 q 318 552 428 628 q 617 645 450 601 q 918 703 824 703 q 1005 664 945 703 q 1070 591 1067 622 "},"雇":{"x_min":0,"x_max":0,"ha":1389},"柞":{"x_min":0,"x_max":0,"ha":1389},"►":{"x_min":0,"x_max":0,"ha":694},"硃":{"x_min":0,"x_max":0,"ha":1389},"樸":{"x_min":0,"x_max":0,"ha":1389},"y":{"x_min":0,"x_max":0,"ha":694},"蘇":{"x_min":0,"x_max":0,"ha":1389},"癒":{"x_min":0,"x_max":0,"ha":1389},"喞":{"x_min":0,"x_max":0,"ha":1389},"劼":{"x_min":0,"x_max":0,"ha":1389},"蟖":{"x_min":0,"x_max":0,"ha":1389},"∵":{"x_min":0,"x_max":0,"ha":1389},"抑":{"x_min":0,"x_max":0,"ha":1389},"易":{"x_min":245.953125,"x_max":1138,"ha":1389,"o":"m 1138 364 q 1085 183 1138 271 q 905 -9 1016 71 q 660 -103 777 -103 q 547 -39 624 -103 q 453 62 475 22 q 271 -10 361 -10 q 245 -7 258 -10 q 332 57 289 24 q 414 130 382 96 q 407 188 407 157 q 416 281 407 228 q 369 255 400 279 q 325 220 347 237 q 308 273 308 240 q 330 351 308 327 q 445 454 340 363 q 544 567 522 521 q 468 591 536 583 q 559 616 509 616 q 658 555 604 616 l 633 480 q 722 492 692 499 q 734 495 727 495 q 770 473 754 495 q 785 430 785 452 q 505 115 726 278 q 576 60 522 87 q 667 33 631 33 q 784 70 712 33 q 887 141 842 103 q 967 233 928 178 q 1015 343 1015 301 q 686 643 1015 655 q 647 720 647 672 q 714 882 647 770 q 783 1014 781 994 q 764 1020 774 1020 q 591 923 707 1020 q 462 826 476 826 q 351 876 392 826 q 551 1000 370 911 q 778 1089 731 1089 q 842 1059 812 1089 q 872 995 871 1029 q 784 859 856 957 q 711 721 722 775 q 825 710 780 717 q 1050 596 963 690 q 1138 364 1138 503 m 648 410 l 646 416 q 438 313 512 364 q 469 196 442 227 q 580 291 512 212 q 648 410 648 370 "},"媻":{"x_min":0,"x_max":0,"ha":1389},"￫":{"x_min":0,"x_max":0,"ha":694},"飜":{"x_min":0,"x_max":0,"ha":1389},"殟":{"x_min":0,"x_max":0,"ha":1389},"‐":{"x_min":428.609375,"x_max":961.640625,"ha":1389,"o":"m 961 496 l 428 496 l 428 572 l 961 572 l 961 496 "},"ズ":{"x_min":161.40625,"x_max":1272.25,"ha":1389,"o":"m 1272 856 q 1235 804 1272 804 q 1162 864 1216 814 q 1090 908 1116 908 q 1083 901 1083 908 q 1103 870 1083 897 q 1123 817 1123 842 q 1076 760 1123 773 q 1006 842 1037 781 q 952 937 965 921 l 964 943 l 1013 933 q 1098 962 1055 962 q 1204 932 1144 962 q 1272 856 1272 898 m 1154 78 q 1098 20 1154 20 q 1018 48 1060 20 q 946 92 964 85 q 870 104 923 100 q 792 119 816 108 q 907 183 831 136 q 828 294 885 240 q 727 386 778 340 l 733 393 q 992 290 843 391 q 1154 78 1154 180 m 915 882 q 877 817 915 870 q 629 394 775 678 q 422 118 520 183 q 165 28 324 54 l 161 32 q 477 360 347 160 q 679 771 568 503 q 410 690 553 735 q 295 796 336 706 q 373 813 302 800 q 478 846 409 824 q 625 893 583 877 q 764 958 709 923 q 855 939 811 956 q 915 882 915 918 "},"顦":{"x_min":0,"x_max":0,"ha":1389},"睿":{"x_min":0,"x_max":0,"ha":1389},"┼":{"x_min":0,"x_max":0,"ha":1389},"觶":{"x_min":0,"x_max":0,"ha":1389},"ц":{"x_min":0,"x_max":0,"ha":1389},"⋜":{"x_min":0,"x_max":0,"ha":694},"⊥":{"x_min":0,"x_max":0,"ha":1389},"Д":{"x_min":0,"x_max":0,"ha":1389},"鏑":{"x_min":0,"x_max":0,"ha":1389},"崦":{"x_min":0,"x_max":0,"ha":1389},"霊":{"x_min":0,"x_max":0,"ha":1389},"鯟":{"x_min":0,"x_max":0,"ha":1389},"蕻":{"x_min":0,"x_max":0,"ha":1389},"葼":{"x_min":0,"x_max":0,"ha":1389},"潼":{"x_min":0,"x_max":0,"ha":1389},"貉":{"x_min":0,"x_max":0,"ha":1389},"㊁":{"x_min":0,"x_max":0,"ha":1389},"Ӂ":{"x_min":0,"x_max":0,"ha":694},"埌":{"x_min":0,"x_max":0,"ha":1389},"◜":{"x_min":0,"x_max":0,"ha":694},"滁":{"x_min":0,"x_max":0,"ha":1389},"讖":{"x_min":0,"x_max":0,"ha":1389},"顯":{"x_min":0,"x_max":0,"ha":1389},"楚":{"x_min":0,"x_max":0,"ha":1389},"鰮":{"x_min":0,"x_max":0,"ha":1389},"鄴":{"x_min":0,"x_max":0,"ha":1389},"に":{"x_min":231,"x_max":1160.09375,"ha":1389,"o":"m 1160 143 q 926 58 1118 58 q 738 117 819 58 q 647 287 647 184 q 737 519 647 390 q 889 725 813 622 q 849 730 872 730 q 679 673 774 730 q 568 543 629 644 q 487 386 519 466 q 443 248 472 340 q 346 30 394 93 q 306 6 329 9 q 241 87 258 43 q 231 192 231 120 q 266 418 231 294 q 330 812 330 650 q 301 949 330 876 l 315 949 q 365 919 336 949 q 400 871 388 896 q 424 770 424 821 q 402 608 424 753 q 373 450 388 528 q 356 294 356 349 q 528 557 434 423 q 636 703 604 667 q 781 810 701 775 q 937 852 876 852 q 1036 828 989 852 q 1101 756 1092 801 q 1044 702 1085 730 q 976 660 1010 682 q 796 503 869 589 q 703 291 703 390 q 753 215 703 246 q 844 187 797 187 q 930 204 873 187 q 1014 221 986 221 q 1160 143 1142 221 "},"鋼":{"x_min":32.5625,"x_max":1314.296875,"ha":1389,"o":"m 1314 145 q 1277 93 1314 105 q 1212 82 1245 88 q 1113 63 1135 62 l 1102 63 l 1085 71 q 1134 127 1093 86 q 1180 181 1175 168 q 1068 255 1113 255 q 1004 220 1043 255 q 965 160 965 185 q 998 101 965 141 q 1030 40 1030 62 q 1019 2 1030 24 q 923 -13 987 -4 q 770 -27 872 -16 q 627 -59 722 -37 q 594 -14 607 -51 q 583 42 583 16 q 585 65 583 54 q 712 236 636 122 q 832 415 824 404 q 576 301 655 358 q 547 348 547 310 q 561 405 547 377 q 767 529 706 483 q 919 711 877 611 q 777 622 830 700 l 773 622 q 694 694 724 621 q 755 799 695 704 q 790 724 788 754 q 824 743 800 731 q 937 799 927 793 q 1022 896 980 829 q 1044 945 1044 933 l 1044 948 q 981 958 1013 958 q 740 821 843 958 q 690 857 712 821 q 652 914 659 909 l 661 930 q 805 1006 766 990 q 964 1039 882 1039 q 1104 1005 1044 1039 q 1173 889 1175 964 l 1173 883 q 1090 847 1155 866 q 996 813 1015 824 q 1027 797 999 805 q 1064 766 1055 789 q 1003 670 1053 721 q 934 586 945 607 q 1009 557 972 572 q 1055 502 1055 536 q 1038 465 1055 491 q 858 290 971 420 q 732 88 732 146 q 735 79 732 84 q 832 95 783 87 q 895 165 882 111 q 857 255 877 194 l 868 270 l 939 256 q 1102 311 1036 311 q 1269 233 1212 311 q 1314 145 1314 172 m 634 899 q 633 877 634 889 q 550 831 606 858 q 463 789 467 792 q 158 572 375 741 q 307 664 191 580 q 431 744 420 744 q 488 728 454 744 q 528 693 522 712 q 501 596 524 663 q 480 497 480 537 q 481 439 480 507 q 557 549 503 458 q 440 230 552 481 q 286 -51 328 -24 q 235 -9 255 -42 q 215 56 215 23 q 244 127 215 78 q 287 198 265 162 q 225 226 267 203 q 160 253 184 249 q 137 286 137 268 q 234 425 137 341 q 383 530 310 492 q 415 625 392 546 q 44 406 222 564 l 32 439 q 192 645 35 493 q 400 827 305 754 q 364 873 393 847 q 335 918 335 899 q 366 995 335 935 q 393 1105 398 1055 l 410 1110 q 491 1007 467 1091 q 542 981 503 992 q 604 958 590 968 q 634 899 634 939 m 371 440 q 288 390 340 434 q 237 320 237 347 q 239 310 237 320 q 268 306 254 306 q 371 440 327 306 "},"鰏":{"x_min":0,"x_max":0,"ha":1389},"㊏":{"x_min":0,"x_max":0,"ha":1389},"г":{"x_min":0,"x_max":0,"ha":1389},"串":{"x_min":0,"x_max":0,"ha":1389},"孕":{"x_min":0,"x_max":0,"ha":1389},"鞚":{"x_min":0,"x_max":0,"ha":1389},"氶":{"x_min":0,"x_max":0,"ha":1389},"㍀":{"x_min":0,"x_max":0,"ha":1389},"筠":{"x_min":0,"x_max":0,"ha":1389},"努":{"x_min":153,"x_max":1196.34375,"ha":1389,"o":"m 1196 630 q 1127 573 1196 573 q 1003 628 1086 573 q 881 705 896 698 q 679 499 754 544 q 709 460 690 481 q 807 479 735 468 q 910 490 880 490 q 927 488 915 490 q 945 487 939 487 q 1038 441 987 487 q 1100 351 1089 395 q 988 88 1072 221 q 790 -112 896 -56 l 784 -112 q 716 -86 758 -113 q 612 1 693 -71 q 520 91 531 73 q 388 -23 473 24 q 222 -81 303 -71 l 192 -70 q 529 328 435 129 q 404 274 478 312 q 281 214 306 225 q 261 249 261 222 q 298 329 261 305 q 569 438 381 384 q 594 506 585 464 q 548 671 548 583 q 573 804 548 748 q 676 876 609 876 q 846 848 720 876 q 892 946 869 897 q 918 1051 918 1002 q 755 1006 855 1051 q 599 928 744 1002 q 443 581 504 692 q 454 532 454 557 q 450 504 454 519 q 385 493 416 488 q 218 391 267 391 q 161 424 176 391 q 153 494 153 446 q 276 749 153 629 q 267 833 267 787 q 271 904 267 866 l 287 904 q 360 813 336 873 q 471 892 405 851 q 492 987 484 941 l 462 1030 l 466 1049 q 556 1068 508 1052 q 600 985 591 1060 q 956 1124 812 1124 q 1004 1107 965 1124 q 1051 1083 1043 1091 q 949 815 1026 939 q 1098 747 1030 788 q 1196 630 1196 687 m 783 766 q 671 822 702 822 q 657 819 664 822 q 610 685 610 758 q 639 603 610 626 q 715 676 660 610 q 783 766 760 731 m 440 812 l 371 762 l 390 706 q 440 812 434 774 m 950 359 q 873 377 933 377 q 680 349 769 377 q 553 139 633 280 q 638 81 576 108 q 739 55 697 55 q 876 178 800 55 q 950 359 945 291 m 330 603 q 294 684 307 642 q 244 615 267 661 q 221 534 221 568 q 230 500 221 514 q 330 603 267 527 "},"酣":{"x_min":0,"x_max":0,"ha":1389},"恀":{"x_min":0,"x_max":0,"ha":1389},"脛":{"x_min":0,"x_max":0,"ha":1389},"徯":{"x_min":0,"x_max":0,"ha":1389},"魋":{"x_min":0,"x_max":0,"ha":1389},"勉":{"x_min":65.109375,"x_max":1298.015625,"ha":1389,"o":"m 1253 664 q 1156 337 1247 520 q 931 100 1053 130 q 847 193 893 107 q 801 320 805 272 q 680 230 721 253 q 535 195 611 193 l 516 195 q 732 383 619 261 q 908 611 834 496 q 834 676 857 621 q 992 745 887 703 q 1098 907 1032 800 l 1087 957 q 1159 948 1136 952 q 1228 926 1200 941 l 1228 919 q 1212 881 1231 900 q 1180 854 1196 868 q 1098 741 1131 809 q 1184 718 1162 728 q 1253 664 1228 699 m 1298 106 q 1277 53 1298 85 q 1238 7 1257 21 q 1067 -62 1182 -35 q 881 -87 967 -87 q 678 -36 781 -87 q 519 54 663 -30 q 383 105 436 105 q 225 74 284 105 q 101 -36 166 43 q 65 50 65 -32 q 276 351 116 141 q 477 660 419 537 q 226 474 344 619 q 187 427 212 457 q 161 491 161 446 q 173 531 161 513 q 311 677 192 558 q 466 847 366 731 q 454 852 463 852 q 379 824 436 852 q 299 788 316 793 q 282 843 283 799 q 453 1038 394 951 l 400 1062 q 504 1106 444 1106 q 566 1079 549 1106 q 523 1007 557 1049 q 477 936 486 959 q 534 925 505 931 q 580 893 568 917 q 516 803 562 858 q 450 715 466 744 q 665 812 621 812 q 763 784 718 812 q 816 703 816 753 q 729 570 816 642 q 580 498 642 498 q 492 512 543 498 q 349 334 423 447 q 231 137 317 285 q 373 184 316 184 q 604 102 453 184 q 842 20 756 20 q 1031 54 937 20 q 1161 190 1125 89 q 1197 387 1171 220 q 1227 304 1212 359 q 1255 219 1243 245 q 1283 166 1268 193 q 1298 106 1298 133 m 1155 604 q 1091 649 1144 649 q 1048 634 1067 649 q 948 504 1018 611 q 850 354 899 428 q 934 250 850 302 q 1083 398 1025 287 q 1155 604 1120 470 m 729 707 q 679 732 708 732 q 577 677 626 732 q 518 575 534 630 q 552 571 534 571 q 657 614 610 571 q 729 707 683 638 "},"Җ":{"x_min":0,"x_max":0,"ha":694},"訂":{"x_min":0,"x_max":0,"ha":1389},"洄":{"x_min":0,"x_max":0,"ha":1389},"欫":{"x_min":0,"x_max":0,"ha":1389},"股":{"x_min":0,"x_max":0,"ha":1389},"耄":{"x_min":0,"x_max":0,"ha":1389},"洒":{"x_min":0,"x_max":0,"ha":1389},"弔":{"x_min":0,"x_max":0,"ha":1389},"⊻":{"x_min":0,"x_max":0,"ha":694},"殻":{"x_min":0,"x_max":0,"ha":1389},"奎":{"x_min":0,"x_max":0,"ha":1389},"讍":{"x_min":0,"x_max":0,"ha":1389},"羶":{"x_min":0,"x_max":0,"ha":1389},"㌏":{"x_min":0,"x_max":0,"ha":1389},"└":{"x_min":0,"x_max":0,"ha":1389},"荓":{"x_min":0,"x_max":0,"ha":1389},"蛟":{"x_min":0,"x_max":0,"ha":1389},"薯":{"x_min":0,"x_max":0,"ha":1389},"蔐":{"x_min":0,"x_max":0,"ha":1389},"幾":{"x_min":0,"x_max":0,"ha":1389},"帳":{"x_min":54.6875,"x_max":1315.640625,"ha":1389,"o":"m 1315 128 q 1289 54 1311 93 q 1235 4 1265 8 q 1173 42 1211 9 q 1113 89 1121 84 q 1043 120 1095 100 q 968 168 1002 136 q 1132 290 1132 193 q 1082 389 1132 340 l 1081 389 q 914 168 1045 391 q 732 -94 774 -70 q 667 -56 701 -94 q 633 12 633 -18 q 648 180 633 74 q 667 348 664 303 q 542 276 625 325 q 512 319 520 290 q 492 355 504 348 q 531 435 495 391 q 595 499 562 466 q 732 689 705 609 q 762 853 739 708 q 786 1021 786 999 q 782 1072 786 1038 l 793 1089 q 863 1043 863 1075 q 847 927 863 1041 q 891 869 846 914 q 931 946 904 895 q 888 986 930 963 l 888 1005 q 926 1036 899 1009 q 965 1057 949 1057 q 1013 1039 975 1057 q 1072 1019 1051 1021 l 1108 969 q 1030 870 1091 945 q 958 769 979 811 q 1076 702 999 721 q 1169 675 1161 680 q 1188 644 1188 660 q 1162 607 1188 622 q 973 508 1121 583 q 760 393 903 469 q 721 101 721 225 q 722 63 721 81 q 876 238 816 150 q 958 363 916 301 q 1074 454 1010 431 q 1241 335 1174 451 q 1315 128 1279 267 m 554 717 q 522 520 554 640 q 435 371 486 371 q 368 416 406 371 q 317 484 343 450 q 271 153 297 374 q 366 298 305 179 l 374 269 q 310 90 366 253 q 239 -70 264 -37 q 229 -71 233 -71 q 195 -44 216 -71 q 174 -5 178 -21 q 169 36 169 10 q 199 237 169 94 q 254 655 256 520 l 254 664 q 142 360 174 573 l 125 330 l 92 332 q 54 429 54 348 q 141 697 54 543 l 155 683 l 164 634 q 254 747 188 671 q 269 882 269 817 q 233 1038 269 991 l 235 1059 q 254 1056 245 1056 q 275 1058 260 1056 q 297 1060 290 1060 q 359 910 359 1060 q 350 823 359 861 q 458 876 412 876 q 554 717 554 876 m 857 819 l 835 857 l 827 781 l 857 819 m 1034 633 q 975 679 1005 656 q 922 733 939 706 q 785 573 861 664 l 777 500 q 910 561 843 530 q 1034 633 991 599 m 454 769 q 447 816 454 797 q 345 748 388 794 q 333 587 342 689 q 398 535 359 539 q 437 646 417 556 q 454 769 454 727 "},"霞":{"x_min":0,"x_max":0,"ha":1389},"楙":{"x_min":0,"x_max":0,"ha":1389},"膨":{"x_min":0,"x_max":0,"ha":1389},"痒":{"x_min":0,"x_max":0,"ha":1389},"ѫ":{"x_min":0,"x_max":0,"ha":694},"賛":{"x_min":55.546875,"x_max":1159.390625,"ha":1389,"o":"m 1159 762 q 1107 711 1159 727 q 1030 696 1092 705 q 861 667 872 669 q 706 602 762 644 q 581 501 663 572 q 830 589 740 589 q 926 543 888 589 q 960 438 960 499 q 835 244 960 338 q 614 143 726 164 q 424 -86 549 -27 q 301 -103 385 -103 q 526 160 477 48 q 573 305 541 208 q 587 331 577 322 q 640 350 604 350 q 671 346 655 350 q 675 326 675 335 q 665 289 675 314 q 655 257 655 265 l 655 251 q 777 339 713 274 q 849 465 849 411 q 839 503 849 484 q 824 508 834 508 q 607 388 754 508 q 429 202 471 277 l 424 202 q 385 225 398 201 q 367 270 377 247 q 482 452 374 320 q 634 614 572 559 q 857 730 720 690 q 820 810 820 772 q 857 913 820 839 q 893 1006 895 987 l 893 1009 q 391 444 736 938 q 345 375 368 409 q 292 312 317 334 q 237 398 254 327 q 285 492 240 422 q 330 586 330 563 q 329 591 330 586 q 260 547 299 580 q 225 610 234 568 q 264 720 248 670 q 218 717 241 717 q 55 765 94 717 l 59 776 q 191 818 116 784 q 317 873 303 868 q 368 1006 368 1004 q 433 1134 408 1100 q 490 1161 452 1160 q 508 1077 496 1132 q 558 1028 515 1052 q 631 985 623 991 l 631 976 q 558 871 634 917 q 414 797 486 834 q 333 702 336 753 q 359 705 347 705 q 423 685 395 705 q 451 632 451 666 q 660 886 556 759 q 903 1093 806 1052 q 930 1097 912 1097 q 1008 1066 983 1097 q 895 814 1006 1014 q 915 811 901 811 q 970 820 934 811 q 1026 829 1007 829 q 1107 815 1069 829 q 1159 762 1159 797 m 1055 -93 q 998 -139 1055 -139 q 900 -111 979 -139 q 775 -94 858 -94 l 820 -51 q 747 23 812 -29 q 657 107 675 81 q 691 109 672 109 q 915 46 794 109 q 1055 -93 1055 -31 m 481 967 l 458 1018 q 412 912 442 979 q 481 967 446 922 "},"У":{"x_min":0,"x_max":0,"ha":1389},"鶊":{"x_min":0,"x_max":0,"ha":1389},"志":{"x_min":168.1875,"x_max":1288.515625,"ha":1389,"o":"m 1288 153 q 1277 119 1288 137 q 1208 93 1254 102 q 1136 81 1142 83 q 1062 53 1098 66 q 984 36 1015 36 q 958 39 984 36 q 1075 209 1048 123 q 981 254 1040 254 q 826 161 896 254 q 722 -9 774 75 q 614 -101 667 -101 q 538 -19 566 -101 q 503 104 520 43 q 480 111 495 111 q 371 66 429 111 q 284 -15 340 41 q 230 -59 242 -59 q 185 -20 206 -59 q 168 41 169 13 q 333 242 192 105 q 535 414 455 358 q 530 414 534 414 q 460 398 505 414 q 391 382 415 382 q 375 447 374 399 l 375 462 q 412 512 382 476 q 457 563 451 556 q 534 706 476 589 q 340 661 382 661 q 198 725 275 661 q 385 798 264 742 q 571 878 526 862 q 598 992 598 927 q 592 1056 598 1014 q 587 1122 587 1099 l 610 1123 q 748 1092 663 1125 l 743 1045 q 790 1011 740 1019 q 889 996 840 1003 q 942 939 942 981 q 804 830 942 893 q 664 734 712 788 q 565 535 641 707 q 663 574 577 539 q 745 605 740 605 q 813 588 782 605 q 842 538 843 570 l 842 531 q 737 452 815 493 q 617 391 676 421 q 383 166 477 315 q 500 184 463 184 q 561 150 541 184 q 583 84 569 136 q 610 41 594 47 q 682 117 623 42 q 804 253 752 209 q 973 326 889 326 q 1254 213 1125 326 q 1288 153 1288 183 "},"齩":{"x_min":0,"x_max":0,"ha":1389},"譁":{"x_min":0,"x_max":0,"ha":1389},"〟":{"x_min":0,"x_max":0,"ha":1389},"鎨":{"x_min":0,"x_max":0,"ha":1389},"靕":{"x_min":0,"x_max":0,"ha":1389},"桫":{"x_min":0,"x_max":0,"ha":1389},"塾":{"x_min":0,"x_max":0,"ha":1389},"刀":{"x_min":153.265625,"x_max":1148.8125,"ha":1389,"o":"m 1148 851 q 1072 453 1148 790 q 979 88 998 122 q 763 -83 938 16 q 717 -64 736 -78 q 619 61 691 -48 q 549 162 584 111 q 501 274 512 220 q 457 219 492 266 q 336 91 391 133 q 179 12 276 45 l 153 15 q 382 299 310 197 q 561 615 493 455 q 501 601 534 611 l 484 608 q 625 735 533 673 q 679 752 651 752 q 763 714 751 752 q 731 655 754 689 q 693 600 697 606 q 535 331 613 464 q 625 205 546 263 q 769 134 690 156 q 876 228 839 158 q 967 535 920 312 q 1021 860 1002 705 q 969 885 1009 885 q 811 856 911 885 q 627 780 737 836 q 462 707 518 724 q 360 758 409 720 l 349 777 q 569 878 402 798 q 796 968 702 943 q 963 1004 923 1004 q 1078 949 1007 1004 q 1148 851 1148 894 "},"➍":{"x_min":0,"x_max":0,"ha":1389},"Ģ":{"x_min":0,"x_max":0,"ha":694},"㊘":{"x_min":0,"x_max":0,"ha":1389},"墲":{"x_min":0,"x_max":0,"ha":1389},"湟":{"x_min":0,"x_max":0,"ha":1389},"眀":{"x_min":0,"x_max":0,"ha":1389},"朓":{"x_min":0,"x_max":0,"ha":1389},"閖":{"x_min":0,"x_max":0,"ha":1389},"鑯":{"x_min":0,"x_max":0,"ha":1389},"娃":{"x_min":0,"x_max":0,"ha":1389},"恉":{"x_min":0,"x_max":0,"ha":1389},"景":{"x_min":133.796875,"x_max":1224.78125,"ha":1389,"o":"m 1224 80 q 1207 42 1224 61 q 1171 23 1190 23 q 1108 35 1150 23 q 1044 47 1066 47 q 999 42 1029 47 q 954 36 969 36 q 919 43 954 36 q 1007 113 988 85 q 908 195 964 153 l 919 208 q 973 211 949 211 q 1034 207 1009 211 q 1150 165 1090 198 q 1224 80 1224 124 m 1155 652 q 1129 615 1148 624 q 1069 597 1106 603 q 1008 588 1038 592 q 794 509 944 573 q 599 412 635 443 q 859 468 738 468 q 1037 372 1037 468 q 928 260 1037 325 q 765 195 828 200 q 789 54 789 101 q 741 -61 789 2 q 641 -128 691 -128 q 595 -116 615 -128 q 556 -82 584 -109 q 436 2 551 -78 l 436 18 q 528 9 489 9 q 650 62 619 9 q 674 199 674 100 q 652 344 674 287 l 690 360 l 749 345 q 759 268 764 314 l 763 268 q 862 295 809 267 q 941 362 915 324 q 838 400 920 400 q 697 376 778 400 q 570 315 608 351 q 532 276 547 294 q 455 188 509 244 q 414 261 414 188 q 421 317 414 288 q 842 564 600 508 q 398 431 603 545 q 270 355 334 393 q 152 294 171 295 q 133 333 133 300 q 143 384 133 355 q 169 421 154 413 q 574 692 380 539 q 531 752 531 707 q 548 800 531 768 q 580 846 566 831 q 745 914 649 914 q 808 888 786 914 q 886 1007 872 945 q 834 1033 866 1033 q 660 977 768 1033 q 520 868 553 921 q 500 765 500 836 q 476 692 500 716 q 412 826 412 703 q 449 977 412 957 l 466 976 q 489 916 474 936 q 673 1051 603 1011 q 890 1114 784 1114 q 969 1065 935 1114 q 997 974 997 1021 q 995 940 997 957 q 879 787 915 825 q 723 684 806 709 q 660 671 680 671 q 346 491 509 596 q 582 595 486 558 q 745 645 647 619 q 911 688 828 666 q 989 725 972 704 q 1086 707 1034 725 q 1155 652 1149 685 m 429 161 q 370 84 408 136 q 310 -12 324 6 q 241 -94 267 -77 q 191 -48 203 -82 q 166 8 173 0 q 176 63 172 48 q 206 109 184 88 l 219 101 l 248 62 q 429 161 303 84 m 743 838 q 717 845 732 845 q 667 828 697 845 q 637 793 637 812 q 642 784 637 788 q 701 802 663 784 q 743 838 740 820 "},"觽":{"x_min":0,"x_max":0,"ha":1389},"Ⅎ":{"x_min":0,"x_max":0,"ha":694},"藜":{"x_min":0,"x_max":0,"ha":1389},"咽":{"x_min":0,"x_max":0,"ha":1389},"牛":{"x_min":157,"x_max":1246.28125,"ha":1389,"o":"m 1246 457 q 1242 440 1246 448 q 1204 393 1240 416 q 1113 355 1173 380 q 996 305 1053 330 q 878 263 930 277 l 851 266 q 956 357 858 273 q 1041 450 1034 423 q 880 478 975 478 q 755 461 824 478 q 758 232 758 351 q 748 71 758 107 q 665 -65 733 15 q 608 -118 638 -97 q 523 -68 574 -117 q 449 7 486 -30 q 304 106 388 62 q 216 151 219 149 q 157 212 157 186 q 161 229 157 221 q 648 545 247 378 q 642 705 648 632 q 482 621 562 663 q 336 553 353 553 q 283 601 307 553 q 250 674 266 637 q 317 807 264 712 q 365 955 356 876 q 431 860 431 922 q 425 784 431 830 q 418 708 420 724 q 531 762 462 721 q 642 822 611 808 q 644 879 644 850 q 642 965 644 907 q 641 1052 641 1024 q 654 1094 641 1075 q 691 1112 668 1112 q 718 1105 703 1112 q 770 1009 733 1066 q 865 979 785 994 q 930 928 927 967 q 745 766 899 872 q 748 572 749 664 q 945 593 839 593 q 1234 490 1160 593 q 1246 457 1246 472 m 767 904 q 742 950 754 919 l 742 885 l 767 904 m 648 325 q 642 429 648 374 q 428 340 577 413 q 257 226 261 259 q 406 158 265 204 q 585 108 521 122 q 637 204 620 116 q 648 325 648 261 "},"☦":{"x_min":0,"x_max":0,"ha":1389},"鱚":{"x_min":0,"x_max":0,"ha":1389},"郁":{"x_min":0,"x_max":0,"ha":1389},"簎":{"x_min":0,"x_max":0,"ha":1389},"試":{"x_min":31.203125,"x_max":1348.203125,"ha":1389,"o":"m 1193 954 q 1192 934 1193 945 q 1158 913 1178 913 q 1137 915 1151 913 q 1117 918 1124 918 q 1028 911 1052 918 l 1005 913 q 1055 976 1041 949 l 988 1011 l 979 1029 q 1028 1048 990 1032 q 1078 1062 1057 1062 q 1156 1028 1118 1062 q 1193 954 1193 995 m 1348 -46 q 1295 -105 1348 -105 q 1204 -65 1250 -105 q 1166 -23 1190 -52 q 948 309 1057 112 q 764 661 908 381 q 655 599 731 653 q 497 455 569 537 q 360 188 417 364 q 320 61 340 124 q 248 -52 283 -37 q 199 -5 219 -43 q 180 61 180 28 q 212 215 180 107 q 242 377 245 324 l 242 391 q 92 269 234 387 q 31 349 37 279 q 206 610 75 436 q 375 873 328 774 q 322 929 362 897 q 268 981 282 961 l 268 999 q 358 1019 328 1019 q 477 980 419 1019 q 542 880 542 937 q 541 863 542 872 q 493 834 530 847 q 451 812 457 820 q 317 676 420 809 q 191 512 253 595 q 185 514 185 512 q 215 530 191 518 q 278 558 269 558 q 332 516 309 558 q 355 447 351 482 q 332 358 344 419 q 320 267 320 297 q 419 423 374 358 q 472 495 438 446 q 497 546 480 512 q 718 805 603 716 q 683 903 703 832 q 645 995 664 967 q 562 1057 615 1041 l 562 1074 q 614 1112 594 1090 q 690 1095 623 1108 q 760 1062 732 1087 q 762 1044 762 1053 q 752 990 762 1018 l 802 868 q 930 916 877 916 q 1006 870 1006 916 q 1002 842 1006 858 q 925 778 992 828 q 866 709 869 736 q 1174 150 1018 355 q 1197 273 1188 196 q 1212 398 1209 381 l 1219 363 q 1260 261 1235 345 q 1289 149 1274 206 q 1325 51 1307 100 q 1348 -46 1348 -13 m 983 192 q 980 172 983 183 q 762 69 835 107 q 571 -61 621 -4 l 566 -61 q 505 28 524 -61 q 594 184 528 86 q 701 329 653 275 q 632 297 684 329 q 565 249 579 265 q 482 366 514 271 l 499 375 q 518 373 508 373 q 636 429 557 373 q 739 486 716 486 q 811 476 771 486 q 862 436 862 461 q 769 292 862 415 q 655 115 670 161 q 839 211 716 147 q 858 373 849 265 q 885 303 866 348 q 944 252 895 287 q 983 192 983 223 "},"懿":{"x_min":0,"x_max":0,"ha":1389},"灶":{"x_min":0,"x_max":0,"ha":1389},"K":{"x_min":0,"x_max":0,"ha":694},"殨":{"x_min":0,"x_max":0,"ha":1389},"冱":{"x_min":0,"x_max":0,"ha":1389},"琩":{"x_min":0,"x_max":0,"ha":1389},"煁":{"x_min":0,"x_max":0,"ha":1389},"b":{"x_min":0,"x_max":0,"ha":694},"栢":{"x_min":0,"x_max":0,"ha":1389},"≕":{"x_min":0,"x_max":0,"ha":694},"謖":{"x_min":0,"x_max":0,"ha":1389},"≮":{"x_min":0,"x_max":0,"ha":694},"荢":{"x_min":0,"x_max":0,"ha":1389},"噬":{"x_min":0,"x_max":0,"ha":1389},"栬":{"x_min":0,"x_max":0,"ha":1389},"咐":{"x_min":0,"x_max":0,"ha":1389},"ɢ":{"x_min":0,"x_max":0,"ha":694},"愹":{"x_min":0,"x_max":0,"ha":1389},"鳧":{"x_min":0,"x_max":0,"ha":1389},"睎":{"x_min":0,"x_max":0,"ha":1389},"鄽":{"x_min":0,"x_max":0,"ha":1389},"郯":{"x_min":0,"x_max":0,"ha":1389},"垔":{"x_min":0,"x_max":0,"ha":1389},"勣":{"x_min":0,"x_max":0,"ha":1389},"漉":{"x_min":0,"x_max":0,"ha":1389},"騤":{"x_min":0,"x_max":0,"ha":1389},"專":{"x_min":0,"x_max":0,"ha":1389},"高":{"x_min":108.5,"x_max":1222.0625,"ha":1389,"o":"m 826 998 l 816 961 q 674 952 764 960 q 556 925 634 941 l 622 999 q 569 1057 610 1022 l 569 1072 q 613 1102 591 1087 q 659 1121 642 1121 q 675 1120 667 1121 q 735 1089 694 1105 q 792 1059 777 1072 q 826 998 819 1037 m 1222 905 q 1151 850 1222 850 q 1120 856 1136 850 q 990 874 1060 874 q 549 760 789 874 q 330 646 439 703 q 131 555 154 555 l 127 555 q 108 608 108 572 q 173 718 108 670 q 298 769 227 757 q 264 696 291 742 q 587 850 370 750 q 771 924 648 874 q 1032 997 938 997 q 1146 976 1087 997 q 1222 905 1222 949 m 978 293 q 759 -50 978 89 q 647 -105 672 -105 q 557 -81 581 -105 q 449 131 449 17 q 495 234 449 201 q 634 282 561 282 q 789 221 760 282 q 710 161 789 188 q 602 130 656 145 l 617 183 q 591 186 608 186 q 518 146 518 186 q 566 82 518 117 q 645 47 614 47 q 738 90 685 47 q 808 167 782 126 q 855 326 855 242 q 803 432 855 432 q 684 387 758 432 q 579 307 618 347 q 551 347 556 326 q 548 398 548 358 q 609 504 553 411 q 662 600 609 504 q 620 596 640 596 q 575 601 595 596 q 513 699 519 650 q 571 694 548 694 q 646 713 613 694 q 709 751 678 732 q 796 722 753 736 q 849 662 852 703 l 849 653 q 764 585 811 638 q 715 491 715 528 q 800 511 760 511 q 933 441 883 511 q 978 293 978 379 "},"証":{"x_min":36.625,"x_max":1342.71875,"ha":1389,"o":"m 1136 953 q 1087 896 1136 925 q 1014 858 1051 877 q 919 774 987 842 q 809 695 861 714 q 857 762 845 744 q 896 834 884 801 q 750 788 876 830 q 676 828 710 796 q 634 897 642 859 q 659 895 653 895 q 829 962 714 895 q 990 1029 944 1029 q 1078 1010 1030 1029 q 1136 953 1136 987 m 1342 429 l 1341 420 q 1319 393 1331 401 q 1228 374 1307 385 q 1158 356 1212 371 q 1087 345 1116 344 l 1074 345 l 1049 360 q 1175 493 1158 439 l 1166 493 q 1101 496 1143 492 q 1034 500 1055 500 q 890 416 945 500 q 969 260 913 362 q 1021 188 995 223 q 1056 108 1048 147 q 1004 65 1037 65 q 967 68 992 65 q 930 71 942 71 q 712 41 833 71 q 504 -32 591 10 q 461 77 461 -14 q 464 118 461 97 q 548 278 507 180 q 593 450 593 386 q 569 515 593 480 l 575 537 q 659 360 659 519 q 644 254 659 337 q 622 153 629 180 q 817 191 688 161 q 861 234 840 199 q 863 294 863 265 q 852 398 863 349 q 802 345 843 391 q 755 306 768 305 l 751 306 q 710 450 709 335 l 710 467 l 725 480 l 763 447 q 886 523 828 501 q 1027 556 930 539 q 1091 572 1040 558 q 1155 583 1131 583 q 1183 576 1171 583 q 1190 577 1186 577 q 1286 521 1227 577 q 1342 429 1345 465 m 541 916 q 539 900 541 908 q 490 868 527 882 q 448 847 453 854 q 191 541 400 838 l 187 542 q 229 568 193 550 q 278 590 265 587 q 355 478 344 572 q 321 294 340 416 q 482 553 406 444 l 485 520 q 375 253 446 432 q 302 35 352 179 q 248 -33 279 -20 q 201 15 221 -23 q 181 85 181 54 q 214 238 181 122 q 244 404 245 351 l 242 420 q 170 358 217 404 q 94 297 123 313 q 36 377 40 303 q 214 651 75 454 q 374 910 311 792 q 324 967 360 937 q 268 1019 280 1003 l 268 1037 q 358 1057 328 1057 q 476 1017 417 1057 q 541 916 541 973 "},"渮":{"x_min":0,"x_max":0,"ha":1389},"攞":{"x_min":0,"x_max":0,"ha":1389},"呧":{"x_min":0,"x_max":0,"ha":1389},"跋":{"x_min":0,"x_max":0,"ha":1389},"誩":{"x_min":0,"x_max":0,"ha":1389},"享":{"x_min":0,"x_max":0,"ha":1389},"轏":{"x_min":0,"x_max":0,"ha":1389},"會":{"x_min":0,"x_max":0,"ha":1389},"頸":{"x_min":0,"x_max":0,"ha":1389},"嗗":{"x_min":0,"x_max":0,"ha":1389},"㍿":{"x_min":0,"x_max":0,"ha":1389},"Ѿ":{"x_min":0,"x_max":0,"ha":694},"諓":{"x_min":0,"x_max":0,"ha":1389},"潢":{"x_min":0,"x_max":0,"ha":1389},"諌":{"x_min":0,"x_max":0,"ha":1389},"緲":{"x_min":0,"x_max":0,"ha":1389},"爛":{"x_min":0,"x_max":0,"ha":1389},"麛":{"x_min":0,"x_max":0,"ha":1389},"轥":{"x_min":0,"x_max":0,"ha":1389},"３":{"x_min":333.65625,"x_max":1062.015625,"ha":1389,"o":"m 1062 850 q 931 661 1062 740 q 703 574 839 604 q 899 535 830 566 q 958 477 935 517 q 981 394 981 436 q 831 139 981 238 q 534 51 698 51 q 333 173 333 51 q 367 251 333 208 q 435 300 401 295 l 424 223 q 515 176 440 176 q 684 211 590 176 q 827 300 778 247 q 872 410 863 338 q 798 474 858 460 q 691 481 771 481 q 546 468 617 481 q 523 516 523 479 q 537 561 523 540 q 714 666 556 593 q 915 786 880 742 q 942 863 939 814 q 831 926 916 926 q 694 905 767 926 q 572 845 610 882 q 657 803 592 818 q 593 778 640 802 q 534 753 546 753 q 487 774 508 753 q 466 821 466 795 q 606 984 466 934 q 840 1020 702 1020 q 987 976 922 1020 q 1062 850 1062 927 "},"奈":{"x_min":0,"x_max":0,"ha":1389},"跙":{"x_min":0,"x_max":0,"ha":1389},"亝":{"x_min":0,"x_max":0,"ha":1389},"↫":{"x_min":0,"x_max":0,"ha":694},"螕":{"x_min":0,"x_max":0,"ha":1389},"峙":{"x_min":0,"x_max":0,"ha":1389},"坭":{"x_min":0,"x_max":0,"ha":1389},"罅":{"x_min":0,"x_max":0,"ha":1389},"鐡":{"x_min":0,"x_max":0,"ha":1389},"嫦":{"x_min":0,"x_max":0,"ha":1389},"Ї":{"x_min":0,"x_max":0,"ha":694},"趬":{"x_min":0,"x_max":0,"ha":1389},"襣":{"x_min":0,"x_max":0,"ha":1389},"篩":{"x_min":0,"x_max":0,"ha":1389},"磈":{"x_min":0,"x_max":0,"ha":1389},"仨":{"x_min":0,"x_max":0,"ha":1389},"課":{"x_min":52.890625,"x_max":1360.890625,"ha":1389,"o":"m 1360 146 q 1279 108 1332 108 q 1226 115 1261 108 q 1172 123 1191 123 q 1147 119 1164 123 q 1122 116 1130 116 q 1096 119 1122 116 q 1170 220 1153 181 q 1067 269 1139 257 q 949 276 1033 275 q 955 107 955 192 q 946 -4 955 24 q 893 -107 938 -32 q 826 -59 860 -97 q 770 5 797 -27 q 663 120 717 55 q 567 48 630 108 q 473 -21 504 -10 q 450 52 450 -15 q 503 120 450 75 q 574 189 564 173 q 553 230 574 206 q 532 264 532 254 q 868 588 532 401 l 868 615 q 834 599 858 614 q 800 584 809 584 q 792 585 800 584 q 776 664 776 615 q 809 770 776 697 q 866 870 841 834 q 892 878 879 878 q 957 781 948 878 q 1050 873 1003 817 q 1107 984 1107 943 q 1082 1025 1107 1007 q 1033 1028 1056 1028 q 709 850 838 1028 q 632 730 685 802 q 592 836 592 748 q 602 892 592 873 q 740 1006 629 945 q 908 1079 830 1055 q 1088 1100 979 1100 q 1165 1063 1136 1100 q 1190 979 1190 1029 q 1105 812 1190 892 q 957 687 1032 749 l 959 642 q 1051 673 1021 673 q 1120 612 1098 673 q 1028 530 1104 595 q 948 448 964 474 q 946 406 946 428 q 949 344 946 375 q 1050 351 1002 351 q 1331 233 1255 351 q 1360 146 1360 185 m 557 901 l 557 893 q 512 862 547 874 q 466 839 473 847 q 211 543 431 835 q 206 545 206 543 q 245 568 206 550 q 297 590 284 587 q 373 480 362 572 q 339 302 348 424 q 557 697 424 447 q 512 600 534 663 q 480 499 496 550 q 366 189 440 396 q 321 50 352 142 q 267 -16 301 -1 q 219 31 240 -6 q 202 97 202 65 q 233 248 202 141 q 263 409 264 356 l 261 424 q 188 364 234 408 q 113 303 138 320 q 52 382 62 313 q 226 640 97 463 q 391 901 344 801 q 341 956 382 922 q 288 1007 301 990 l 288 1024 q 375 1045 347 1045 q 496 1005 436 1045 q 557 901 561 960 m 886 741 q 879 794 887 767 q 847 701 847 745 q 848 690 847 695 q 886 725 864 702 l 886 741 m 868 393 q 785 294 816 328 q 865 328 817 306 l 868 393 m 849 482 q 713 400 801 467 q 620 291 617 325 l 620 286 q 653 259 636 267 q 849 482 746 347 m 868 254 q 794 225 831 240 q 733 179 751 204 q 785 134 750 158 q 842 109 821 109 l 847 109 q 868 254 868 127 "},"莕":{"x_min":0,"x_max":0,"ha":1389},"註":{"x_min":0,"x_max":0,"ha":1389},"鱅":{"x_min":0,"x_max":0,"ha":1389},"閈":{"x_min":0,"x_max":0,"ha":1389},"長":{"x_min":104.90625,"x_max":1196.890625,"ha":1389,"o":"m 1196 664 q 1176 629 1196 641 q 970 577 1091 608 q 525 360 757 505 q 516 208 516 296 q 526 86 516 99 q 648 206 570 114 q 780 345 738 309 q 928 412 857 412 q 1080 353 990 412 q 1179 162 1179 285 q 1116 103 1179 103 q 1041 112 1091 103 q 966 121 992 121 q 924 120 952 121 q 883 118 897 118 q 830 122 856 118 l 815 138 q 997 282 964 208 q 962 337 997 313 q 898 356 932 356 q 760 238 844 356 q 623 19 747 221 q 521 -97 549 -97 q 453 -35 486 -97 q 425 57 425 18 q 438 322 425 214 q 267 213 325 270 q 214 149 250 191 q 176 124 193 124 l 168 125 q 125 176 136 141 q 104 240 108 233 q 220 360 119 269 q 464 642 391 513 q 492 795 476 665 q 529 1008 510 945 q 620 1115 560 1115 q 695 1058 686 1115 q 654 1019 690 1045 q 596 953 613 992 q 559 734 568 894 q 733 930 647 822 l 714 970 l 716 991 l 757 959 q 802 1011 771 970 q 849 1057 829 1045 q 979 985 958 1057 q 840 894 852 909 q 1022 787 887 844 q 1171 714 1157 729 q 1196 664 1196 688 m 939 697 q 798 851 888 729 q 657 725 733 802 q 538 581 575 641 q 534 486 534 527 q 737 591 594 520 q 939 697 869 655 m 446 473 l 402 425 l 444 447 l 446 473 "},"夝":{"x_min":0,"x_max":0,"ha":1389},"鞣":{"x_min":0,"x_max":0,"ha":1389},"襪":{"x_min":0,"x_max":0,"ha":1389},"酧":{"x_min":0,"x_max":0,"ha":1389},"塗":{"x_min":0,"x_max":0,"ha":1389},"詻":{"x_min":0,"x_max":0,"ha":1389},"↶":{"x_min":0,"x_max":0,"ha":694},"珍":{"x_min":0,"x_max":0,"ha":1389},"擗":{"x_min":0,"x_max":0,"ha":1389},"勀":{"x_min":0,"x_max":0,"ha":1389},"狗":{"x_min":0,"x_max":0,"ha":1389},"墫":{"x_min":0,"x_max":0,"ha":1389},"〵":{"x_min":0,"x_max":0,"ha":1389},"擎":{"x_min":0,"x_max":0,"ha":1389},"円":{"x_min":202,"x_max":1120,"ha":1389,"o":"m 1120 282 q 1113 174 1120 214 q 1053 50 1103 123 q 957 -46 1002 -27 q 866 -1 922 -42 q 784 62 824 31 q 689 131 751 84 q 605 227 647 166 l 605 246 q 891 145 796 145 q 978 461 978 145 q 961 865 978 808 q 933 918 953 893 q 881 948 908 948 q 728 922 816 948 q 590 854 632 893 q 699 829 666 854 q 743 729 733 804 q 670 564 721 672 q 811 583 709 583 q 889 558 850 583 q 940 498 929 534 q 893 471 927 471 q 832 481 872 471 q 771 492 793 492 q 434 345 625 492 q 393 407 409 344 q 463 492 413 439 q 565 620 535 570 q 628 772 602 679 q 586 799 621 785 q 543 829 552 814 l 510 817 l 487 821 q 655 976 543 918 q 877 1032 760 1032 q 1099 831 990 1032 q 1107 542 1105 697 q 1113 414 1107 501 q 1120 282 1120 326 m 355 493 q 288 37 355 131 l 281 37 q 222 93 248 33 q 202 184 202 142 q 226 335 202 236 q 264 488 262 482 q 300 802 291 627 l 323 793 q 355 493 355 695 "},"驗":{"x_min":0,"x_max":0,"ha":1389},"耒":{"x_min":0,"x_max":0,"ha":1389},"枵":{"x_min":0,"x_max":0,"ha":1389},"肉":{"x_min":167.078125,"x_max":1188,"ha":1389,"o":"m 1188 271 q 1179 115 1188 160 q 1096 -29 1164 39 q 949 -124 1027 -97 q 871 -93 897 -112 q 756 8 822 -59 q 661 122 690 76 q 782 70 722 96 q 907 36 866 36 q 1019 104 972 36 q 1063 234 1063 166 q 1053 746 1063 628 q 907 879 1042 879 q 694 762 756 879 q 645 640 656 693 q 766 687 721 659 q 878 621 858 667 q 763 492 867 598 q 624 341 648 375 q 827 373 782 377 q 844 375 835 375 q 913 349 874 375 q 957 294 951 322 q 943 270 954 279 q 811 195 920 248 q 671 141 697 141 q 644 143 671 141 q 784 283 774 251 q 491 189 569 244 q 457 249 457 198 q 458 272 457 260 q 584 402 521 337 q 694 546 658 480 q 675 553 687 553 q 634 542 662 553 q 591 531 606 531 q 568 535 580 531 l 534 607 q 556 672 537 630 q 579 733 575 713 q 489 657 546 718 q 399 554 426 591 q 339 434 354 493 q 318 316 323 369 q 310 171 314 242 q 290 38 304 65 q 225 -10 268 -6 q 167 86 167 23 q 199 397 167 183 q 221 554 210 476 q 255 710 236 644 q 306 644 290 693 q 325 557 316 600 q 607 864 422 718 q 654 1007 654 973 q 636 1028 654 1028 q 580 1000 613 1028 q 537 950 548 973 l 519 962 q 550 1053 522 1013 q 630 1101 583 1101 q 768 997 768 1101 q 750 914 768 967 q 908 958 849 958 q 1139 866 1087 958 q 1164 736 1151 843 q 1188 271 1188 554 "},"歝":{"x_min":0,"x_max":0,"ha":1389},"晿":{"x_min":0,"x_max":0,"ha":1389},"鑽":{"x_min":0,"x_max":0,"ha":1389},"à":{"x_min":0,"x_max":0,"ha":694},"郷":{"x_min":38.109375,"x_max":1269,"ha":1389,"o":"m 1269 512 q 1267 476 1269 493 q 1158 295 1263 399 q 992 146 1075 220 q 1109 114 1083 125 q 1175 28 1175 84 q 1144 -18 1175 -5 q 1061 -39 1115 -24 q 879 -99 1000 -61 q 988 0 943 -52 q 835 2 922 3 q 808 53 808 21 q 903 193 808 106 q 1082 354 992 273 q 1177 536 1177 453 q 1101 755 1177 755 q 984 721 1076 755 q 938 742 957 723 q 919 786 919 760 q 937 884 919 820 q 958 981 956 953 q 907 839 946 960 q 832 588 867 718 q 735 300 774 382 q 545 63 672 177 q 489 91 514 64 q 464 150 464 118 q 507 437 464 234 q 579 725 545 612 q 636 745 596 738 q 694 696 674 717 q 722 907 722 793 q 720 963 722 937 q 543 702 656 942 q 356 261 522 655 q 221 6 255 21 q 173 86 173 3 q 211 202 173 106 q 261 331 259 322 q 238 345 259 345 q 168 325 215 345 q 143 368 143 333 q 154 421 143 400 q 192 475 161 433 q 282 612 253 555 q 62 471 199 571 q 38 527 38 471 q 46 578 38 561 q 123 673 47 582 q 328 960 267 847 q 290 1013 317 984 l 291 1036 q 340 1049 308 1037 q 390 1062 373 1062 q 444 1042 416 1062 q 472 998 472 1022 q 469 983 472 988 q 337 853 416 933 q 209 666 255 757 q 318 740 230 679 l 322 740 q 390 712 350 740 q 435 660 431 685 q 343 551 389 605 q 265 441 279 474 l 278 441 q 336 398 332 444 q 419 573 364 456 q 615 930 514 786 q 735 1043 668 1006 q 782 1036 759 1040 q 819 1006 805 1033 q 784 744 811 872 q 675 517 741 539 q 618 597 641 540 q 573 401 599 546 q 548 204 548 257 q 550 178 548 186 q 722 443 652 288 q 832 740 764 535 q 973 1086 945 1086 q 1058 1082 1044 1086 q 1115 1022 1092 1071 q 1065 941 1090 995 q 1041 851 1041 887 q 1044 842 1041 847 q 1094 845 1090 845 q 1232 717 1184 845 q 1269 512 1269 622 "},"麇":{"x_min":0,"x_max":0,"ha":1389},"訵":{"x_min":0,"x_max":0,"ha":1389},"臡":{"x_min":0,"x_max":0,"ha":1389},"痤":{"x_min":0,"x_max":0,"ha":1389},"償":{"x_min":0,"x_max":0,"ha":1389},"墀":{"x_min":0,"x_max":0,"ha":1389},"隗":{"x_min":0,"x_max":0,"ha":1389},"菩":{"x_min":0,"x_max":0,"ha":1389},"榯":{"x_min":0,"x_max":0,"ha":1389},"⒯":{"x_min":0,"x_max":0,"ha":1389},"黭":{"x_min":0,"x_max":0,"ha":1389},"疴":{"x_min":0,"x_max":0,"ha":1389},"ҁ":{"x_min":0,"x_max":0,"ha":694},"駰":{"x_min":0,"x_max":0,"ha":1389},"☯":{"x_min":0,"x_max":0,"ha":1389},"膂":{"x_min":0,"x_max":0,"ha":1389},"銚":{"x_min":0,"x_max":0,"ha":1389},"溟":{"x_min":0,"x_max":0,"ha":1389},"ò":{"x_min":0,"x_max":0,"ha":694},"荿":{"x_min":0,"x_max":0,"ha":1389},"圈":{"x_min":0,"x_max":0,"ha":1389},"聞":{"x_min":146,"x_max":1180,"ha":1389,"o":"m 908 793 q 826 743 908 769 q 585 659 744 717 q 503 619 543 638 q 417 590 451 596 l 370 618 l 370 632 q 592 752 583 748 q 815 836 756 836 q 908 793 908 836 m 1180 234 q 1137 50 1180 147 q 1018 -90 1089 -58 q 935 -47 986 -88 q 864 19 933 -46 q 763 89 816 62 q 710 -90 758 -2 l 694 -82 q 671 170 671 13 q 674 255 671 217 q 504 195 609 242 q 337 128 388 142 q 314 158 318 135 q 306 203 309 181 q 449 303 360 245 q 441 362 441 324 q 483 510 441 420 q 568 642 525 600 l 583 600 l 618 614 q 659 603 625 609 q 692 575 685 599 q 637 523 686 568 q 604 459 604 493 q 616 461 605 461 q 687 444 671 461 q 694 566 694 481 q 694 621 694 621 q 676 671 692 651 l 677 686 q 707 697 692 697 q 786 649 730 697 l 786 360 q 891 396 841 375 q 852 447 886 415 l 848 466 q 943 447 890 465 q 1020 400 1005 427 q 985 345 1014 360 q 885 314 967 336 q 781 290 803 292 q 776 161 781 253 q 857 123 803 147 q 965 90 901 103 q 1063 374 1063 124 q 1056 695 1063 496 q 1034 975 1046 950 q 993 982 1016 982 q 845 937 934 982 q 714 850 768 897 l 707 850 q 645 874 677 849 q 590 915 597 912 q 528 828 528 906 q 528 815 528 824 q 528 802 528 807 q 500 756 528 756 q 447 793 478 756 q 409 762 435 790 q 363 733 383 733 q 322 797 345 733 q 296 878 308 838 l 317 884 q 394 835 364 864 q 444 853 424 835 l 424 1003 q 486 976 470 987 q 529 922 513 958 q 592 965 544 952 q 634 961 612 961 q 808 1019 691 961 q 999 1077 924 1077 q 1095 1043 1042 1077 q 1155 965 1155 1006 q 1153 907 1155 946 q 1151 847 1151 868 q 1173 371 1151 805 q 1180 234 1180 231 m 287 360 q 217 78 287 149 q 183 62 200 61 q 146 193 146 107 q 156 311 146 241 q 177 431 167 371 q 202 614 198 580 q 217 800 216 720 l 243 793 q 287 360 287 695 m 598 543 q 587 546 594 546 q 553 537 575 546 q 507 368 507 417 q 508 358 507 364 l 568 396 q 551 447 551 431 q 598 543 551 463 m 684 390 q 446 253 564 354 q 679 335 542 288 l 684 390 "},"⁻":{"x_min":0,"x_max":0,"ha":694},"汀":{"x_min":0,"x_max":0,"ha":1389},"ū":{"x_min":0,"x_max":0,"ha":694},"ﾜ":{"x_min":0,"x_max":0,"ha":694},"籞":{"x_min":0,"x_max":0,"ha":1389},"寔":{"x_min":0,"x_max":0,"ha":1389},"欷":{"x_min":0,"x_max":0,"ha":1389},"峋":{"x_min":0,"x_max":0,"ha":1389},"柰":{"x_min":0,"x_max":0,"ha":1389},"自":{"x_min":317.25,"x_max":1088,"ha":1389,"o":"m 1088 164 q 1075 27 1088 60 q 1009 -28 1059 9 q 936 -79 959 -67 q 880 -94 914 -91 q 805 -5 856 -79 q 727 56 765 56 q 655 32 701 56 q 595 8 609 8 q 560 80 560 37 q 591 127 560 98 q 637 168 614 148 q 693 290 677 206 q 637 331 666 311 q 606 389 606 357 q 631 451 606 411 q 655 519 655 491 q 652 557 655 532 q 650 595 650 583 q 660 636 650 614 l 678 643 q 757 631 678 643 q 820 602 811 621 q 767 509 820 578 q 695 412 702 427 q 788 384 742 399 q 842 316 845 359 l 842 308 q 784 239 828 293 q 734 170 738 180 q 796 155 767 170 q 830 107 834 137 l 887 83 q 957 164 939 106 q 971 298 971 207 q 969 436 969 367 q 972 562 969 469 q 973 687 973 639 q 971 776 973 759 q 927 839 962 839 q 786 792 873 839 q 664 706 709 750 q 532 508 570 612 q 478 339 496 409 q 442 177 459 258 q 391 36 410 49 q 378 34 385 34 q 317 155 317 34 q 356 471 317 307 q 469 768 397 643 q 641 1057 530 862 q 602 1098 634 1074 l 603 1121 q 635 1125 621 1125 q 753 1087 679 1125 q 782 1040 782 1072 q 781 1025 782 1033 q 679 897 748 981 q 512 691 546 746 q 439 436 443 577 q 622 734 494 597 q 867 884 728 849 q 922 895 908 895 q 1000 867 965 895 q 1045 800 1034 840 q 1063 657 1059 748 q 1068 514 1066 585 q 1088 164 1088 272 "},"桅":{"x_min":0,"x_max":0,"ha":1389},"∡":{"x_min":0,"x_max":0,"ha":694},"☡":{"x_min":0,"x_max":0,"ha":1389},"ℕ":{"x_min":0,"x_max":0,"ha":694},"初":{"x_min":104.40625,"x_max":1309.046875,"ha":1389,"o":"m 1309 698 q 1230 400 1276 619 q 1139 112 1189 204 q 1053 28 1113 66 q 942 -9 993 -9 q 879 112 907 -9 q 832 276 845 259 q 757 181 799 214 q 645 122 716 149 l 614 130 q 822 576 769 316 l 812 602 q 579 474 700 561 q 428 282 428 366 q 434 156 428 240 q 441 31 441 73 q 386 -70 441 -28 q 316 51 316 -24 q 321 120 316 78 q 328 188 326 176 q 162 -10 273 120 l 154 -10 q 104 81 104 -14 q 172 231 104 119 q 302 447 302 446 q 381 653 374 577 q 263 572 335 633 q 147 484 181 503 q 112 580 112 519 q 119 618 112 604 q 381 958 193 755 q 298 1053 366 1005 l 298 1072 q 352 1097 311 1076 q 408 1114 386 1114 q 494 1078 436 1114 q 564 1015 552 1043 q 495 945 552 983 q 407 891 451 918 q 332 823 375 869 q 241 713 288 778 q 337 783 268 720 q 431 843 402 843 q 554 793 516 843 q 535 739 554 773 q 504 687 519 713 q 468 480 487 655 q 717 657 639 611 q 998 774 832 725 q 1074 798 1036 786 q 1142 819 1134 819 q 1233 772 1169 819 q 1309 698 1296 725 m 1135 655 q 1133 684 1135 671 q 1108 689 1123 689 q 941 659 1041 689 q 868 626 908 648 q 912 619 906 621 q 945 592 935 611 l 945 584 q 915 465 946 554 q 872 337 874 349 q 912 238 884 286 q 988 174 949 174 q 1091 397 1043 211 q 1135 655 1135 560 "},"蹄":{"x_min":0,"x_max":0,"ha":1389},"ｩ":{"x_min":0,"x_max":0,"ha":694},"軔":{"x_min":0,"x_max":0,"ha":1389},"脊":{"x_min":0,"x_max":0,"ha":1389},"罨":{"x_min":0,"x_max":0,"ha":1389},"憭":{"x_min":0,"x_max":0,"ha":1389},"緪":{"x_min":0,"x_max":0,"ha":1389},"娑":{"x_min":0,"x_max":0,"ha":1389},"Ｙ":{"x_min":323,"x_max":1050.5,"ha":1389,"o":"m 1050 915 q 1024 827 1050 918 q 885 400 994 726 q 845 293 864 346 q 814 184 821 227 q 1001 361 889 240 q 849 97 948 274 q 768 -58 823 44 q 703 -134 730 -120 q 654 -82 678 -124 q 630 -12 630 -40 q 730 284 630 32 q 859 616 849 585 q 703 396 734 431 q 482 270 593 270 q 365 332 412 270 q 323 460 323 389 q 376 671 323 511 q 457 884 422 807 q 396 880 426 880 q 362 882 378 880 q 441 953 372 888 q 512 1012 502 1012 q 567 979 537 1012 q 597 920 597 945 q 514 727 597 910 q 432 468 432 544 q 518 368 432 368 q 731 574 598 368 q 886 861 815 708 q 947 1006 904 913 q 959 1009 952 1009 q 1020 978 990 1009 q 1050 915 1050 947 "},"嶝":{"x_min":0,"x_max":0,"ha":1389},"㋩":{"x_min":0,"x_max":0,"ha":1389},"梣":{"x_min":0,"x_max":0,"ha":1389},"⇦":{"x_min":0,"x_max":0,"ha":694},"蘀":{"x_min":0,"x_max":0,"ha":1389},"沰":{"x_min":0,"x_max":0,"ha":1389},"楻":{"x_min":0,"x_max":0,"ha":1389},"侹":{"x_min":0,"x_max":0,"ha":1389},"℆":{"x_min":0,"x_max":0,"ha":694},"恋":{"x_min":0,"x_max":0,"ha":1389},"誓":{"x_min":0,"x_max":0,"ha":1389},"紆":{"x_min":0,"x_max":0,"ha":1389},"鬦":{"x_min":0,"x_max":0,"ha":1389},"箏":{"x_min":0,"x_max":0,"ha":1389},"彳":{"x_min":0,"x_max":0,"ha":1389},"鵈":{"x_min":0,"x_max":0,"ha":1389},"瑾":{"x_min":0,"x_max":0,"ha":1389},"麭":{"x_min":0,"x_max":0,"ha":1389},"臗":{"x_min":0,"x_max":0,"ha":1389},"儱":{"x_min":0,"x_max":0,"ha":1389},"絢":{"x_min":0,"x_max":0,"ha":1389},"壜":{"x_min":0,"x_max":0,"ha":1389},"❥":{"x_min":0,"x_max":0,"ha":1389},"秇":{"x_min":0,"x_max":0,"ha":1389},"ʛ":{"x_min":0,"x_max":0,"ha":694},"逧":{"x_min":0,"x_max":0,"ha":1389},"褓":{"x_min":0,"x_max":0,"ha":1389},"椹":{"x_min":0,"x_max":0,"ha":1389},"叅":{"x_min":0,"x_max":0,"ha":1389},"鷭":{"x_min":0,"x_max":0,"ha":1389},"眥":{"x_min":0,"x_max":0,"ha":1389},"：":{"x_min":610,"x_max":775.46875,"ha":1389,"o":"m 773 772 q 746 719 773 744 q 690 694 720 694 q 610 785 610 694 q 629 835 610 813 q 679 857 649 857 q 773 772 773 857 m 775 275 q 747 218 775 242 q 687 194 719 194 q 634 216 658 194 q 610 267 610 238 l 610 291 q 630 337 610 317 q 676 358 650 358 q 746 336 717 358 q 775 275 775 315 "},"髑":{"x_min":0,"x_max":0,"ha":1389},"鑡":{"x_min":0,"x_max":0,"ha":1389},"柹":{"x_min":0,"x_max":0,"ha":1389},"惷":{"x_min":0,"x_max":0,"ha":1389},"粆":{"x_min":0,"x_max":0,"ha":1389},"㈩":{"x_min":0,"x_max":0,"ha":1389},"ʐ":{"x_min":0,"x_max":0,"ha":694},"宓":{"x_min":0,"x_max":0,"ha":1389},"堺":{"x_min":0,"x_max":0,"ha":1389},"哾":{"x_min":0,"x_max":0,"ha":1389},"甦":{"x_min":0,"x_max":0,"ha":1389},"鷟":{"x_min":0,"x_max":0,"ha":1389},"軣":{"x_min":0,"x_max":0,"ha":1389},"畝":{"x_min":0,"x_max":0,"ha":1389},"晝":{"x_min":0,"x_max":0,"ha":1389},"网":{"x_min":0,"x_max":0,"ha":1389},"⋕":{"x_min":0,"x_max":0,"ha":694},"渉":{"x_min":0,"x_max":0,"ha":1389},"慓":{"x_min":0,"x_max":0,"ha":1389},"淀":{"x_min":0,"x_max":0,"ha":1389},"霃":{"x_min":0,"x_max":0,"ha":1389},"豫":{"x_min":0,"x_max":0,"ha":1389},"滯":{"x_min":0,"x_max":0,"ha":1389},"℁":{"x_min":0,"x_max":0,"ha":694},"桲":{"x_min":0,"x_max":0,"ha":1389},"Ξ":{"x_min":0,"x_max":0,"ha":1389},"辻":{"x_min":0,"x_max":0,"ha":1389},"臠":{"x_min":0,"x_max":0,"ha":1389},"砡":{"x_min":0,"x_max":0,"ha":1389},"澮":{"x_min":0,"x_max":0,"ha":1389},"】":{"x_min":131.21875,"x_max":478,"ha":1389,"o":"m 478 -69 l 131 -69 q 325 215 256 46 q 393 556 393 381 q 326 859 393 714 q 131 1099 256 1010 l 478 1099 l 478 -69 "},"悍":{"x_min":0,"x_max":0,"ha":1389},"厨":{"x_min":0,"x_max":0,"ha":1389},"兂":{"x_min":0,"x_max":0,"ha":1389},"陋":{"x_min":0,"x_max":0,"ha":1389},"煒":{"x_min":0,"x_max":0,"ha":1389},"玵":{"x_min":0,"x_max":0,"ha":1389},"罟":{"x_min":0,"x_max":0,"ha":1389},"國":{"x_min":0,"x_max":0,"ha":1389},"艟":{"x_min":0,"x_max":0,"ha":1389},"穅":{"x_min":0,"x_max":0,"ha":1389},"咩":{"x_min":0,"x_max":0,"ha":1389},"砌":{"x_min":0,"x_max":0,"ha":1389},"遮":{"x_min":0,"x_max":0,"ha":1389},"艅":{"x_min":0,"x_max":0,"ha":1389},"慊":{"x_min":0,"x_max":0,"ha":1389},"瘤":{"x_min":0,"x_max":0,"ha":1389},"率":{"x_min":126.140625,"x_max":1260.078125,"ha":1389,"o":"m 1260 253 l 1260 249 q 1190 214 1241 214 q 1151 221 1175 214 q 827 249 1043 249 q 756 247 783 249 l 756 218 q 697 -139 760 -3 q 629 141 629 -51 q 630 237 629 167 q 143 121 386 210 q 126 149 126 127 q 162 220 126 203 q 328 274 227 249 q 499 310 413 291 q 641 335 547 314 q 642 351 642 343 q 625 411 642 385 q 486 366 545 376 q 458 451 458 390 q 474 487 458 466 q 534 549 474 487 q 630 662 588 605 q 674 709 645 682 l 534 679 q 514 738 514 716 q 519 759 514 750 q 596 830 526 774 q 689 909 675 892 q 480 838 596 885 q 339 778 428 811 q 322 820 322 797 q 349 881 322 865 q 514 940 385 903 q 687 985 629 974 q 600 1002 641 985 l 645 1037 q 566 1112 618 1069 l 575 1128 q 642 1145 610 1145 q 733 1102 680 1145 q 790 1022 785 1060 q 903 1058 861 1058 q 983 1033 945 1058 q 1026 968 1028 1006 l 1026 961 q 971 942 1006 948 q 881 930 925 936 q 644 778 794 921 q 712 784 682 784 q 751 771 728 784 q 781 743 774 758 q 751 681 777 709 q 820 614 766 655 q 878 549 868 579 q 684 422 817 465 q 743 385 698 409 q 1030 534 971 480 q 1053 582 1053 555 q 988 612 1021 597 q 945 660 945 632 q 979 780 945 697 q 918 831 958 808 l 910 846 l 977 871 q 1037 841 1011 861 q 1066 786 1068 816 l 1066 778 q 1024 685 1033 720 q 1113 663 1040 677 q 1187 639 1178 649 q 1211 609 1196 629 q 1260 513 1260 549 q 1205 473 1260 481 q 1125 468 1165 470 q 942 403 1087 458 q 760 358 823 358 l 770 344 q 937 352 827 350 q 1099 361 1047 355 q 1260 253 1262 316 m 404 651 q 383 604 404 622 q 310 646 335 611 q 261 716 286 680 l 261 728 q 302 732 283 732 q 371 713 343 732 q 404 651 404 690 m 435 541 q 345 431 404 505 q 310 367 328 398 q 252 330 286 333 q 195 423 195 401 q 215 466 195 438 q 245 509 242 505 q 287 469 261 504 q 435 564 339 499 l 435 541 m 732 565 q 722 644 732 599 q 587 485 678 581 q 731 543 683 496 q 732 565 732 554 "},"鷃":{"x_min":0,"x_max":0,"ha":1389},"樽":{"x_min":0,"x_max":0,"ha":1389},"奴":{"x_min":0,"x_max":0,"ha":1389},"鸚":{"x_min":0,"x_max":0,"ha":1389},"韷":{"x_min":0,"x_max":0,"ha":1389},"講":{"x_min":44.765625,"x_max":1336,"ha":1389,"o":"m 1336 164 q 1334 147 1336 156 q 1285 120 1321 127 q 1203 112 1257 119 q 1117 92 1193 111 q 1033 78 1064 78 q 994 81 1029 78 q 1146 215 1090 138 q 999 251 1108 251 q 945 246 972 251 q 965 51 965 58 q 941 -36 965 13 q 888 -101 918 -86 q 850 -66 866 -94 q 774 63 812 -1 q 689 181 724 150 q 671 100 678 169 q 652 4 663 27 l 646 4 q 588 43 614 2 q 568 114 564 80 l 573 161 q 424 73 451 100 q 397 128 397 85 q 408 175 397 160 q 557 302 416 185 q 513 345 553 314 q 473 394 473 375 q 550 472 489 436 q 651 523 600 497 q 845 786 712 705 l 792 834 q 622 703 733 816 q 463 440 556 636 q 344 143 390 284 q 313 54 333 114 q 259 -14 292 1 q 212 31 231 -5 q 192 99 192 67 q 223 251 192 143 q 253 416 254 359 l 253 425 q 181 364 227 412 q 104 305 134 317 q 44 383 54 312 q 215 642 90 470 q 383 903 336 806 q 336 956 374 923 q 279 1009 291 992 l 279 1026 q 367 1049 341 1049 q 484 1007 424 1049 q 549 907 549 961 q 509 868 549 882 q 458 842 465 851 q 203 545 421 835 q 198 546 198 545 q 237 571 198 552 q 288 591 276 590 q 363 482 356 573 q 341 395 352 458 q 330 301 330 332 q 592 736 500 640 q 748 881 668 815 q 653 1070 689 971 l 665 1098 q 705 1106 683 1106 q 888 1083 731 1106 q 1075 1051 1051 1060 q 1106 1018 1106 1037 q 1002 937 1106 983 q 854 866 870 880 l 899 819 q 996 865 934 844 q 1102 887 1059 887 q 1128 882 1121 887 q 1177 760 1139 874 q 1220 621 1207 669 q 1234 535 1234 573 q 1231 505 1234 520 q 1209 501 1220 501 q 1125 538 1180 501 q 1048 593 1087 565 q 1001 547 1034 570 q 956 505 968 524 q 935 414 935 474 q 939 330 935 417 q 1055 336 1002 336 q 1205 319 1169 336 q 1285 252 1241 303 q 1336 164 1336 196 m 910 990 q 830 1021 895 1005 q 739 1037 777 1033 q 813 918 771 956 q 910 990 873 950 m 1105 693 q 1091 808 1105 762 q 1057 825 1086 825 q 938 787 1009 825 q 1101 652 988 727 q 1105 693 1105 669 m 986 645 l 878 744 q 714 547 748 661 q 824 588 773 564 q 827 611 827 599 q 820 652 827 625 q 813 693 813 679 l 846 705 q 904 682 849 702 q 944 638 941 668 l 986 645 m 798 496 q 701 458 752 482 l 695 409 q 798 496 733 435 m 853 317 l 846 408 q 705 288 785 363 l 713 279 l 853 317 m 869 157 q 865 226 869 187 l 846 226 q 767 214 798 227 q 868 130 805 168 q 869 157 869 142 m 632 440 q 558 383 561 408 l 617 348 q 632 440 622 396 "},"麿":{"x_min":0,"x_max":0,"ha":1389},"觧":{"x_min":0,"x_max":0,"ha":1389},"吓":{"x_min":0,"x_max":0,"ha":1389},"妾":{"x_min":0,"x_max":0,"ha":1389},"濟":{"x_min":0,"x_max":0,"ha":1389},"旧":{"x_min":204.859375,"x_max":1179,"ha":1389,"o":"m 1179 503 q 1093 113 1179 233 q 913 8 1016 8 q 728 166 804 8 q 665 421 665 299 q 692 516 665 475 q 775 564 722 564 q 849 561 822 564 q 943 523 895 555 q 996 444 996 486 q 979 425 996 433 q 956 413 958 414 q 875 361 910 361 q 830 409 849 361 q 780 458 810 458 q 729 406 729 458 q 781 242 729 330 q 909 145 840 145 q 967 182 937 145 q 1002 246 990 212 q 1039 545 1039 355 q 1013 804 1039 707 q 942 872 995 872 q 743 739 858 872 q 628 550 670 653 q 602 329 613 512 q 562 142 592 166 q 510 193 522 151 q 489 269 499 231 q 488 332 488 300 q 505 550 488 352 q 518 743 505 561 q 507 754 514 754 q 461 717 488 754 q 436 673 447 698 q 347 357 355 490 q 339 220 343 288 q 305 92 331 132 q 280 83 293 83 q 221 142 242 83 q 204 233 204 187 q 233 488 204 276 q 264 885 268 754 l 284 878 q 339 612 339 831 q 336 494 339 573 q 527 819 397 819 q 606 702 606 819 q 604 653 606 688 q 756 853 633 730 q 965 985 889 985 q 1077 944 1025 985 q 1159 785 1139 892 q 1176 602 1166 748 q 1179 503 1179 550 "},"后":{"x_min":140,"x_max":1234.265625,"ha":1389,"o":"m 1234 151 q 1201 86 1234 101 q 1151 73 1184 77 q 1099 62 1112 66 q 929 -1 1044 37 l 901 9 q 1013 153 981 84 q 910 275 979 204 l 904 297 q 957 316 914 299 q 1009 328 991 329 l 1018 328 q 1108 273 1043 303 q 1200 217 1173 242 q 1234 151 1234 183 m 1169 651 q 1134 604 1169 619 q 1035 577 1108 594 q 751 410 882 545 l 720 410 q 913 664 758 477 q 509 496 669 630 q 480 326 502 439 q 387 132 452 227 q 233 -8 312 25 q 158 75 183 4 q 140 195 140 128 q 233 397 140 305 q 421 530 290 451 q 399 621 419 558 q 382 710 382 679 q 448 839 382 770 q 583 958 480 874 q 700 1070 673 1030 l 704 1090 q 795 1068 749 1079 q 850 1011 850 1049 q 842 989 850 999 q 730 923 833 979 q 600 854 601 855 q 491 775 543 820 q 440 698 440 731 q 465 640 440 690 q 499 573 496 581 q 606 634 534 594 q 783 714 666 664 q 964 779 935 779 q 1089 743 1019 779 q 1169 651 1169 701 m 755 280 l 743 248 q 698 126 708 207 q 678 24 690 40 q 646 17 661 17 q 568 62 603 17 q 526 147 538 99 q 585 284 549 192 l 604 280 l 651 211 q 755 280 680 242 m 423 447 q 228 233 228 343 q 255 147 228 169 q 365 280 314 183 q 423 447 408 364 "},"厴":{"x_min":0,"x_max":0,"ha":1389},"楣":{"x_min":0,"x_max":0,"ha":1389},"㏩":{"x_min":0,"x_max":0,"ha":1389},"Ӳ":{"x_min":0,"x_max":0,"ha":694},"銽":{"x_min":0,"x_max":0,"ha":1389},"匽":{"x_min":0,"x_max":0,"ha":1389},"壟":{"x_min":0,"x_max":0,"ha":1389},"▇":{"x_min":0,"x_max":0,"ha":694},"鯷":{"x_min":0,"x_max":0,"ha":1389},"✏":{"x_min":0,"x_max":0,"ha":1389},"Ý":{"x_min":0,"x_max":0,"ha":694},"犎":{"x_min":0,"x_max":0,"ha":1389},"鮨":{"x_min":0,"x_max":0,"ha":1389},"榲":{"x_min":0,"x_max":0,"ha":1389},"納":{"x_min":126,"x_max":1284,"ha":1389,"o":"m 1284 237 q 1277 108 1284 147 q 1201 -32 1263 34 q 1069 -126 1142 -95 q 930 -45 1007 -119 q 850 25 902 -23 q 761 135 810 66 q 658 100 705 102 l 643 105 q 719 195 692 151 q 692 296 692 254 q 694 321 692 309 q 771 238 732 272 q 909 421 841 292 q 817 395 875 417 q 725 367 753 372 q 681 407 703 380 q 660 455 660 433 q 672 512 660 480 q 695 566 684 539 q 736 724 717 622 q 569 602 643 674 q 422 459 494 531 q 545 239 545 337 q 435 82 545 167 q 249 -3 325 -3 q 161 26 196 -3 q 126 106 126 55 q 328 467 126 246 q 305 605 305 533 q 355 822 305 693 q 309 778 337 811 q 260 733 280 744 l 253 733 q 201 767 230 733 q 161 820 181 793 l 161 835 q 325 941 188 847 q 469 1022 445 1022 q 543 991 496 1022 q 601 934 590 959 q 516 823 579 891 q 423 714 445 746 q 380 583 380 648 q 389 533 380 556 q 554 685 443 586 q 755 827 568 697 q 793 964 793 936 q 776 985 793 985 q 725 958 755 985 q 685 909 696 932 l 670 921 q 700 1016 672 976 q 780 1057 727 1057 q 902 957 902 1057 q 884 880 902 923 q 1019 921 961 921 q 1181 888 1118 921 q 1229 836 1210 872 q 1273 546 1258 783 q 1284 237 1284 376 m 1166 226 q 1151 717 1166 547 q 1117 824 1144 798 q 1052 850 1090 850 q 858 776 966 850 q 787 506 784 557 l 787 501 q 878 540 809 505 q 966 571 939 571 q 1037 548 993 571 q 1081 502 1081 525 q 1081 496 1081 496 q 1039 411 1077 474 q 825 184 966 292 q 1039 52 976 52 q 1133 113 1095 52 q 1166 226 1166 166 m 458 272 q 435 344 458 309 q 386 402 410 372 q 276 265 332 334 q 205 115 205 168 q 210 95 205 102 q 228 88 215 88 q 368 158 278 88 q 458 272 458 229 "},"㏈":{"x_min":0,"x_max":0,"ha":1389},"刢":{"x_min":0,"x_max":0,"ha":1389},"滏":{"x_min":0,"x_max":0,"ha":1389},"湗":{"x_min":0,"x_max":0,"ha":1389},"鋙":{"x_min":0,"x_max":0,"ha":1389},"絗":{"x_min":0,"x_max":0,"ha":1389},"刕":{"x_min":0,"x_max":0,"ha":1389},"頭":{"x_min":128.859375,"x_max":1247.828125,"ha":1389,"o":"m 1158 577 q 1050 366 1158 470 q 837 248 950 271 q 660 -10 781 55 q 546 -32 618 -32 q 752 265 699 120 q 810 456 778 357 q 859 480 828 480 q 888 473 873 480 q 892 452 892 463 q 882 408 892 437 q 873 364 873 378 q 991 469 927 389 q 1055 606 1055 550 q 1044 652 1055 629 q 1033 655 1040 655 q 881 566 984 655 q 750 437 806 503 q 668 313 694 372 l 663 313 q 622 340 638 311 q 608 390 608 363 q 725 640 608 428 q 844 904 842 851 q 717 868 789 868 q 638 889 675 868 q 778 1009 654 910 q 918 1108 903 1108 q 970 1094 934 1108 q 1018 1070 1006 1081 q 1044 1006 1044 1048 q 1040 976 1044 991 q 928 813 992 916 q 840 642 854 694 q 1041 746 961 746 q 1132 687 1099 746 q 1158 577 1158 640 m 1247 -17 q 1194 -71 1247 -71 q 1147 -61 1170 -71 q 1102 -39 1124 -50 q 987 -21 1060 -21 l 1028 24 q 958 108 1021 46 q 876 204 892 174 q 920 210 906 210 q 1120 130 998 210 q 1247 -17 1247 47 m 636 706 q 561 630 636 689 q 467 558 514 594 q 398 489 429 527 q 371 446 371 457 q 373 442 371 444 l 375 442 q 436 457 394 442 q 499 472 477 472 q 534 453 518 472 q 550 413 550 434 q 549 406 550 413 q 438 278 493 341 q 330 172 347 173 l 332 172 q 399 194 340 172 q 489 217 458 217 q 533 200 514 217 q 552 158 553 183 l 552 155 q 349 74 451 115 q 154 -17 230 25 q 128 58 131 -1 q 193 130 145 82 q 265 200 229 165 q 401 362 332 269 q 314 339 368 360 q 263 317 260 317 q 230 381 230 317 q 234 416 230 400 q 355 550 279 461 q 448 684 450 664 l 448 687 q 362 650 410 680 q 287 590 313 619 q 242 522 272 566 l 237 522 q 191 603 207 520 q 256 722 202 633 q 325 847 278 764 q 290 846 307 846 q 179 899 193 846 q 320 980 249 939 q 453 1044 428 1043 q 527 1018 491 1030 q 580 971 580 995 q 558 933 580 953 q 523 903 541 918 q 438 827 438 827 q 367 741 385 777 q 537 804 496 800 q 636 706 636 752 "},"停":{"x_min":76.90625,"x_max":1209.90625,"ha":1389,"o":"m 952 1073 q 912 1039 952 1044 q 851 1039 910 1039 q 740 996 796 1039 l 713 991 q 760 1079 731 1020 l 713 1127 l 716 1142 q 777 1147 736 1142 q 838 1152 817 1152 q 910 1131 874 1152 q 952 1073 952 1108 m 1209 435 q 1095 272 1209 367 q 921 156 1014 204 q 889 -31 921 27 q 740 -144 852 -100 q 808 62 808 -12 q 803 95 808 80 q 703 66 802 95 q 602 49 644 49 q 539 66 557 49 q 521 129 521 84 q 583 260 521 198 q 647 306 605 282 q 720 334 694 334 q 903 252 843 334 q 1008 325 952 268 q 1082 429 1064 381 q 999 465 1066 465 q 878 447 957 465 q 805 431 805 431 q 740 450 774 431 q 702 500 702 471 q 747 595 702 528 q 801 689 796 666 q 740 751 759 726 l 739 756 q 764 801 739 768 q 801 843 789 833 q 638 780 643 780 q 544 848 576 780 l 549 862 q 637 883 579 869 q 774 936 638 885 q 900 976 878 976 q 987 962 939 976 q 1051 916 1051 944 q 965 844 1051 885 q 866 753 874 801 q 910 726 873 745 q 945 685 939 711 q 883 609 937 669 q 834 527 838 562 q 926 542 845 528 q 1018 553 980 553 q 1209 435 1209 553 m 481 496 q 342 155 410 354 q 296 33 329 113 q 264 -5 277 -5 q 207 32 231 -5 q 186 100 186 65 q 223 208 186 141 q 260 316 260 276 q 258 328 260 322 q 192 302 220 325 q 136 257 163 279 l 131 257 q 91 305 109 257 q 76 374 76 345 q 104 454 76 386 q 142 537 120 495 q 285 783 143 541 q 397 1010 397 975 q 376 1087 397 1043 l 395 1106 q 469 979 469 1033 q 409 778 469 904 q 300 572 390 736 q 245 440 242 466 l 245 438 q 288 447 266 447 q 364 389 331 447 q 481 539 402 427 l 481 496 m 797 205 q 738 266 789 266 q 652 222 700 266 q 608 141 605 178 l 608 133 q 626 132 617 132 q 720 153 669 132 q 797 205 772 175 "},"Ⓐ":{"x_min":0,"x_max":0,"ha":1389},"脋":{"x_min":0,"x_max":0,"ha":1389},"丁":{"x_min":192.40625,"x_max":1217.78125,"ha":1389,"o":"m 1217 900 q 1200 861 1217 877 q 1160 845 1183 845 q 1077 860 1132 845 q 995 876 1022 876 q 844 828 939 876 q 739 728 739 775 q 740 720 739 728 q 844 321 844 638 q 762 44 844 135 q 494 -48 676 -48 q 305 -9 389 -48 q 633 130 481 23 q 735 420 735 202 q 713 594 735 527 q 683 661 709 603 q 659 718 659 713 q 690 776 659 739 q 721 826 721 813 q 717 839 721 832 q 542 800 665 832 q 437 767 531 797 q 348 739 351 739 q 260 759 304 739 q 192 816 210 781 l 197 816 q 314 842 218 815 q 751 971 458 889 q 1004 1019 838 983 q 1130 981 1057 1015 q 1217 900 1217 942 "},"饇":{"x_min":0,"x_max":0,"ha":1389},"邁":{"x_min":0,"x_max":0,"ha":1389},"胰":{"x_min":0,"x_max":0,"ha":1389},"鉾":{"x_min":0,"x_max":0,"ha":1389},"ẅ":{"x_min":0,"x_max":0,"ha":694},"声":{"x_min":94.9375,"x_max":1129.828125,"ha":1389,"o":"m 1129 995 q 1067 933 1121 954 q 955 908 1033 920 q 854 885 877 896 q 781 816 813 868 l 771 801 q 770 800 771 800 l 771 800 q 1000 834 954 834 q 1059 813 1026 834 q 1108 769 1093 792 l 1108 762 q 1052 708 1110 720 q 1015 705 1040 708 q 923 686 972 699 q 637 546 748 632 q 987 626 846 615 q 1116 546 1079 595 q 1052 450 1116 495 q 946 362 965 387 l 963 330 q 906 283 952 299 q 798 256 897 280 q 720 231 793 254 q 640 215 671 215 q 611 221 623 215 q 607 241 607 231 q 687 336 607 278 q 709 447 709 404 q 694 495 709 478 q 505 429 625 486 q 332 328 391 377 q 321 364 321 345 q 338 413 321 393 q 461 504 355 432 q 853 727 610 606 q 545 637 764 724 q 387 571 491 617 q 383 599 383 583 q 398 671 383 629 q 653 834 542 722 q 447 794 459 794 q 297 870 332 794 l 317 882 q 716 969 457 892 q 720 1018 720 998 q 671 1083 720 1081 l 671 1108 q 721 1151 705 1128 q 793 1132 756 1142 q 839 1079 826 1118 q 857 1015 843 1057 q 1015 1045 967 1045 q 1078 1032 1043 1045 q 1129 995 1120 1017 m 623 413 q 311 -67 451 37 q 220 -114 278 -93 q 122 -135 162 -135 q 94 -130 122 -135 q 499 381 364 94 l 500 401 q 575 436 526 424 q 623 413 600 431 m 950 537 q 927 538 939 538 q 763 511 817 538 q 807 438 794 492 l 782 375 q 950 537 903 457 "},"К":{"x_min":0,"x_max":0,"ha":1389},"挭":{"x_min":0,"x_max":0,"ha":1389},"衹":{"x_min":0,"x_max":0,"ha":1389},"₣":{"x_min":0,"x_max":0,"ha":694},"鍇":{"x_min":0,"x_max":0,"ha":1389},"粗":{"x_min":0,"x_max":0,"ha":1389},"憁":{"x_min":0,"x_max":0,"ha":1389},"慞":{"x_min":0,"x_max":0,"ha":1389},"ケ":{"x_min":275.59375,"x_max":1188.484375,"ha":1389,"o":"m 1188 721 q 1160 678 1188 695 q 1104 660 1131 660 q 951 607 1039 660 q 822 504 875 561 q 869 450 829 488 q 905 387 905 417 q 848 241 905 332 q 659 40 774 124 q 407 -54 527 -54 q 382 -50 393 -54 q 613 151 493 25 q 791 397 742 288 q 785 432 791 409 q 780 467 780 455 q 938 660 780 523 q 419 504 588 615 q 312 431 378 477 q 275 488 275 465 q 381 689 275 554 q 504 911 492 830 q 434 973 487 945 l 434 983 q 508 1019 472 1007 q 625 996 602 1003 q 706 929 706 972 q 678 887 706 912 q 637 851 658 869 q 536 684 588 804 q 990 802 843 802 q 1188 721 1188 802 "},"〕":{"x_min":89.546875,"x_max":351,"ha":1389,"o":"m 351 31 l 131 -90 l 103 -46 l 293 58 l 293 930 l 89 1049 l 122 1091 l 351 958 l 351 31 "},"厎":{"x_min":0,"x_max":0,"ha":1389},"旰":{"x_min":0,"x_max":0,"ha":1389},"▵":{"x_min":0,"x_max":0,"ha":694},"慅":{"x_min":0,"x_max":0,"ha":1389},"淇":{"x_min":0,"x_max":0,"ha":1389},"ヴ":{"x_min":263.125,"x_max":1285.8125,"ha":1389,"o":"m 1285 866 q 1253 820 1285 820 q 1185 867 1235 820 q 1101 914 1135 914 q 1094 908 1094 914 q 1117 876 1094 904 q 1140 827 1140 848 q 1098 766 1140 778 q 1024 842 1062 781 q 963 934 972 923 l 973 939 l 1021 934 q 1112 970 1066 970 q 1219 942 1162 970 q 1285 866 1285 909 m 1118 639 q 1086 514 1118 613 q 1038 384 1056 424 q 839 106 967 225 q 541 -48 695 -28 l 523 -41 q 895 403 777 187 q 977 641 949 502 q 878 684 950 684 q 633 622 774 684 q 417 491 497 566 q 299 362 401 476 q 263 514 263 385 q 339 613 263 536 q 438 708 387 660 q 611 920 562 830 q 571 1007 598 969 l 579 1018 l 592 1018 q 635 1023 607 1016 q 675 1030 663 1030 q 689 1028 682 1030 q 796 908 796 954 q 755 874 796 881 q 691 868 722 871 q 606 828 645 858 q 514 742 568 798 q 443 647 451 675 q 646 735 585 714 q 865 774 759 774 q 1019 744 942 774 q 1118 639 1118 704 "},"柔":{"x_min":0,"x_max":0,"ha":1389},"惊":{"x_min":0,"x_max":0,"ha":1389},"鬱":{"x_min":0,"x_max":0,"ha":1389},"饐":{"x_min":0,"x_max":0,"ha":1389},"椊":{"x_min":0,"x_max":0,"ha":1389},"宸":{"x_min":0,"x_max":0,"ha":1389},"ｰ":{"x_min":0,"x_max":0,"ha":694},"＾":{"x_min":472,"x_max":900.609375,"ha":1389,"o":"m 900 950 l 889 937 q 789 1003 882 941 q 684 1062 729 1044 q 486 934 671 1060 l 472 944 l 480 964 q 583 1070 531 1017 q 691 1155 664 1150 q 800 1059 718 1140 q 900 950 877 983 "},"ù":{"x_min":0,"x_max":0,"ha":694},"掲":{"x_min":0,"x_max":0,"ha":1389},"捎":{"x_min":0,"x_max":0,"ha":1389},"◅":{"x_min":0,"x_max":0,"ha":694},"繃":{"x_min":0,"x_max":0,"ha":1389},"エ":{"x_min":218.375,"x_max":1170.515625,"ha":1389,"o":"m 1170 127 q 1152 104 1170 113 q 1118 95 1133 95 q 1093 104 1108 99 q 735 161 897 161 q 244 53 500 161 l 226 64 q 218 125 218 128 q 253 169 218 155 q 354 200 287 177 q 545 328 472 248 q 629 535 629 420 q 609 608 629 570 q 590 654 590 645 q 592 675 590 661 q 594 696 594 690 q 583 720 594 713 l 571 720 q 385 797 473 717 q 575 842 478 806 q 648 889 592 848 q 722 924 694 924 q 823 913 758 924 q 918 892 889 903 q 954 844 946 881 q 853 783 910 802 q 752 759 830 776 q 679 740 687 743 q 638 687 637 722 l 638 679 q 716 641 653 664 q 778 584 764 622 q 702 397 740 490 q 571 248 652 295 q 603 248 603 248 l 912 288 q 998 276 937 291 q 1085 249 1053 261 q 1145 199 1120 233 q 1170 127 1170 165 "},"兌":{"x_min":0,"x_max":0,"ha":1389},"㏣":{"x_min":0,"x_max":0,"ha":1389},"刋":{"x_min":0,"x_max":0,"ha":1389},"煤":{"x_min":0,"x_max":0,"ha":1389},"◖":{"x_min":0,"x_max":0,"ha":694},"鬢":{"x_min":0,"x_max":0,"ha":1389},"柧":{"x_min":0,"x_max":0,"ha":1389},"犴":{"x_min":0,"x_max":0,"ha":1389},"髄":{"x_min":0,"x_max":0,"ha":1389},"曬":{"x_min":0,"x_max":0,"ha":1389},"陻":{"x_min":0,"x_max":0,"ha":1389},"玭":{"x_min":0,"x_max":0,"ha":1389},"瀣":{"x_min":0,"x_max":0,"ha":1389},"釁":{"x_min":0,"x_max":0,"ha":1389},"嬗":{"x_min":0,"x_max":0,"ha":1389},"乵":{"x_min":0,"x_max":0,"ha":1389},"逵":{"x_min":0,"x_max":0,"ha":1389},"泓":{"x_min":0,"x_max":0,"ha":1389},"擠":{"x_min":0,"x_max":0,"ha":1389},"鬘":{"x_min":0,"x_max":0,"ha":1389},"鋎":{"x_min":0,"x_max":0,"ha":1389},"逼":{"x_min":0,"x_max":0,"ha":1389},"爍":{"x_min":0,"x_max":0,"ha":1389},"檞":{"x_min":0,"x_max":0,"ha":1389},"⁂":{"x_min":0,"x_max":0,"ha":694},"誷":{"x_min":0,"x_max":0,"ha":1389},"憃":{"x_min":0,"x_max":0,"ha":1389},"嘱":{"x_min":0,"x_max":0,"ha":1389},"箴":{"x_min":0,"x_max":0,"ha":1389},"ʌ":{"x_min":0,"x_max":0,"ha":694},"狄":{"x_min":0,"x_max":0,"ha":1389},"寰":{"x_min":0,"x_max":0,"ha":1389},"り":{"x_min":398.40625,"x_max":957,"ha":1389,"o":"m 957 547 q 856 139 957 295 q 504 -62 740 -43 l 491 -54 q 744 231 656 54 q 827 604 827 401 q 799 956 827 908 q 753 981 786 979 q 599 801 649 948 q 539 530 584 760 q 456 339 508 375 q 398 455 398 368 q 411 648 398 519 q 424 840 424 777 q 411 934 424 907 l 422 942 q 482 874 462 915 q 516 790 498 832 q 779 1057 631 1057 q 872 1020 825 1057 q 936 938 919 983 q 951 752 944 918 q 957 547 957 617 "},"決":{"x_min":142.328125,"x_max":1295.296875,"ha":1389,"o":"m 1174 587 q 1172 566 1174 577 q 1003 456 1135 520 q 819 338 866 389 q 636 12 746 94 q 460 -55 545 -55 q 402 -51 432 -55 l 385 -38 q 687 291 635 96 q 605 252 656 283 q 525 208 549 218 q 483 246 499 215 q 453 294 464 286 l 453 298 q 488 353 451 319 q 786 785 746 592 q 544 602 681 748 q 415 394 473 526 q 332 161 374 277 q 210 -16 267 -6 q 142 134 142 0 q 166 317 142 214 q 216 496 192 406 q 253 675 226 555 q 291 747 258 692 q 320 812 320 793 q 279 908 320 821 l 288 919 q 321 920 306 920 q 416 895 366 920 q 475 823 475 865 q 415 767 475 792 q 317 708 340 736 q 295 656 295 680 q 300 618 295 644 q 305 579 305 592 q 274 422 305 524 q 244 273 244 319 q 246 244 244 252 q 313 340 273 272 q 373 444 343 391 q 564 688 449 569 q 800 880 686 816 q 808 966 808 962 q 761 1009 808 1009 q 728 1004 747 1009 l 708 1013 q 747 1068 734 1055 q 810 1089 770 1089 q 891 1055 873 1089 q 892 1036 892 1045 q 888 977 892 1015 q 883 919 883 938 q 884 900 883 910 q 930 885 891 891 q 983 878 957 881 q 1017 817 1017 850 q 1014 798 1017 808 q 914 694 964 747 q 839 581 843 621 l 830 501 q 982 607 915 551 q 989 641 989 621 q 971 726 989 663 q 1079 667 994 709 q 1165 616 1155 627 q 1174 587 1174 604 m 1295 -9 q 1285 -48 1295 -28 q 1234 -61 1262 -61 q 1175 -56 1215 -61 q 1116 -52 1136 -52 q 1040 -57 1090 -52 q 964 -62 990 -62 q 915 -56 941 -62 l 895 -40 q 1036 51 1010 2 q 935 149 1029 81 q 819 265 836 219 q 1024 223 953 250 q 1186 128 1101 192 q 1295 -9 1295 48 m 755 538 q 683 461 720 500 q 619 378 641 413 q 736 447 667 390 q 755 538 750 481 "},"➘":{"x_min":0,"x_max":0,"ha":1389},"✆":{"x_min":0,"x_max":0,"ha":1389},"鉥":{"x_min":0,"x_max":0,"ha":1389},"傯":{"x_min":0,"x_max":0,"ha":1389},"⋇":{"x_min":0,"x_max":0,"ha":694},"雹":{"x_min":0,"x_max":0,"ha":1389},"赩":{"x_min":0,"x_max":0,"ha":1389},"⁴":{"x_min":0,"x_max":0,"ha":694},"涖":{"x_min":0,"x_max":0,"ha":1389},"❼":{"x_min":0,"x_max":0,"ha":1389},"避":{"x_min":0,"x_max":0,"ha":1389},"貜":{"x_min":0,"x_max":0,"ha":1389},"瞕":{"x_min":0,"x_max":0,"ha":1389},"炴":{"x_min":0,"x_max":0,"ha":1389},"偱":{"x_min":0,"x_max":0,"ha":1389},"鏨":{"x_min":0,"x_max":0,"ha":1389},"共":{"x_min":112.921875,"x_max":1173.21875,"ha":1389,"o":"m 1173 944 q 1147 884 1173 903 q 1007 853 1112 861 q 854 838 878 843 q 767 697 827 789 q 648 530 683 585 q 570 348 572 410 q 706 389 602 351 q 826 428 811 428 q 885 396 853 428 q 930 336 918 364 q 859 260 922 321 q 807 191 807 207 l 807 188 q 915 143 861 165 q 988 69 990 112 l 988 65 q 920 5 965 17 q 827 -2 906 1 q 735 -12 773 -5 q 589 -66 669 -21 l 563 -62 q 748 88 602 -4 q 750 96 750 92 q 719 138 750 111 q 688 192 688 165 q 715 242 688 207 q 751 297 746 283 q 636 264 705 291 q 523 222 549 229 q 461 297 461 245 q 537 492 461 354 q 645 684 591 588 q 705 809 679 748 q 583 775 656 800 q 466 728 498 748 l 461 693 l 513 725 l 510 703 q 452 579 468 640 q 437 515 443 547 q 401 459 428 489 q 349 501 370 469 q 328 566 328 533 q 336 627 328 590 q 346 687 344 671 q 210 641 301 670 q 112 693 153 655 l 114 716 q 240 758 159 718 q 367 815 339 807 q 428 952 395 923 l 446 950 q 466 847 454 916 q 746 926 579 889 q 788 1040 773 979 q 744 1081 770 1064 l 751 1098 q 795 1101 766 1098 q 838 1104 824 1104 q 908 1019 908 1104 q 900 958 908 991 q 980 980 911 961 q 1052 998 1043 998 q 1119 981 1080 998 q 1173 944 1158 965 "},"㈤":{"x_min":0,"x_max":0,"ha":1389},"左":{"x_min":233.328125,"x_max":1214.859375,"ha":1389,"o":"m 1214 322 q 1202 289 1214 303 q 1180 286 1191 286 q 1045 359 1130 286 q 985 430 1035 367 q 805 646 924 501 q 629 543 672 571 q 483 419 508 465 q 594 426 561 426 q 660 400 622 426 q 705 347 698 374 q 651 260 698 324 q 612 168 612 206 q 796 98 612 98 q 868 100 826 98 q 918 102 910 102 q 1040 68 978 102 q 1113 -22 1113 30 q 1090 -59 1113 -45 q 1044 -72 1067 -72 q 876 -51 1039 -72 q 659 -2 730 -30 q 529 149 529 49 q 546 240 529 198 q 573 313 569 297 q 507 330 564 330 q 455 326 489 330 q 402 323 420 323 q 341 380 341 323 q 409 479 341 412 q 589 622 489 556 q 739 725 641 655 q 659 823 697 782 q 519 747 642 816 q 394 687 411 687 q 242 731 317 687 l 233 754 q 595 951 457 866 q 558 1002 576 976 q 534 1053 534 1037 q 565 1105 534 1086 q 749 1034 697 1034 q 787 1036 762 1034 q 824 1038 812 1038 q 908 1011 869 1038 q 836 924 904 966 q 735 857 745 867 q 797 775 756 820 q 920 847 859 812 q 1043 899 1011 899 q 1119 865 1083 899 q 1086 730 1086 808 q 1111 573 1086 641 q 1171 443 1113 566 q 1214 322 1214 348 m 1044 491 q 1020 722 1020 612 q 1025 784 1020 761 q 1020 786 1022 786 q 862 691 976 786 q 1044 491 939 589 "},"錦":{"x_min":0,"x_max":0,"ha":1389},"褆":{"x_min":0,"x_max":0,"ha":1389},"搶":{"x_min":0,"x_max":0,"ha":1389},"塰":{"x_min":0,"x_max":0,"ha":1389},"↝":{"x_min":0,"x_max":0,"ha":694},"陴":{"x_min":0,"x_max":0,"ha":1389},"洿":{"x_min":0,"x_max":0,"ha":1389},"嬰":{"x_min":0,"x_max":0,"ha":1389},"廎":{"x_min":0,"x_max":0,"ha":1389},"瞭":{"x_min":0,"x_max":0,"ha":1389},"剔":{"x_min":0,"x_max":0,"ha":1389},"緡":{"x_min":0,"x_max":0,"ha":1389},"枢":{"x_min":0,"x_max":0,"ha":1389},"竬":{"x_min":0,"x_max":0,"ha":1389},"傃":{"x_min":0,"x_max":0,"ha":1389},"簠":{"x_min":0,"x_max":0,"ha":1389},"腡":{"x_min":0,"x_max":0,"ha":1389},"籕":{"x_min":0,"x_max":0,"ha":1389},"瘣":{"x_min":0,"x_max":0,"ha":1389},"郴":{"x_min":0,"x_max":0,"ha":1389},"夸":{"x_min":0,"x_max":0,"ha":1389},"蠺":{"x_min":0,"x_max":0,"ha":1389},"嘔":{"x_min":0,"x_max":0,"ha":1389},"≀":{"x_min":0,"x_max":0,"ha":694},"⒙":{"x_min":0,"x_max":0,"ha":1389},"至":{"x_min":260.421875,"x_max":1201.71875,"ha":1389,"o":"m 1201 453 q 1113 404 1201 404 q 1095 405 1108 404 q 1076 406 1082 406 q 948 377 1028 406 l 925 383 q 968 424 953 408 q 999 470 999 457 l 931 518 q 1041 568 957 552 q 1135 520 1045 564 q 1201 453 1201 488 m 943 134 q 922 67 943 97 q 712 -6 852 28 q 488 -40 571 -40 q 405 -25 449 -40 q 350 27 350 -5 q 351 37 350 31 q 389 116 348 70 q 441 183 437 168 q 418 181 428 181 q 307 253 307 181 q 340 347 307 305 q 483 466 385 404 q 649 535 588 535 q 705 520 679 535 q 727 591 727 564 q 712 626 727 618 q 618 660 665 642 q 556 733 556 686 q 636 870 556 775 q 737 1011 725 976 q 541 892 682 992 q 356 807 420 807 q 260 858 314 807 l 261 880 q 496 1006 378 942 q 736 1090 659 1090 q 805 1064 773 1090 q 837 1002 837 1037 l 837 996 q 727 868 812 950 q 623 736 646 790 q 676 710 626 731 q 770 668 740 686 q 819 600 819 636 q 816 584 819 594 q 660 276 767 390 q 554 170 607 223 q 469 70 466 82 q 611 90 525 71 q 744 138 710 112 q 832 276 790 172 q 880 438 865 358 l 897 424 q 919 254 900 321 q 943 134 943 169 m 665 472 q 509 405 612 467 q 397 295 397 339 q 425 257 397 275 q 571 337 504 280 q 665 472 645 400 "},"誠":{"x_min":63.75,"x_max":1337.4375,"ha":1389,"o":"m 1337 525 q 1294 480 1337 480 q 1245 492 1276 480 q 1197 505 1214 505 q 1139 473 1163 505 q 1134 439 1134 457 q 1167 334 1134 400 q 1201 228 1201 267 q 1197 193 1201 210 q 1171 183 1186 183 q 1101 199 1148 183 q 1027 214 1053 214 q 993 209 1007 214 q 995 102 995 214 l 995 53 q 966 -49 995 12 q 905 -132 938 -112 q 766 142 844 -91 q 521 0 648 83 q 487 81 490 5 q 620 255 518 141 q 746 430 715 362 q 731 431 739 431 q 692 426 715 431 q 680 475 680 448 q 717 583 680 511 q 769 696 762 668 q 667 619 720 676 q 578 534 604 552 q 538 592 553 547 q 526 662 526 628 q 568 789 526 664 q 614 940 609 915 q 667 756 675 924 q 911 912 785 844 q 923 1019 918 991 q 956 1117 935 1094 l 960 1117 q 1010 1090 980 1118 q 1058 1049 1046 1054 q 1125 1024 1070 1043 q 1188 993 1169 1010 q 1208 953 1208 976 q 1183 905 1208 924 q 1095 868 1174 897 q 991 806 1025 844 q 971 532 971 646 q 983 317 971 429 q 1072 336 1059 323 q 1085 418 1085 349 q 1097 473 1085 456 q 1129 528 1098 490 q 1163 585 1159 567 l 1098 638 l 1094 660 q 1196 675 1171 675 q 1215 673 1205 675 q 1298 616 1256 645 q 1337 525 1337 582 m 545 877 q 518 849 545 853 q 458 842 497 847 q 280 758 377 817 l 254 758 l 344 911 q 267 983 324 941 l 275 998 q 364 1024 339 1025 l 375 1024 q 476 963 425 992 q 545 877 545 919 m 509 674 q 478 560 505 636 q 438 447 458 504 q 356 211 379 275 q 254 -8 287 24 q 245 -9 250 -9 q 190 23 215 -9 q 165 86 165 55 q 244 524 165 223 q 177 490 230 522 q 116 459 123 459 q 75 497 92 459 q 63 558 63 528 q 65 583 63 569 l 84 583 l 109 561 q 187 625 118 566 q 263 675 242 672 q 297 676 275 676 q 370 645 367 676 q 309 451 339 568 q 275 254 275 320 q 276 233 275 242 q 393 458 320 290 q 509 674 465 619 m 1030 973 q 996 1017 1015 994 q 996 954 998 981 l 1030 973 m 898 773 q 829 735 865 755 q 850 712 832 728 q 865 680 865 697 q 834 600 865 649 q 794 530 798 545 q 831 473 831 493 q 778 351 831 423 q 710 236 718 271 q 897 303 814 287 q 892 408 892 343 q 895 592 892 469 q 898 773 898 714 m 907 142 q 905 189 907 165 q 813 162 867 180 q 842 92 818 131 q 892 40 866 54 q 907 142 907 69 "},"㌬":{"x_min":0,"x_max":0,"ha":1389},"隆":{"x_min":0,"x_max":0,"ha":1389},"➟":{"x_min":0,"x_max":0,"ha":1389},"豾":{"x_min":0,"x_max":0,"ha":1389},"㋳":{"x_min":0,"x_max":0,"ha":1389},"ʇ":{"x_min":0,"x_max":0,"ha":694},"治":{"x_min":170.671875,"x_max":1222.265625,"ha":1389,"o":"m 1222 344 q 1189 308 1212 322 q 1143 282 1166 294 q 1052 200 1104 257 q 965 112 988 131 q 1054 69 1006 100 q 1112 -1 1112 31 q 1074 -56 1112 -29 q 1037 -59 1055 -59 q 983 -52 1009 -59 q 866 -14 936 -42 q 774 42 774 21 q 799 115 774 88 q 937 316 872 198 q 765 233 849 302 q 647 81 682 165 q 660 1 660 32 q 656 -25 660 -14 q 618 -39 641 -39 q 548 8 573 -39 q 516 134 516 33 q 522 185 516 161 q 521 199 521 192 q 666 428 521 261 q 834 646 822 610 q 725 601 813 642 q 622 550 636 560 q 590 596 595 569 q 580 649 584 622 q 679 821 601 720 q 801 983 785 957 q 530 649 676 941 q 355 217 425 443 q 319 101 337 158 q 273 -5 296 28 q 228 -35 256 -31 q 170 115 170 -21 q 235 508 170 241 q 268 694 242 571 q 302 769 272 709 q 328 835 328 820 q 292 939 328 845 l 300 952 q 380 941 328 950 q 476 854 476 906 q 419 793 476 821 q 327 729 347 759 q 307 672 307 698 q 311 632 307 659 q 315 591 315 604 q 288 428 315 535 q 261 267 261 321 q 264 241 261 250 q 410 522 302 298 q 674 954 549 807 q 857 1099 758 1053 q 944 1090 900 1095 q 1005 1047 1005 1079 q 986 1009 1005 1030 q 892 918 953 979 q 805 812 854 877 q 733 702 746 736 q 949 807 942 807 q 1025 792 988 807 q 1074 740 1074 773 q 1058 698 1074 717 q 988 634 1033 676 q 789 463 982 629 q 613 283 660 354 q 578 214 578 233 q 602 168 578 168 q 784 337 658 261 q 1005 458 895 397 q 1130 423 1063 453 q 1222 344 1208 387 "},"粛":{"x_min":0,"x_max":0,"ha":1389},"桻":{"x_min":0,"x_max":0,"ha":1389},"昜":{"x_min":0,"x_max":0,"ha":1389},"譌":{"x_min":0,"x_max":0,"ha":1389},"廌":{"x_min":0,"x_max":0,"ha":1389},"鬛":{"x_min":0,"x_max":0,"ha":1389},"飾":{"x_min":0,"x_max":0,"ha":1389},"吽":{"x_min":0,"x_max":0,"ha":1389},"繧":{"x_min":0,"x_max":0,"ha":1389},"幛":{"x_min":0,"x_max":0,"ha":1389},"尰":{"x_min":0,"x_max":0,"ha":1389},"㋱":{"x_min":0,"x_max":0,"ha":1389},"逖":{"x_min":0,"x_max":0,"ha":1389},"Ä":{"x_min":0,"x_max":0,"ha":694},"蕨":{"x_min":0,"x_max":0,"ha":1389},"蚵":{"x_min":0,"x_max":0,"ha":1389},"沌":{"x_min":0,"x_max":0,"ha":1389},"貊":{"x_min":0,"x_max":0,"ha":1389},"蔂":{"x_min":0,"x_max":0,"ha":1389},"⇄":{"x_min":0,"x_max":0,"ha":694},"韮":{"x_min":0,"x_max":0,"ha":1389},"氏":{"x_min":202,"x_max":1205.90625,"ha":1389,"o":"m 1205 25 q 1144 -94 1205 -67 q 984 10 1049 -62 q 667 565 854 157 q 550 520 588 537 q 453 453 472 484 q 443 436 443 446 q 455 420 443 429 q 592 355 472 404 q 691 275 691 316 q 682 244 691 257 q 548 123 656 206 q 394 17 462 59 q 272 -43 340 -16 q 216 28 237 -32 q 202 123 202 74 q 225 294 202 184 q 257 469 252 429 q 267 644 267 558 q 268 748 267 737 q 386 889 273 797 q 544 1013 464 952 q 650 1112 585 1056 q 715 1093 677 1112 q 777 1064 761 1068 q 795 1030 795 1047 q 779 1003 795 1015 q 547 885 746 979 q 345 762 371 802 q 367 587 367 676 q 362 508 367 547 q 492 585 394 539 q 634 640 583 627 q 602 725 619 671 q 582 813 582 788 q 621 868 582 868 q 716 843 643 868 q 819 809 805 812 q 973 778 870 800 q 1033 724 1036 762 l 1033 717 q 891 655 1009 698 q 731 594 750 603 q 1056 131 819 394 q 1078 390 1078 234 q 1064 689 1078 535 l 1089 679 q 1176 313 1148 522 q 1205 25 1205 85 m 822 713 q 740 759 792 736 q 655 798 659 796 q 654 789 654 794 q 705 667 654 747 l 822 713 m 559 280 q 529 302 551 290 q 430 355 440 349 q 356 435 386 385 q 317 174 317 282 q 318 149 317 161 q 448 211 363 168 q 559 280 548 264 "},"鞁":{"x_min":0,"x_max":0,"ha":1389},"雄":{"x_min":0,"x_max":0,"ha":1389},"譓":{"x_min":0,"x_max":0,"ha":1389},"猋":{"x_min":0,"x_max":0,"ha":1389},"徴":{"x_min":0,"x_max":0,"ha":1389},"Ў":{"x_min":0,"x_max":0,"ha":694},"応":{"x_min":61.03125,"x_max":1299.375,"ha":1389,"o":"m 1003 851 q 995 826 1003 839 q 859 770 968 808 q 705 712 735 725 q 503 515 625 674 q 336 280 499 511 q 214 111 241 149 q 84 -39 109 -28 q 61 25 61 -12 q 84 100 61 59 q 173 233 115 157 q 272 360 222 297 q 515 687 352 470 q 406 645 477 679 q 297 600 330 610 q 269 660 269 607 q 282 706 269 693 q 366 770 287 712 q 634 1017 556 910 l 566 1087 l 566 1109 q 595 1116 576 1116 q 626 1118 623 1117 q 676 1137 644 1121 q 763 1105 717 1135 q 815 1034 815 1071 q 778 996 815 1007 q 718 987 748 992 q 592 901 671 976 q 492 783 519 834 q 889 916 503 788 q 960 901 929 915 q 1003 851 1003 884 m 1299 187 q 1298 173 1299 179 q 1276 155 1289 162 q 1217 137 1255 145 q 1163 124 1180 129 q 1063 79 1131 106 q 996 72 1041 72 q 1110 248 1081 162 q 991 329 1070 329 q 893 296 923 329 q 832 171 869 269 q 767 12 788 50 q 679 -64 727 -64 q 604 16 637 -64 q 564 134 584 76 q 550 139 558 139 q 425 52 496 139 q 333 -46 347 -41 q 299 -13 314 -41 q 283 35 283 14 q 390 235 283 80 q 538 424 484 369 l 546 386 q 446 187 511 321 q 565 212 528 212 q 632 150 610 212 q 671 79 656 84 q 736 157 701 81 q 778 262 756 209 q 851 363 802 322 q 1011 404 900 404 q 1196 338 1101 404 q 1299 187 1299 269 "},"㌣":{"x_min":0,"x_max":0,"ha":1389},"⋎":{"x_min":0,"x_max":0,"ha":694},"褊":{"x_min":0,"x_max":0,"ha":1389},"黴":{"x_min":0,"x_max":0,"ha":1389},"┛":{"x_min":0,"x_max":0,"ha":1389},"╕":{"x_min":0,"x_max":0,"ha":694},"艻":{"x_min":0,"x_max":0,"ha":1389},"闔":{"x_min":0,"x_max":0,"ha":1389},"掖":{"x_min":0,"x_max":0,"ha":1389},"迯":{"x_min":0,"x_max":0,"ha":1389},"殊":{"x_min":0,"x_max":0,"ha":1389},"垨":{"x_min":0,"x_max":0,"ha":1389},"撞":{"x_min":0,"x_max":0,"ha":1389},"前":{"x_min":208.921875,"x_max":1306.15625,"ha":1389,"o":"m 1306 508 q 1295 477 1306 492 q 1249 467 1280 467 q 1162 472 1220 467 q 1075 476 1104 476 q 1150 533 1106 495 q 1055 634 1136 569 l 1049 651 q 1082 656 1068 656 q 1154 651 1109 656 q 1232 636 1216 642 q 1285 575 1260 622 q 1306 508 1306 535 m 1072 320 q 977 6 1072 126 q 682 -124 872 -124 q 524 -93 614 -124 l 519 -77 q 822 89 701 -33 q 954 404 954 225 q 857 525 954 525 q 636 451 750 525 l 636 432 q 595 218 639 322 q 466 40 548 107 q 382 -9 436 16 q 291 -37 322 -37 q 235 -18 257 -37 q 213 32 213 0 q 309 284 213 165 q 516 469 377 369 q 457 526 466 512 q 430 602 430 558 q 436 641 430 622 q 340 602 416 636 q 253 558 264 568 l 218 579 q 208 605 208 592 q 216 651 208 621 q 223 698 223 682 l 249 704 l 280 683 q 469 754 366 701 q 553 881 500 794 q 634 1008 606 968 l 632 1008 q 530 976 602 1008 l 507 983 q 720 1107 617 1107 q 816 1037 789 1107 q 766 984 805 1018 q 708 933 714 940 q 615 814 670 894 q 809 880 676 841 q 770 926 809 895 l 775 941 q 798 942 788 942 q 846 937 817 942 q 892 927 881 929 q 972 919 931 923 q 1019 861 1010 908 q 944 808 999 828 q 782 762 911 796 q 550 679 679 734 q 510 595 510 626 q 548 561 510 582 q 605 523 592 537 q 727 571 666 546 q 853 597 797 597 q 1072 320 1072 597 m 549 397 q 401 276 470 358 q 324 108 324 184 q 325 85 324 96 q 402 130 355 89 q 502 251 460 177 q 549 397 543 325 "},"炻":{"x_min":0,"x_max":0,"ha":1389},"◊":{"x_min":0,"x_max":0,"ha":694},"⒚":{"x_min":0,"x_max":0,"ha":1389},"遧":{"x_min":0,"x_max":0,"ha":1389},"瘭":{"x_min":0,"x_max":0,"ha":1389},"霜":{"x_min":0,"x_max":0,"ha":1389},"杵":{"x_min":0,"x_max":0,"ha":1389},"⑹":{"x_min":0,"x_max":0,"ha":1389},"⇍":{"x_min":0,"x_max":0,"ha":694},"勶":{"x_min":0,"x_max":0,"ha":1389},"騅":{"x_min":0,"x_max":0,"ha":1389},"迦":{"x_min":0,"x_max":0,"ha":1389},"鮆":{"x_min":0,"x_max":0,"ha":1389},"瞌":{"x_min":0,"x_max":0,"ha":1389},"檋":{"x_min":0,"x_max":0,"ha":1389},"妧":{"x_min":0,"x_max":0,"ha":1389},"壷":{"x_min":0,"x_max":0,"ha":1389},"挼":{"x_min":0,"x_max":0,"ha":1389},"綯":{"x_min":0,"x_max":0,"ha":1389},"戛":{"x_min":0,"x_max":0,"ha":1389},"緆":{"x_min":0,"x_max":0,"ha":1389},"毖":{"x_min":0,"x_max":0,"ha":1389},"鱶":{"x_min":0,"x_max":0,"ha":1389},"伶":{"x_min":0,"x_max":0,"ha":1389},"➆":{"x_min":0,"x_max":0,"ha":1389},"栂":{"x_min":0,"x_max":0,"ha":1389},"钃":{"x_min":0,"x_max":0,"ha":1389},"色":{"x_min":203.421875,"x_max":1143.625,"ha":1389,"o":"m 1143 82 q 961 -52 1143 9 q 717 -109 833 -96 q 621 -115 670 -115 q 552 -112 565 -115 q 466 -62 499 -101 q 434 27 434 -24 q 476 207 434 88 q 416 223 461 215 q 359 247 377 230 l 358 268 q 535 341 465 337 l 584 442 q 614 549 587 474 q 413 454 488 506 q 234 313 355 405 q 203 389 203 324 q 218 458 203 439 q 355 590 268 506 q 647 884 451 687 q 625 891 641 891 q 468 823 587 891 q 432 903 436 834 q 550 1019 458 949 q 651 1150 630 1079 l 671 1154 q 698 1114 698 1139 q 668 1043 698 1082 q 624 979 629 991 q 666 980 645 980 q 705 979 685 980 q 762 904 755 937 q 644 770 751 876 q 506 598 533 661 q 668 684 576 640 l 700 731 l 719 740 q 767 739 719 740 q 804 713 797 737 q 879 733 842 724 q 956 746 925 746 q 1038 707 995 746 q 1078 630 1081 668 l 1078 628 q 921 458 1006 527 q 712 372 809 372 q 645 388 667 372 q 614 329 633 351 q 693 297 659 320 q 738 230 738 268 q 736 218 738 225 q 648 184 698 184 q 554 194 606 184 q 517 61 517 114 q 611 0 517 0 q 755 20 671 0 q 887 71 849 42 q 908 134 908 89 q 868 276 908 183 l 876 297 q 1028 177 926 256 q 1119 127 1059 162 q 1143 82 1143 109 m 948 645 q 934 647 942 647 q 740 584 865 647 q 679 463 701 519 q 713 453 694 453 q 847 524 766 453 q 948 645 922 591 "},"齟":{"x_min":0,"x_max":0,"ha":1389},"硜":{"x_min":0,"x_max":0,"ha":1389},"掕":{"x_min":0,"x_max":0,"ha":1389},"姙":{"x_min":0,"x_max":0,"ha":1389},"訐":{"x_min":0,"x_max":0,"ha":1389},"疫":{"x_min":0,"x_max":0,"ha":1389},"罵":{"x_min":0,"x_max":0,"ha":1389},"螳":{"x_min":0,"x_max":0,"ha":1389},"璠":{"x_min":0,"x_max":0,"ha":1389},"僐":{"x_min":0,"x_max":0,"ha":1389},"瘺":{"x_min":0,"x_max":0,"ha":1389},"妙":{"x_min":0,"x_max":0,"ha":1389},"挩":{"x_min":0,"x_max":0,"ha":1389},"爬":{"x_min":0,"x_max":0,"ha":1389},"鸊":{"x_min":0,"x_max":0,"ha":1389},"弤":{"x_min":0,"x_max":0,"ha":1389},"↔":{"x_min":0,"x_max":0,"ha":694},"鏃":{"x_min":0,"x_max":0,"ha":1389},"錝":{"x_min":0,"x_max":0,"ha":1389},"宥":{"x_min":0,"x_max":0,"ha":1389},"糂":{"x_min":0,"x_max":0,"ha":1389},"һ":{"x_min":0,"x_max":0,"ha":694},"廐":{"x_min":0,"x_max":0,"ha":1389},"㉁":{"x_min":0,"x_max":0,"ha":1389},"物":{"x_min":87.453125,"x_max":1274,"ha":1389,"o":"m 1274 525 q 1161 150 1274 322 q 905 -50 1031 -50 q 803 -8 871 -50 q 714 60 742 29 q 611 15 681 32 l 590 18 l 686 98 q 617 288 644 147 q 598 495 594 410 q 455 375 543 463 q 444 141 449 258 q 345 -45 427 -20 q 176 52 229 52 q 102 33 170 52 q 87 79 87 53 q 206 272 87 143 q 380 443 293 357 q 391 578 391 527 q 389 607 391 594 q 316 566 353 592 q 175 447 251 508 q 126 490 148 456 q 105 552 105 524 q 152 673 105 588 q 195 829 200 759 l 214 833 q 290 684 290 768 q 400 749 392 721 q 411 902 415 803 q 414 1056 407 1012 q 445 1073 427 1073 q 503 1022 467 1073 q 578 866 524 878 q 619 810 619 825 q 608 786 619 795 q 586 769 597 778 l 472 656 q 460 494 467 594 q 598 586 539 546 q 696 867 631 725 q 875 1072 790 1072 q 936 1044 908 1072 q 965 984 965 1016 q 931 752 965 892 q 1088 774 1021 774 q 1240 699 1196 774 q 1274 525 1274 642 m 875 972 q 866 998 875 988 q 754 840 818 981 q 682 649 713 750 l 807 710 q 875 972 875 964 m 1187 567 q 1168 651 1187 615 q 1101 698 1144 698 q 892 642 1027 698 q 863 547 863 574 q 881 530 863 530 q 919 540 895 530 q 956 551 942 551 q 1026 510 979 551 q 1073 437 1073 468 q 945 265 1073 397 q 780 114 829 144 q 854 86 807 86 q 1090 270 980 86 q 1187 567 1187 435 m 899 418 l 898 425 q 835 442 887 442 q 768 512 768 442 q 781 587 768 549 q 664 517 719 560 q 732 155 675 216 q 833 280 776 196 q 899 418 899 376 m 366 271 l 366 302 q 286 229 341 287 q 212 142 231 170 q 345 120 242 127 q 366 271 366 202 "},"眼":{"x_min":87,"x_max":1321.078125,"ha":1389,"o":"m 1321 181 q 1298 100 1321 147 q 1242 47 1272 47 q 1228 50 1235 47 q 1136 119 1209 73 q 1064 185 1072 158 q 1116 198 1091 191 q 1152 238 1140 206 q 1098 348 1142 287 q 1028 450 1063 400 q 1226 345 1142 416 q 1321 181 1321 264 m 1105 1007 q 1052 748 1105 906 q 907 560 987 557 q 854 651 888 581 q 804 731 824 714 q 704 176 704 391 q 710 93 704 131 q 984 482 812 199 l 984 450 q 907 225 984 390 q 788 10 834 70 q 704 -44 747 -40 q 636 90 636 -23 q 676 458 636 234 q 771 813 718 691 q 804 819 789 819 q 867 778 839 819 q 915 737 895 737 q 931 743 922 737 q 996 1013 986 853 q 820 880 948 996 q 661 714 699 770 q 617 713 638 713 q 772 926 636 785 q 979 1089 908 1067 q 1058 1066 1018 1076 q 1105 1007 1105 1048 m 529 248 q 409 -1 529 10 q 328 103 354 29 q 282 225 287 217 l 230 177 l 205 177 q 260 305 257 257 l 238 297 q 202 373 202 311 q 247 485 202 383 q 298 602 272 543 q 244 611 293 619 l 226 623 q 295 694 253 674 q 355 683 347 686 q 393 640 385 672 q 342 533 382 606 q 297 429 305 465 q 348 409 306 421 q 393 368 381 400 q 352 316 384 349 q 313 267 320 283 q 341 210 316 240 q 393 169 366 180 q 418 710 418 217 q 407 878 418 828 q 283 752 348 863 l 262 740 q 320 874 282 819 q 439 946 371 946 q 481 923 457 946 q 512 885 501 903 q 522 847 522 866 q 525 547 522 747 q 529 248 529 348 m 182 552 q 129 184 182 218 q 91 260 99 210 q 87 347 87 282 q 111 541 87 416 q 175 699 139 690 q 182 552 182 665 "},"傚":{"x_min":0,"x_max":0,"ha":1389},"蓄":{"x_min":0,"x_max":0,"ha":1389},"茅":{"x_min":0,"x_max":0,"ha":1389},"顒":{"x_min":0,"x_max":0,"ha":1389},"罌":{"x_min":0,"x_max":0,"ha":1389},"㌥":{"x_min":0,"x_max":0,"ha":1389},"舜":{"x_min":0,"x_max":0,"ha":1389},"咻":{"x_min":0,"x_max":0,"ha":1389},"棹":{"x_min":0,"x_max":0,"ha":1389},"邴":{"x_min":0,"x_max":0,"ha":1389},"咢":{"x_min":0,"x_max":0,"ha":1389},"竾":{"x_min":0,"x_max":0,"ha":1389},"勿":{"x_min":0,"x_max":0,"ha":1389},"野":{"x_min":137,"x_max":1261,"ha":1389,"o":"m 1261 688 q 1209 592 1261 637 q 867 383 1130 524 l 866 345 q 976 261 978 299 l 976 257 q 930 192 962 234 q 841 124 885 158 q 776 42 783 77 q 947 74 898 74 q 1026 54 987 74 q 1073 -6 1073 28 q 1053 -50 1073 -25 q 951 -67 1012 -62 q 848 -74 900 -70 q 780 -84 832 -75 q 713 -90 737 -90 q 656 -57 687 -90 q 624 0 624 -24 q 654 51 624 8 q 594 68 654 58 q 534 108 534 78 q 634 236 534 166 q 787 318 703 284 l 785 364 q 683 343 720 343 q 642 354 652 343 q 632 397 632 366 q 665 540 632 452 q 735 673 698 627 q 815 724 767 717 q 878 614 878 710 q 876 574 878 600 q 875 539 875 549 l 875 501 q 1001 587 936 535 q 1107 694 1082 650 q 1042 722 1096 706 q 953 758 979 741 q 909 836 909 787 q 940 941 909 884 q 985 1037 978 1011 q 784 961 914 1030 q 628 828 643 886 q 614 714 617 790 q 533 375 606 478 q 445 312 488 312 q 335 404 396 312 q 270 340 308 368 q 188 305 223 305 q 137 412 137 305 q 264 675 137 566 q 294 808 268 744 q 383 893 329 893 q 429 869 410 893 q 450 819 448 846 q 555 907 485 857 l 555 919 q 540 994 557 958 q 390 933 481 981 q 242 861 281 874 q 154 908 154 877 q 154 917 154 911 q 154 926 154 923 q 227 961 177 934 q 410 1049 337 1022 q 539 1083 504 1083 q 609 1057 593 1083 q 622 980 622 1038 q 628 947 622 964 q 1003 1094 885 1094 q 1062 1067 1033 1094 q 1091 1011 1091 1040 q 1090 995 1091 1003 q 1031 916 1060 956 q 985 833 991 861 q 1125 796 1056 815 q 1247 734 1225 764 q 1261 688 1261 715 m 795 558 l 795 582 q 793 639 795 603 q 742 549 769 613 q 715 451 715 485 q 717 439 715 445 l 725 439 q 790 463 752 436 q 795 558 795 505 m 386 779 q 370 826 386 801 q 348 743 348 790 l 386 775 l 386 779 m 548 819 q 456 736 498 771 q 392 495 456 611 q 454 434 407 434 q 548 819 536 524 m 377 667 l 377 672 l 348 646 q 345 621 345 634 q 353 577 345 599 q 377 667 378 613 m 754 208 l 754 211 q 679 164 679 174 q 695 139 679 150 q 754 208 754 183 m 304 485 l 280 591 q 228 512 251 565 q 205 420 205 459 q 211 386 205 398 q 304 485 275 432 "},"醃":{"x_min":0,"x_max":0,"ha":1389},"楳":{"x_min":0,"x_max":0,"ha":1389},"掌":{"x_min":0,"x_max":0,"ha":1389},"翛":{"x_min":0,"x_max":0,"ha":1389},"幢":{"x_min":0,"x_max":0,"ha":1389},"彬":{"x_min":0,"x_max":0,"ha":1389},"鵟":{"x_min":0,"x_max":0,"ha":1389},"蠮":{"x_min":0,"x_max":0,"ha":1389},"螺":{"x_min":0,"x_max":0,"ha":1389},"旄":{"x_min":0,"x_max":0,"ha":1389},"冝":{"x_min":0,"x_max":0,"ha":1389},"搪":{"x_min":0,"x_max":0,"ha":1389},"誌":{"x_min":54.25,"x_max":1307.515625,"ha":1389,"o":"m 1307 165 q 1298 132 1307 145 q 1247 101 1284 113 q 1192 81 1199 84 q 1059 35 1108 35 q 1034 37 1059 35 q 1142 207 1120 122 q 1041 278 1104 278 q 949 193 987 278 q 893 38 922 116 q 821 -45 862 -45 q 742 33 779 -45 q 699 113 705 112 q 672 123 687 123 q 561 49 621 123 q 474 -41 491 -34 q 432 0 450 -39 q 417 60 417 32 q 509 188 417 90 q 630 313 569 250 q 737 432 663 355 q 677 415 718 430 q 614 400 636 400 q 594 472 592 416 l 594 478 q 670 579 621 512 q 706 648 687 604 q 737 720 721 683 q 607 685 657 685 q 488 739 547 685 q 790 895 512 740 q 813 1013 813 946 q 808 1075 813 1033 q 802 1139 802 1117 l 817 1139 q 922 1089 869 1142 l 916 1041 q 958 1008 914 1015 q 1047 992 1003 1001 q 1095 935 1095 977 q 1052 878 1095 906 q 983 845 1017 862 q 843 724 887 796 q 771 552 826 694 q 855 591 781 554 q 930 622 922 622 q 1018 552 1021 622 l 1018 545 q 961 492 1000 524 q 779 363 835 419 q 613 192 714 288 q 699 213 660 213 q 762 183 741 213 q 785 127 770 170 q 812 86 796 93 q 851 158 823 88 q 919 283 887 242 q 1044 351 973 351 q 1276 225 1144 351 q 1307 165 1307 195 m 557 903 l 557 895 q 510 862 547 874 q 466 839 473 850 q 212 543 429 835 q 207 545 207 543 q 246 568 207 550 q 297 590 284 587 q 374 480 363 572 q 339 301 347 420 q 497 554 425 447 l 503 522 q 368 193 413 333 q 321 50 354 145 q 267 -16 301 -1 q 221 31 240 -6 q 203 97 203 65 q 234 249 203 138 q 263 409 264 356 l 261 424 q 187 364 237 409 q 113 302 138 318 q 54 382 63 311 q 226 640 97 466 q 391 901 345 802 q 343 954 381 923 q 288 1007 301 988 l 288 1025 q 377 1047 347 1047 q 496 1006 438 1047 q 557 903 561 960 "},"詎":{"x_min":0,"x_max":0,"ha":1389},"耶":{"x_min":0,"x_max":0,"ha":1389},"穪":{"x_min":0,"x_max":0,"ha":1389},"倅":{"x_min":0,"x_max":0,"ha":1389},"逮":{"x_min":0,"x_max":0,"ha":1389},"赿":{"x_min":0,"x_max":0,"ha":1389},"艨":{"x_min":0,"x_max":0,"ha":1389},"嗃":{"x_min":0,"x_max":0,"ha":1389},"㏬":{"x_min":0,"x_max":0,"ha":1389},"↱":{"x_min":0,"x_max":0,"ha":694},"枛":{"x_min":0,"x_max":0,"ha":1389},"㈹":{"x_min":0,"x_max":0,"ha":1389},"衍":{"x_min":0,"x_max":0,"ha":1389},"啠":{"x_min":0,"x_max":0,"ha":1389},"機":{"x_min":58.5625,"x_max":1315.4375,"ha":1389,"o":"m 1238 443 q 1225 420 1238 429 q 1197 411 1212 411 q 1124 452 1169 411 q 1063 518 1094 485 q 1238 443 1238 518 m 846 963 q 716 770 812 897 q 652 679 683 724 q 575 602 613 623 q 542 684 542 614 q 579 726 542 689 q 621 815 617 763 q 598 819 611 819 q 541 809 576 819 q 524 857 524 815 q 576 950 524 891 q 653 1037 615 994 q 718 1018 703 1025 q 756 969 756 1000 q 689 931 722 950 q 638 877 649 907 q 695 835 679 865 q 846 963 771 891 m 1315 105 q 1291 73 1315 85 q 1250 63 1272 63 q 1114 85 1202 63 q 983 108 1026 107 q 957 -20 969 20 q 890 -127 932 -100 q 749 -39 854 -122 q 611 75 680 18 q 510 13 555 28 q 501 40 501 21 q 524 115 501 88 q 592 169 531 123 q 776 330 723 269 q 765 333 771 333 q 687 290 745 333 q 609 231 647 261 q 600 269 600 253 q 604 287 600 279 q 661 362 604 299 q 726 450 718 425 q 611 435 665 435 q 547 505 547 477 q 620 549 547 527 q 855 722 699 607 q 975 812 896 751 q 888 900 888 869 q 948 1001 888 938 q 1008 1105 1008 1064 q 1006 1123 1008 1114 q 1062 1118 1035 1121 q 1102 1094 1102 1114 q 1032 992 1095 1076 q 975 901 973 915 l 975 900 q 996 891 981 891 q 1049 907 1015 891 q 1109 895 1087 901 q 1162 869 1155 882 q 1072 790 1133 826 q 962 736 1017 763 q 666 543 890 699 l 700 531 l 901 603 q 894 661 904 625 l 931 695 l 968 678 l 970 627 q 1027 651 995 651 q 1113 617 1072 651 q 1046 562 1109 600 q 965 503 979 522 q 973 352 970 396 q 992 202 980 267 q 1166 193 1110 202 q 1311 120 1282 176 q 1315 105 1315 113 m 496 604 q 423 458 460 531 q 361 312 374 355 q 347 193 347 269 q 352 100 347 162 q 357 8 357 37 q 329 -63 357 -46 q 284 -29 306 -62 q 262 27 262 2 q 264 72 262 42 q 267 118 267 103 q 264 162 267 138 q 194 77 240 134 q 153 17 173 47 q 101 -27 127 -17 q 63 62 63 4 q 81 113 63 94 q 187 341 88 132 q 271 556 268 514 q 226 552 251 552 q 58 572 219 552 q 313 834 300 777 q 335 1014 317 854 l 320 1068 q 347 1075 332 1075 q 396 1060 370 1075 q 427 1022 427 1044 q 418 954 427 1000 q 408 884 408 907 q 411 862 408 873 q 456 836 434 850 q 480 790 477 823 q 413 713 446 751 q 374 621 374 664 q 376 605 374 615 q 378 590 378 595 q 357 428 378 527 q 496 604 413 508 m 893 417 l 891 496 q 788 467 831 478 q 834 439 792 451 q 893 417 885 423 m 903 204 l 896 317 q 769 200 846 267 q 903 204 832 204 m 897 89 q 895 126 897 105 q 705 134 804 127 q 652 86 676 109 q 845 24 774 24 q 897 89 897 24 "},"㏻":{"x_min":0,"x_max":0,"ha":1389},"嵕":{"x_min":0,"x_max":0,"ha":1389},"妒":{"x_min":0,"x_max":0,"ha":1389},"堛":{"x_min":0,"x_max":0,"ha":1389},"狠":{"x_min":0,"x_max":0,"ha":1389},"兕":{"x_min":0,"x_max":0,"ha":1389},"颷":{"x_min":0,"x_max":0,"ha":1389},"庎":{"x_min":0,"x_max":0,"ha":1389},"Ų":{"x_min":0,"x_max":0,"ha":694},"軋":{"x_min":0,"x_max":0,"ha":1389},"苚":{"x_min":0,"x_max":0,"ha":1389},"刹":{"x_min":0,"x_max":0,"ha":1389},"邏":{"x_min":0,"x_max":0,"ha":1389},"璧":{"x_min":0,"x_max":0,"ha":1389},"托":{"x_min":0,"x_max":0,"ha":1389},"寛":{"x_min":0,"x_max":0,"ha":1389},"·":{"x_min":0,"x_max":0,"ha":694},"鍜":{"x_min":0,"x_max":0,"ha":1389},"☐":{"x_min":0,"x_max":0,"ha":1389},"♟":{"x_min":0,"x_max":0,"ha":1389},"梯":{"x_min":0,"x_max":0,"ha":1389},"潴":{"x_min":0,"x_max":0,"ha":1389},"寉":{"x_min":0,"x_max":0,"ha":1389},"暵":{"x_min":0,"x_max":0,"ha":1389},"凥":{"x_min":0,"x_max":0,"ha":1389},"颮":{"x_min":0,"x_max":0,"ha":1389},"闢":{"x_min":0,"x_max":0,"ha":1389},"Ǘ":{"x_min":0,"x_max":0,"ha":1389},"莂":{"x_min":0,"x_max":0,"ha":1389},"A":{"x_min":0,"x_max":0,"ha":694},"瀟":{"x_min":0,"x_max":0,"ha":1389},"傓":{"x_min":0,"x_max":0,"ha":1389},"Đ":{"x_min":0,"x_max":0,"ha":694},"燵":{"x_min":0,"x_max":0,"ha":1389},"∖":{"x_min":0,"x_max":0,"ha":694},"Ǿ":{"x_min":0,"x_max":0,"ha":694},"騶":{"x_min":0,"x_max":0,"ha":1389},"跿":{"x_min":0,"x_max":0,"ha":1389},"舓":{"x_min":0,"x_max":0,"ha":1389},"⋫":{"x_min":0,"x_max":0,"ha":694},"颺":{"x_min":0,"x_max":0,"ha":1389},"猒":{"x_min":0,"x_max":0,"ha":1389},"▭":{"x_min":0,"x_max":0,"ha":694},"ŗ":{"x_min":0,"x_max":0,"ha":694},"榁":{"x_min":0,"x_max":0,"ha":1389},"♀":{"x_min":271.078125,"x_max":1113.1875,"ha":1389,"o":"m 1113 317 l 728 317 l 728 -32 l 659 -32 l 659 317 l 271 317 l 271 381 l 659 381 l 659 531 q 524 583 585 531 q 444 706 467 632 q 430 822 430 749 q 503 989 430 916 q 668 1062 576 1062 q 785 1043 742 1062 q 905 941 860 1009 q 951 794 951 874 q 885 619 951 699 q 728 534 820 539 l 728 381 l 1113 381 l 1113 317 m 894 800 q 854 912 894 857 q 762 990 815 967 q 667 1004 728 1004 q 542 944 598 1004 q 486 816 486 885 q 537 654 486 717 q 692 587 594 587 q 831 654 769 587 q 894 800 894 721 "},"﨣":{"x_min":0,"x_max":0,"ha":1389},"螣":{"x_min":0,"x_max":0,"ha":1389},"鍳":{"x_min":0,"x_max":0,"ha":1389},"熌":{"x_min":0,"x_max":0,"ha":1389},"艋":{"x_min":0,"x_max":0,"ha":1389},"⇋":{"x_min":0,"x_max":0,"ha":694},"饒":{"x_min":0,"x_max":0,"ha":1389},"齁":{"x_min":0,"x_max":0,"ha":1389},"癆":{"x_min":0,"x_max":0,"ha":1389},"啓":{"x_min":0,"x_max":0,"ha":1389},"底":{"x_min":96.296875,"x_max":1230.203125,"ha":1389,"o":"m 1230 99 q 1171 1 1230 -1 l 1167 1 q 927 324 1067 90 q 797 204 872 279 q 671 80 733 142 q 680 78 674 78 q 796 109 721 78 q 910 141 870 141 q 995 116 950 141 q 1048 52 1048 89 q 1019 16 1048 29 q 876 -29 990 2 q 745 -73 846 -36 q 614 -111 665 -103 q 796 4 721 -51 q 689 -9 755 4 q 581 -27 611 -24 q 538 31 554 -10 q 698 234 561 96 q 893 419 796 326 q 802 592 839 501 q 637 439 684 503 q 523 280 602 383 q 479 321 497 288 q 461 382 461 354 q 478 446 461 397 q 505 505 496 489 l 537 466 q 653 562 576 489 q 775 660 729 636 q 745 801 745 758 q 747 817 745 811 q 800 840 766 840 q 848 832 808 840 q 908 823 888 823 q 960 829 926 823 q 1013 835 995 835 q 1070 783 1059 835 q 983 706 1059 758 q 878 633 887 641 q 961 493 916 542 q 1044 585 976 504 q 1120 659 1105 659 q 1159 634 1142 659 q 1177 585 1177 609 q 1156 542 1177 569 q 1135 493 1135 515 q 1182 311 1135 448 q 1230 99 1230 173 m 811 1037 q 797 1007 811 1019 q 731 976 777 991 q 583 901 664 953 q 461 794 488 842 q 614 876 557 836 q 644 878 629 878 q 703 827 703 878 q 699 805 703 816 q 507 543 637 763 q 287 160 397 351 q 122 -56 168 -42 q 96 29 96 -32 q 113 92 96 58 q 200 229 143 150 q 297 362 248 295 q 421 553 358 451 q 495 678 448 594 q 309 566 451 670 q 250 671 250 577 q 412 847 250 720 q 626 1014 519 931 l 554 1078 l 553 1102 q 663 1136 585 1106 q 755 1108 705 1136 q 811 1037 811 1076 m 916 766 q 823 770 874 767 l 840 716 q 916 766 868 731 m 1098 264 q 1075 420 1075 356 q 1079 466 1075 446 l 1013 410 q 1098 264 1043 351 "},"秡":{"x_min":0,"x_max":0,"ha":1389},"鱸":{"x_min":0,"x_max":0,"ha":1389},"軺":{"x_min":0,"x_max":0,"ha":1389},"罥":{"x_min":0,"x_max":0,"ha":1389},"哬":{"x_min":0,"x_max":0,"ha":1389},"監":{"x_min":0,"x_max":0,"ha":1389},"晀":{"x_min":0,"x_max":0,"ha":1389},"夂":{"x_min":0,"x_max":0,"ha":1389},"董":{"x_min":0,"x_max":0,"ha":1389},"佇":{"x_min":0,"x_max":0,"ha":1389},"庠":{"x_min":0,"x_max":0,"ha":1389},"祖":{"x_min":94.75,"x_max":1296.828125,"ha":1389,"o":"m 1296 49 q 1294 26 1296 38 q 1243 9 1280 9 q 1079 42 1215 9 q 891 64 988 64 q 695 32 805 64 q 511 -41 591 2 q 501 8 501 -22 q 505 55 501 30 q 604 112 537 81 q 592 179 592 179 q 648 589 592 408 q 705 694 664 644 q 707 666 707 666 q 693 540 707 624 q 679 415 679 456 q 764 656 691 469 q 805 722 779 694 q 859 742 824 742 q 914 726 889 742 q 938 682 938 711 q 908 582 938 659 q 872 465 876 500 q 943 452 924 458 q 988 403 984 437 q 867 252 960 342 q 709 130 774 163 q 956 164 811 159 q 920 282 934 201 q 1003 231 973 231 q 1011 232 1003 231 q 1022 551 1019 292 l 1024 758 q 1028 828 1024 781 q 1032 898 1032 875 q 1015 940 1032 932 q 911 887 977 934 q 810 815 861 852 q 972 1006 828 933 q 1008 1014 988 1014 q 1098 968 1063 1014 q 1130 871 1130 926 l 1130 399 q 1116 159 1130 231 q 1296 49 1296 129 m 580 630 q 487 462 550 573 q 418 356 452 409 q 387 233 387 299 q 392 127 387 198 q 397 21 397 56 q 348 -59 397 -36 q 304 -16 322 -47 q 286 42 286 13 q 298 155 286 33 q 147 -10 243 90 l 140 -10 q 94 65 94 -14 q 98 93 94 85 q 162 204 120 131 q 272 397 216 301 q 349 598 341 528 q 258 528 321 585 q 165 448 177 458 q 130 527 130 476 q 136 561 130 549 q 399 939 237 750 q 338 1025 390 976 l 338 1044 q 387 1074 363 1059 q 436 1095 422 1095 q 499 1071 455 1095 q 558 1030 543 1047 q 577 996 569 1017 q 500 925 563 964 q 403 865 452 895 q 230 644 299 786 q 317 706 243 651 q 392 756 382 756 q 506 714 478 756 q 463 625 506 706 q 434 491 448 599 q 577 657 520 587 l 580 630 m 863 377 q 794 453 794 416 q 815 546 794 485 q 836 640 836 607 l 836 641 q 764 511 797 606 q 722 364 744 438 q 680 192 705 307 q 779 276 709 204 q 863 377 849 347 "},"樚":{"x_min":0,"x_max":0,"ha":1389},"銟":{"x_min":0,"x_max":0,"ha":1389},"Ι":{"x_min":0,"x_max":0,"ha":1389},"㍛":{"x_min":0,"x_max":0,"ha":1389},"唲":{"x_min":0,"x_max":0,"ha":1389},"儎":{"x_min":0,"x_max":0,"ha":1389},"萬":{"x_min":0,"x_max":0,"ha":1389},"噺":{"x_min":0,"x_max":0,"ha":1389},"葭":{"x_min":0,"x_max":0,"ha":1389},"眷":{"x_min":0,"x_max":0,"ha":1389},"斠":{"x_min":0,"x_max":0,"ha":1389},"ũ":{"x_min":0,"x_max":0,"ha":694},"顛":{"x_min":0,"x_max":0,"ha":1389},"儗":{"x_min":0,"x_max":0,"ha":1389},"椁":{"x_min":0,"x_max":0,"ha":1389},"₍":{"x_min":0,"x_max":0,"ha":694},"餗":{"x_min":0,"x_max":0,"ha":1389},"棌":{"x_min":0,"x_max":0,"ha":1389},"傡":{"x_min":0,"x_max":0,"ha":1389},"飯":{"x_min":0,"x_max":0,"ha":1389},"蚧":{"x_min":0,"x_max":0,"ha":1389},"閡":{"x_min":0,"x_max":0,"ha":1389},"爆":{"x_min":0,"x_max":0,"ha":1389},"ⓙ":{"x_min":0,"x_max":0,"ha":1389},"喫":{"x_min":0,"x_max":0,"ha":1389},"Ê":{"x_min":0,"x_max":0,"ha":694},"椈":{"x_min":0,"x_max":0,"ha":1389},"稷":{"x_min":0,"x_max":0,"ha":1389},"祝":{"x_min":66.53125,"x_max":1293,"ha":1389,"o":"m 1293 158 q 1271 77 1293 123 q 1223 8 1250 32 q 1084 -42 1169 -42 l 1078 -42 q 885 46 993 -42 q 729 197 861 66 q 713 203 724 203 q 612 94 670 203 q 520 -14 554 -13 q 501 61 501 5 q 505 117 501 88 q 800 566 717 390 q 771 615 771 583 q 784 655 771 634 q 828 710 797 676 q 877 763 866 749 q 983 959 942 848 q 959 964 972 964 q 824 897 906 964 q 718 778 742 831 q 709 726 709 755 q 713 697 709 717 q 717 668 717 677 q 679 588 717 604 q 606 738 628 591 q 461 491 558 656 q 375 353 428 445 q 349 237 349 296 q 353 128 349 200 q 358 19 358 56 q 313 -62 358 -32 q 269 -20 288 -49 q 251 34 251 9 q 255 94 251 56 q 261 155 260 140 q 146 18 223 108 q 119 -13 128 -1 l 112 -13 q 66 68 66 -15 q 185 310 66 95 q 313 607 303 525 q 225 536 287 597 q 133 455 156 468 q 100 539 100 487 q 211 745 100 577 q 359 955 302 883 q 302 1042 351 993 l 302 1061 q 350 1092 310 1065 q 397 1114 382 1114 q 457 1088 413 1114 q 513 1047 501 1061 q 533 1014 524 1033 q 458 939 519 982 q 366 878 412 908 q 198 654 260 795 q 355 771 265 710 q 416 761 415 761 q 463 726 448 752 q 447 680 463 706 q 421 637 421 639 q 394 501 405 603 q 503 646 448 574 q 598 801 565 733 l 591 851 l 609 859 q 651 848 630 852 q 740 921 653 851 q 872 1022 835 997 q 1021 1086 965 1086 q 1106 1046 1059 1086 q 1152 970 1152 1007 q 1079 869 1152 949 q 987 756 998 782 q 1041 721 1021 742 q 971 618 1037 688 q 741 266 850 486 q 884 159 785 251 q 1048 81 969 81 q 1165 266 1165 81 q 1116 463 1165 369 l 1140 454 q 1293 158 1293 304 "},"﨡":{"x_min":0,"x_max":0,"ha":1389},"鴽":{"x_min":0,"x_max":0,"ha":1389},"㌮":{"x_min":0,"x_max":0,"ha":1389},"✈":{"x_min":0,"x_max":0,"ha":1389},"鴣":{"x_min":0,"x_max":0,"ha":1389},"踵":{"x_min":0,"x_max":0,"ha":1389},"窼":{"x_min":0,"x_max":0,"ha":1389},"晤":{"x_min":0,"x_max":0,"ha":1389},"箼":{"x_min":0,"x_max":0,"ha":1389},"秊":{"x_min":0,"x_max":0,"ha":1389},"阨":{"x_min":0,"x_max":0,"ha":1389},"秣":{"x_min":0,"x_max":0,"ha":1389},"汯":{"x_min":0,"x_max":0,"ha":1389},"磒":{"x_min":0,"x_max":0,"ha":1389},"韆":{"x_min":0,"x_max":0,"ha":1389},"碭":{"x_min":0,"x_max":0,"ha":1389},"勥":{"x_min":0,"x_max":0,"ha":1389},"釦":{"x_min":0,"x_max":0,"ha":1389},"崙":{"x_min":0,"x_max":0,"ha":1389},"憲":{"x_min":176.328125,"x_max":1239.6875,"ha":1389,"o":"m 1239 39 q 1181 -27 1239 -27 q 1052 -8 1148 -27 q 927 23 956 10 q 1056 93 1025 54 q 939 152 1010 152 q 807 88 866 152 q 714 -33 804 85 q 614 -112 661 -102 q 524 -46 581 -107 q 417 10 470 10 q 318 -18 389 10 q 230 -48 246 -48 q 215 -43 221 -48 q 206 0 206 0 q 272 80 206 77 q 579 261 474 241 l 549 290 l 547 302 q 596 385 546 350 q 694 418 642 418 q 767 352 773 418 q 882 469 840 390 q 843 471 863 471 q 326 230 576 471 q 292 294 291 243 l 292 302 q 461 450 333 363 q 580 552 523 494 l 571 568 q 504 652 504 618 q 575 755 504 701 q 686 827 588 765 l 686 848 q 675 850 682 850 q 606 816 657 850 l 590 840 l 595 867 q 244 652 446 811 l 207 655 q 176 701 176 690 q 187 748 176 716 q 198 799 199 780 l 214 821 l 265 797 q 697 1006 500 943 q 583 985 652 1004 l 558 987 q 626 1077 613 1042 l 564 1138 l 577 1152 q 693 1137 670 1145 q 773 1057 743 1120 l 767 1034 q 961 1072 915 1072 q 1146 1008 1074 1072 q 1199 915 1199 959 q 1159 856 1199 875 q 992 804 1120 838 q 826 770 857 767 q 747 682 747 717 q 752 659 747 671 q 803 634 777 648 q 828 592 830 621 l 828 587 l 686 508 q 866 529 823 529 q 961 514 918 529 q 1021 451 1021 493 q 778 282 1021 394 q 633 215 732 254 q 519 189 594 210 q 390 90 428 147 q 507 75 476 84 q 600 9 571 58 q 755 128 614 16 q 929 221 869 221 q 1117 170 1013 221 q 1239 39 1239 112 m 1059 967 q 975 1000 1044 1000 q 731 928 817 1000 q 763 858 752 915 q 809 843 786 852 q 840 808 832 834 q 1059 967 986 865 m 689 762 l 689 766 q 623 728 656 747 q 579 676 581 701 q 613 645 594 653 q 657 699 618 657 q 689 762 690 733 m 694 348 q 683 350 690 350 q 642 339 664 350 q 617 309 617 326 q 619 305 617 309 q 625 302 621 302 q 694 348 659 302 "},"鉰":{"x_min":0,"x_max":0,"ha":1389},"尭":{"x_min":0,"x_max":0,"ha":1389},"隴":{"x_min":0,"x_max":0,"ha":1389},"蟁":{"x_min":0,"x_max":0,"ha":1389},"苠":{"x_min":0,"x_max":0,"ha":1389},"盁":{"x_min":0,"x_max":0,"ha":1389},"廩":{"x_min":0,"x_max":0,"ha":1389},"廣":{"x_min":0,"x_max":0,"ha":1389},"躇":{"x_min":0,"x_max":0,"ha":1389},"厲":{"x_min":0,"x_max":0,"ha":1389},"♎":{"x_min":0,"x_max":0,"ha":1389},"謂":{"x_min":0,"x_max":0,"ha":1389},"煹":{"x_min":0,"x_max":0,"ha":1389},"暋":{"x_min":0,"x_max":0,"ha":1389},"餅":{"x_min":0,"x_max":0,"ha":1389},"袠":{"x_min":0,"x_max":0,"ha":1389},"鎶":{"x_min":0,"x_max":0,"ha":1389},"鼟":{"x_min":0,"x_max":0,"ha":1389},"惧":{"x_min":0,"x_max":0,"ha":1389},"与":{"x_min":0,"x_max":0,"ha":1389},"岲":{"x_min":0,"x_max":0,"ha":1389},"矃":{"x_min":0,"x_max":0,"ha":1389},"偀":{"x_min":0,"x_max":0,"ha":1389},"劅":{"x_min":0,"x_max":0,"ha":1389},"┑":{"x_min":0,"x_max":0,"ha":694},"帚":{"x_min":0,"x_max":0,"ha":1389},"偸":{"x_min":0,"x_max":0,"ha":1389},"系":{"x_min":199.375,"x_max":1208.5,"ha":1389,"o":"m 908 1056 q 906 1030 908 1045 q 774 975 854 996 q 634 938 703 957 q 454 893 564 919 l 425 908 q 602 1025 482 956 q 788 1142 737 1105 l 807 1142 q 908 1056 908 1101 m 1208 116 q 1143 66 1208 66 q 1098 69 1128 66 q 1053 73 1068 73 q 996 69 1034 73 q 937 65 957 65 q 912 66 925 65 l 900 81 q 988 169 958 124 q 873 273 975 193 l 880 287 q 925 297 901 297 q 1094 237 988 297 q 1208 116 1208 173 m 1070 550 q 945 395 1070 472 q 752 307 859 342 q 751 232 751 273 q 753 137 751 201 q 756 42 756 74 q 717 -53 756 -3 q 635 -121 682 -96 q 592 -77 614 -106 q 555 -31 565 -41 q 508 4 538 -14 q 439 64 481 19 l 447 83 q 580 55 532 55 q 631 65 616 55 q 659 263 659 86 q 650 300 659 280 q 607 289 607 289 q 565 349 565 289 q 608 425 565 384 q 690 466 652 466 q 737 448 718 466 q 753 402 756 430 q 846 460 820 440 q 914 543 892 497 l 914 547 q 857 580 915 580 q 578 464 745 580 q 333 269 507 415 q 303 326 303 282 q 324 388 303 372 q 450 498 366 425 q 573 596 512 547 q 690 703 648 656 q 562 661 638 699 q 443 596 503 628 q 433 635 433 616 q 439 663 433 652 q 653 848 460 703 l 602 861 q 649 899 618 881 q 706 916 680 916 q 749 904 720 916 q 791 881 779 892 l 791 877 q 747 817 791 858 q 684 764 715 791 q 729 770 709 770 q 791 748 770 770 q 794 736 794 743 q 751 669 794 711 q 688 607 690 608 q 909 663 820 663 q 1014 635 966 663 q 1070 550 1070 604 m 485 221 q 386 92 450 179 q 256 -56 288 -56 q 217 -24 236 -56 q 199 24 199 4 q 242 176 199 74 l 264 169 q 313 104 283 112 q 485 221 348 126 "},"痘":{"x_min":0,"x_max":0,"ha":1389},"輻":{"x_min":0,"x_max":0,"ha":1389},"☺":{"x_min":0,"x_max":0,"ha":694},"⒵":{"x_min":0,"x_max":0,"ha":1389},"淠":{"x_min":0,"x_max":0,"ha":1389},"馲":{"x_min":0,"x_max":0,"ha":1389},"瞎":{"x_min":0,"x_max":0,"ha":1389},"ć":{"x_min":0,"x_max":0,"ha":694},"旹":{"x_min":0,"x_max":0,"ha":1389},"佻":{"x_min":0,"x_max":0,"ha":1389},"秕":{"x_min":0,"x_max":0,"ha":1389},"揄":{"x_min":0,"x_max":0,"ha":1389},"褦":{"x_min":0,"x_max":0,"ha":1389},"齮":{"x_min":0,"x_max":0,"ha":1389},"袖":{"x_min":0,"x_max":0,"ha":1389},"乜":{"x_min":0,"x_max":0,"ha":1389},"杬":{"x_min":0,"x_max":0,"ha":1389},"橡":{"x_min":0,"x_max":0,"ha":1389},"Ң":{"x_min":0,"x_max":0,"ha":694},"彌":{"x_min":0,"x_max":0,"ha":1389},"倓":{"x_min":0,"x_max":0,"ha":1389},"蠐":{"x_min":0,"x_max":0,"ha":1389},"ҭ":{"x_min":0,"x_max":0,"ha":694},"揜":{"x_min":0,"x_max":0,"ha":1389},"竢":{"x_min":0,"x_max":0,"ha":1389},"旂":{"x_min":0,"x_max":0,"ha":1389},"☋":{"x_min":0,"x_max":0,"ha":1389},"袈":{"x_min":0,"x_max":0,"ha":1389},"✑":{"x_min":0,"x_max":0,"ha":1389},"皖":{"x_min":0,"x_max":0,"ha":1389},"煞":{"x_min":0,"x_max":0,"ha":1389},"螱":{"x_min":0,"x_max":0,"ha":1389},"瓧":{"x_min":0,"x_max":0,"ha":1389},"拴":{"x_min":0,"x_max":0,"ha":1389},"傪":{"x_min":0,"x_max":0,"ha":1389},"短":{"x_min":118,"x_max":1266.8125,"ha":1389,"o":"m 1266 37 q 1213 6 1257 6 q 1098 26 1182 6 q 963 46 1014 46 q 579 -43 808 46 q 560 39 560 -23 q 811 261 648 90 q 880 338 834 288 l 876 338 q 751 302 815 340 l 745 302 q 714 374 714 300 q 721 407 714 397 q 748 437 725 414 q 915 619 824 513 q 945 673 946 654 l 945 676 q 849 631 899 671 q 775 559 819 608 q 733 521 740 521 q 691 614 698 521 q 756 734 709 661 q 828 852 813 822 q 728 930 735 860 q 846 993 762 936 q 969 1054 926 1048 q 1040 1018 1005 1035 q 1089 965 1089 988 q 1066 927 1089 947 q 1030 897 1048 912 q 942 824 986 860 q 869 740 888 776 q 1040 793 1007 793 q 1129 680 1121 733 q 991 560 1125 658 q 857 425 857 462 q 858 422 857 424 q 865 422 859 422 q 920 432 882 422 q 979 441 958 441 q 1015 422 999 441 q 1030 382 1030 403 q 1028 369 1030 375 q 912 243 971 307 q 797 135 826 148 q 1063 157 937 157 q 1188 128 1128 157 q 1266 37 1261 94 m 671 667 q 547 572 659 639 q 402 482 419 496 q 303 273 370 453 q 382 294 349 294 q 453 252 432 294 q 507 330 491 309 q 572 397 542 376 q 518 254 552 350 q 444 38 495 180 q 420 1 434 10 q 373 91 373 26 q 383 147 373 110 q 394 202 394 185 q 379 232 394 224 q 265 145 311 201 q 211 62 238 103 q 147 4 170 4 q 120 106 120 34 q 187 259 120 144 q 268 425 259 388 q 217 388 246 414 q 168 346 174 351 l 164 346 q 128 378 143 345 q 118 430 118 406 q 424 829 160 491 q 415 832 421 832 q 341 799 387 832 q 269 762 290 765 q 225 872 245 783 q 275 983 229 904 q 339 1100 329 1077 l 352 1096 q 394 960 394 1051 q 393 932 394 945 l 394 932 q 449 953 405 932 q 518 975 493 974 q 599 911 599 949 q 591 888 599 898 q 534 842 572 873 q 245 517 326 669 q 404 646 356 566 q 461 743 419 680 q 486 758 474 758 q 504 754 495 758 q 590 708 515 734 q 671 667 664 682 m 499 663 l 491 680 l 459 640 l 499 663 "},"亗":{"x_min":0,"x_max":0,"ha":1389},"磷":{"x_min":0,"x_max":0,"ha":1389},"髮":{"x_min":0,"x_max":0,"ha":1389},"膅":{"x_min":0,"x_max":0,"ha":1389},"亀":{"x_min":0,"x_max":0,"ha":1389},"蓂":{"x_min":0,"x_max":0,"ha":1389},"趯":{"x_min":0,"x_max":0,"ha":1389},"檎":{"x_min":0,"x_max":0,"ha":1389},"敺":{"x_min":0,"x_max":0,"ha":1389},"⌡":{"x_min":0,"x_max":0,"ha":694},"忱":{"x_min":0,"x_max":0,"ha":1389},"硯":{"x_min":0,"x_max":0,"ha":1389},"橒":{"x_min":0,"x_max":0,"ha":1389},"仍":{"x_min":0,"x_max":0,"ha":1389},"挄":{"x_min":0,"x_max":0,"ha":1389},"鼱":{"x_min":0,"x_max":0,"ha":1389},"砎":{"x_min":0,"x_max":0,"ha":1389},"鋠":{"x_min":0,"x_max":0,"ha":1389},"督":{"x_min":0,"x_max":0,"ha":1389},"僮":{"x_min":0,"x_max":0,"ha":1389},"餠":{"x_min":0,"x_max":0,"ha":1389},"揓":{"x_min":0,"x_max":0,"ha":1389},"鱪":{"x_min":0,"x_max":0,"ha":1389},"騸":{"x_min":0,"x_max":0,"ha":1389},"Ҝ":{"x_min":0,"x_max":0,"ha":694},"臼":{"x_min":0,"x_max":0,"ha":1389},"秪":{"x_min":0,"x_max":0,"ha":1389},"糘":{"x_min":0,"x_max":0,"ha":1389},"淲":{"x_min":0,"x_max":0,"ha":1389},"蔵":{"x_min":155.875,"x_max":1281.734375,"ha":1389,"o":"m 1281 463 q 1190 406 1281 410 q 1059 375 1156 405 l 1121 450 q 1086 474 1118 466 q 1038 482 1062 478 l 1028 499 q 1143 547 1082 547 q 1273 484 1227 547 q 1281 463 1281 473 m 1166 31 q 1026 -96 1166 -64 q 813 -111 957 -111 q 627 -4 627 -111 q 725 158 627 39 q 836 331 827 284 l 831 331 q 764 316 808 332 q 698 302 720 301 l 691 302 q 663 368 663 329 q 672 420 663 390 q 688 470 687 465 q 417 279 569 415 q 414 252 414 268 q 416 196 414 234 q 419 139 419 158 q 378 -24 419 31 q 310 -83 343 -73 q 233 6 277 -70 q 159 101 188 82 l 155 132 q 333 320 192 194 q 412 590 338 413 q 349 561 400 587 q 287 541 306 539 l 282 541 q 264 588 264 561 q 283 636 264 613 q 375 714 311 668 q 475 789 425 751 q 756 1060 687 954 q 617 1007 687 1047 q 505 908 537 961 q 481 869 485 873 q 444 843 465 847 q 387 941 387 873 q 409 1025 387 983 l 427 1039 l 493 990 q 644 1068 583 1029 q 721 1117 710 1112 q 806 1144 770 1144 q 876 1112 844 1144 q 918 1040 908 1079 q 873 996 908 1010 q 589 811 774 960 q 661 824 661 824 q 762 774 744 824 q 671 694 748 732 q 531 604 573 647 q 427 373 452 524 q 710 556 527 449 q 774 724 729 626 q 866 855 832 855 q 886 851 876 855 q 918 754 893 779 q 1009 710 938 729 q 1042 695 1032 704 q 1061 667 1061 682 q 1026 622 1061 638 q 937 592 996 613 q 760 505 886 575 q 730 404 739 446 q 798 424 751 406 q 867 442 842 439 q 937 385 937 419 q 838 202 937 345 q 718 10 729 42 q 804 -4 728 -4 q 981 27 946 -4 q 1042 180 1023 63 q 1067 351 1055 265 q 1106 240 1067 351 q 1163 71 1131 181 q 1166 31 1166 54 m 891 652 q 845 748 861 697 q 794 600 809 668 q 891 652 839 625 m 324 166 l 324 195 l 322 219 l 322 221 q 322 219 322 221 q 279 174 300 196 q 249 126 249 142 q 272 92 249 109 q 310 73 291 78 q 324 166 324 94 "},"➄":{"x_min":0,"x_max":0,"ha":1389},"惠":{"x_min":0,"x_max":0,"ha":1389},"幄":{"x_min":0,"x_max":0,"ha":1389},"尖":{"x_min":0,"x_max":0,"ha":1389},"蓱":{"x_min":0,"x_max":0,"ha":1389},"曁":{"x_min":0,"x_max":0,"ha":1389},"授":{"x_min":79,"x_max":1314.078125,"ha":1389,"o":"m 1051 1034 q 889 969 1007 1021 q 724 912 790 926 l 708 930 q 870 1062 823 1011 q 919 1128 885 1113 q 968 1108 942 1118 q 1015 1098 994 1098 q 1051 1034 1051 1074 m 733 839 q 695 708 721 796 q 667 694 683 694 q 604 725 632 694 q 573 789 579 752 q 604 869 592 819 l 625 861 l 668 812 l 733 839 m 1314 646 q 1311 623 1314 636 q 1196 554 1274 583 q 1071 501 1097 518 q 1074 463 1074 482 q 1046 321 1074 404 q 1004 181 1010 204 q 1149 99 1076 154 q 1242 -29 1242 28 q 1223 -76 1242 -54 q 1181 -98 1205 -98 q 1064 -31 1155 -98 q 938 58 957 48 q 823 -43 870 -12 q 679 -90 752 -90 q 562 57 562 -90 q 585 188 562 154 q 708 228 614 228 q 896 207 809 228 q 953 320 925 242 q 982 440 982 398 q 979 454 982 449 q 859 404 926 445 q 751 331 847 397 q 721 390 721 340 q 722 413 721 401 q 991 560 773 491 l 1017 553 q 1103 605 1092 596 q 1175 671 1159 640 q 1097 696 1152 696 q 957 668 1038 696 q 756 569 835 626 q 590 424 714 540 q 547 481 547 424 q 562 548 547 515 q 721 659 588 572 q 1030 900 926 793 q 1021 902 1026 902 q 924 838 984 902 q 840 775 864 775 q 824 777 832 775 q 794 915 800 808 l 813 915 q 885 895 813 915 q 1078 985 1010 985 q 1175 944 1135 985 q 1099 854 1173 925 q 1005 756 1017 775 q 1086 769 1052 769 q 1225 740 1156 769 q 1314 646 1314 705 m 586 887 q 490 788 573 861 q 427 674 427 732 q 429 613 427 653 q 430 553 430 572 q 575 678 486 606 q 512 550 565 638 q 436 415 449 444 q 447 240 447 313 q 342 -94 447 -27 q 267 -32 315 -89 q 199 51 233 9 q 159 81 183 67 q 111 107 134 94 q 79 166 79 126 q 191 348 79 222 q 337 499 263 423 q 332 577 337 508 q 334 656 330 626 q 255 596 294 615 l 246 596 q 180 611 214 595 q 122 645 152 629 l 115 663 q 350 847 182 702 q 404 1089 372 999 l 419 1089 q 453 1021 448 1064 q 465 946 460 958 q 494 949 480 949 q 586 887 565 949 m 840 107 q 672 164 752 164 q 636 159 653 164 q 628 117 628 149 q 684 8 628 21 q 840 107 741 20 m 338 302 q 336 352 338 328 q 226 261 282 306 q 147 158 147 189 q 212 109 147 143 q 294 75 272 75 l 300 77 q 338 302 338 122 "},"儨":{"x_min":0,"x_max":0,"ha":1389},"ğ":{"x_min":0,"x_max":0,"ha":694},"磺":{"x_min":0,"x_max":0,"ha":1389},"凭":{"x_min":0,"x_max":0,"ha":1389},"伝":{"x_min":82.265625,"x_max":1277.671875,"ha":1389,"o":"m 1277 142 q 1178 85 1257 115 q 1064 36 1078 44 l 918 -48 l 885 -48 q 1024 142 988 46 q 783 61 953 118 q 619 6 725 46 q 546 135 546 94 q 580 176 546 155 q 632 203 606 189 q 802 376 683 233 q 946 579 922 519 q 801 505 893 566 q 664 429 703 442 q 609 484 660 436 q 565 542 565 524 q 705 722 565 565 q 877 908 813 845 q 770 956 828 934 l 770 975 q 821 1015 796 995 q 878 1041 854 1041 q 995 1011 929 1041 q 1075 931 1075 975 q 1053 887 1075 904 q 952 836 1053 887 q 713 645 832 778 q 649 565 683 611 q 830 655 709 596 q 1028 741 897 680 q 1109 717 1041 733 q 1196 660 1156 705 l 1196 652 q 1155 598 1199 625 q 1089 556 1123 576 q 916 359 1049 523 q 770 174 865 298 q 925 226 797 180 q 1066 264 1034 264 q 1193 231 1125 264 q 1277 142 1273 193 m 505 495 q 348 94 445 362 q 296 -31 333 51 q 250 -70 273 -70 q 205 -36 223 -70 q 189 23 189 -6 q 228 134 189 63 q 268 246 268 204 q 266 257 268 252 q 195 232 227 254 q 133 185 163 210 l 128 185 q 82 297 82 184 q 112 382 82 310 q 284 691 129 425 q 420 961 420 926 q 398 1038 420 994 l 417 1057 q 473 1000 460 1017 q 499 926 499 967 q 433 731 499 854 q 314 526 428 721 q 250 377 250 416 q 251 367 250 377 q 307 381 284 381 q 365 335 352 381 q 505 530 407 381 l 505 495 "},"饀":{"x_min":0,"x_max":0,"ha":1389},"醎":{"x_min":0,"x_max":0,"ha":1389},"鰛":{"x_min":0,"x_max":0,"ha":1389},"菜":{"x_min":184.90625,"x_max":1217.078125,"ha":1389,"o":"m 621 1044 q 554 937 584 1006 q 504 820 528 878 q 495 819 500 819 q 440 856 470 819 q 410 919 410 893 q 428 971 410 934 q 453 1025 450 1014 l 516 961 q 621 1044 568 1011 m 1217 68 l 1217 65 q 1126 35 1189 35 q 1088 37 1113 35 q 1048 39 1062 39 q 926 23 981 39 q 989 109 986 75 q 728 159 930 156 q 738 -11 738 14 q 674 -155 738 -82 q 536 -67 637 -145 q 397 43 467 -11 q 301 -7 361 34 q 205 -63 236 -52 q 184 0 184 -51 q 239 53 191 18 q 301 98 270 75 q 275 138 301 115 q 250 168 250 161 q 297 262 250 218 q 460 364 338 298 q 636 450 568 423 q 599 482 624 482 q 483 444 552 482 q 412 406 415 406 q 400 410 404 406 q 399 429 399 419 q 414 498 399 458 q 556 621 443 530 q 679 728 590 648 l 662 746 q 323 556 526 696 q 206 484 283 528 q 194 510 194 487 q 224 595 194 574 q 313 650 250 614 q 627 833 509 761 q 730 930 673 861 q 810 1050 787 998 q 765 1086 807 1080 q 810 1118 772 1097 q 860 1138 848 1138 q 945 1076 933 1138 q 869 977 940 1052 q 781 869 795 898 q 1017 945 948 945 q 1097 922 1059 945 q 1141 859 1141 897 q 1138 835 1141 848 q 1032 815 1130 825 q 910 807 971 811 q 804 785 857 800 q 833 762 804 774 q 861 735 861 750 q 837 698 861 715 q 770 663 808 678 q 669 607 731 648 q 579 537 606 566 q 652 543 621 543 q 720 494 720 543 q 795 526 778 526 q 846 511 821 526 q 872 469 875 492 l 872 463 q 799 397 850 437 q 727 335 747 357 q 724 296 724 316 q 730 233 724 266 q 844 244 780 244 q 1184 137 1095 244 q 1217 68 1217 98 m 641 294 q 524 177 572 226 q 638 218 580 199 l 641 294 m 628 368 q 458 295 572 359 q 338 188 335 226 l 338 183 q 386 155 362 168 q 628 368 499 236 m 640 149 l 640 164 q 552 136 595 150 q 474 90 499 118 q 538 44 493 69 q 609 21 583 20 l 611 21 q 640 149 641 44 "},"葦":{"x_min":0,"x_max":0,"ha":1389},"涹":{"x_min":0,"x_max":0,"ha":1389},"✓":{"x_min":0,"x_max":0,"ha":1389},"糏":{"x_min":0,"x_max":0,"ha":1389},"░":{"x_min":0,"x_max":0,"ha":694},"ⓞ":{"x_min":0,"x_max":0,"ha":1389},"採":{"x_min":77,"x_max":1311.59375,"ha":1389,"o":"m 1311 165 q 1288 132 1311 148 q 1234 104 1269 123 q 1085 13 1184 74 q 1147 131 1110 64 q 1085 125 1125 125 q 1024 127 1064 125 q 964 130 984 130 q 975 9 975 64 q 973 -23 975 -17 q 937 -90 969 -49 q 882 -138 906 -131 q 510 178 510 33 q 881 496 510 285 l 881 540 q 735 486 807 501 q 717 558 717 512 q 750 633 717 578 q 885 746 817 746 q 963 709 918 746 q 1055 888 1032 798 q 634 635 866 854 q 602 679 615 635 q 592 740 592 713 q 613 790 592 748 q 678 896 628 822 q 748 1010 729 970 q 773 1128 779 1075 q 779 1129 777 1129 q 826 1090 802 1129 q 851 1029 845 1058 q 811 940 840 995 q 769 852 778 881 q 927 931 839 893 q 1091 980 1040 980 q 1143 954 1121 980 q 1169 896 1165 928 q 1071 740 1102 784 q 956 597 1015 657 l 963 558 q 1049 523 973 543 q 1114 471 1114 506 q 1038 400 1114 441 q 961 344 961 359 q 969 238 961 299 q 998 237 983 237 q 1076 248 1024 237 q 1154 260 1128 260 q 1211 246 1158 260 q 1311 165 1311 219 m 561 893 q 486 815 546 866 q 413 737 425 763 q 405 678 405 718 q 408 613 405 667 q 406 549 409 573 q 543 670 471 610 q 412 424 496 590 q 423 250 423 324 q 323 -81 423 -2 q 253 -17 295 -71 q 190 63 195 59 q 119 111 186 67 q 77 174 77 138 q 325 505 77 257 q 323 575 325 528 q 321 642 321 621 q 323 678 321 660 q 224 609 260 609 q 109 667 182 609 q 228 754 162 697 q 341 851 285 802 q 359 972 357 961 q 391 1087 372 1047 q 428 1024 420 1067 q 442 949 435 986 q 471 952 458 952 q 561 893 541 952 m 888 642 l 872 672 q 836 640 853 665 q 819 592 820 614 q 888 642 851 604 m 891 237 l 882 294 l 832 244 q 873 236 854 236 q 891 237 882 236 m 887 123 l 887 143 q 709 223 709 161 q 767 307 709 249 q 840 397 832 373 q 709 327 792 382 q 591 233 626 272 q 567 172 567 206 q 686 62 567 120 q 850 9 793 9 q 868 13 858 9 q 887 123 888 39 m 327 305 q 324 374 327 340 q 212 279 268 326 q 131 170 131 204 q 192 118 131 151 q 278 85 254 85 q 288 86 283 85 q 327 305 327 130 "},"拏":{"x_min":0,"x_max":0,"ha":1389},"袛":{"x_min":0,"x_max":0,"ha":1389},"蟊":{"x_min":0,"x_max":0,"ha":1389},"餡":{"x_min":0,"x_max":0,"ha":1389},"鵝":{"x_min":0,"x_max":0,"ha":1389},"ぎ":{"x_min":287.109375,"x_max":1272.25,"ha":1389,"o":"m 1272 875 q 1246 835 1272 840 q 1169 871 1219 840 q 1087 903 1120 903 q 1075 897 1075 903 q 1105 866 1075 894 q 1135 813 1135 837 q 1104 756 1135 772 q 1017 816 1067 763 q 939 898 977 858 l 950 905 l 999 908 q 1099 960 1047 960 q 1272 875 1272 960 m 1087 661 q 1000 587 1067 613 q 889 547 945 568 q 988 276 988 367 q 979 231 988 255 q 949 201 966 201 q 795 249 919 201 q 595 298 672 298 q 412 213 459 298 q 404 193 404 200 q 424 158 404 175 q 458 137 437 146 q 539 112 509 116 q 698 94 619 102 q 819 10 794 75 q 718 -46 801 -46 q 481 6 592 -46 q 340 186 340 72 q 451 326 340 279 q 640 362 534 362 q 851 338 778 362 q 789 491 839 406 q 649 454 718 472 q 511 430 557 430 q 460 438 511 430 q 374 508 374 450 q 597 741 374 535 q 508 720 569 740 q 408 701 447 701 q 287 796 329 701 q 299 797 299 797 q 387 795 384 795 q 597 869 469 795 q 485 1026 555 968 l 490 1037 q 574 1052 530 1052 q 638 1037 618 1052 q 686 915 644 965 q 732 946 709 931 q 779 967 763 967 q 797 964 775 967 q 854 957 825 961 q 893 921 884 953 q 828 866 874 891 q 759 822 774 837 q 854 769 806 796 q 953 727 911 739 q 1038 706 981 721 q 1087 661 1072 693 m 908 657 q 831 732 892 687 q 740 797 786 764 l 846 627 l 908 657 m 740 587 q 705 653 709 647 q 661 715 683 691 q 541 629 600 671 q 444 522 465 572 q 473 517 473 517 q 740 587 550 517 "},"卦":{"x_min":0,"x_max":0,"ha":1389},"１":{"x_min":515.40625,"x_max":934.515625,"ha":1389,"o":"m 934 952 q 910 895 934 941 q 686 401 752 606 q 648 275 660 324 q 625 146 636 210 q 595 33 609 48 q 539 104 564 54 q 515 193 515 154 q 623 566 515 343 q 821 912 684 693 q 646 863 735 893 q 743 964 657 903 q 872 1025 830 1025 q 913 999 892 1025 q 934 952 934 973 "},"煋":{"x_min":0,"x_max":0,"ha":1389},"翀":{"x_min":0,"x_max":0,"ha":1389},"▤":{"x_min":0,"x_max":0,"ha":694},"賿":{"x_min":0,"x_max":0,"ha":1389},"㋤":{"x_min":0,"x_max":0,"ha":1389},"昵":{"x_min":0,"x_max":0,"ha":1389},"懦":{"x_min":0,"x_max":0,"ha":1389},"庋":{"x_min":0,"x_max":0,"ha":1389},"淎":{"x_min":0,"x_max":0,"ha":1389},"廝":{"x_min":0,"x_max":0,"ha":1389},"楬":{"x_min":0,"x_max":0,"ha":1389},"低":{"x_min":82.828125,"x_max":1316.140625,"ha":1389,"o":"m 1316 92 q 1256 18 1316 16 l 1251 18 q 1093 202 1188 73 q 955 404 1010 310 q 663 134 856 316 l 675 134 q 812 157 722 132 q 922 181 902 181 q 1012 164 967 181 q 1070 104 1070 142 q 1034 59 1070 81 q 860 1 1012 44 q 700 -55 807 -18 l 678 -46 q 784 42 761 13 q 773 43 783 43 q 595 31 680 43 q 565 64 581 40 q 549 104 549 88 q 659 269 549 155 q 811 415 670 282 q 911 515 844 448 q 865 609 892 561 q 575 371 696 492 q 529 440 529 385 q 632 651 529 474 q 742 823 732 821 q 734 820 742 823 l 722 815 q 595 756 680 794 q 522 665 552 737 q 484 549 518 657 l 374 207 q 329 71 340 101 q 251 -27 287 -27 q 200 2 218 -27 q 185 62 185 28 q 223 171 185 103 q 261 280 261 240 q 260 291 261 284 q 191 266 221 288 q 131 221 161 244 l 126 221 q 90 265 103 221 q 82 330 82 297 q 244 659 82 377 q 407 977 407 941 q 386 1052 407 1009 l 405 1071 q 457 1014 456 1017 q 482 944 482 981 q 420 752 482 869 q 307 558 363 655 q 245 408 245 453 l 246 401 q 295 413 272 413 q 355 367 347 413 q 419 495 375 390 q 488 703 420 500 q 703 937 530 828 q 658 1056 658 1038 q 692 1105 658 1091 q 793 975 749 1060 q 894 1018 836 999 q 935 1036 910 1036 q 1002 1006 958 1036 q 935 920 1000 964 q 845 847 857 869 q 895 758 861 819 q 994 820 930 777 q 909 897 975 845 q 930 899 917 897 q 952 899 945 899 q 990 895 967 899 q 1029 889 1021 891 q 1101 889 1034 889 q 1176 845 1165 889 q 936 664 1168 807 q 981 591 958 619 q 1077 680 1029 636 q 1175 748 1154 748 q 1213 725 1203 748 q 1222 679 1218 716 q 1192 538 1192 617 q 1229 356 1192 453 q 1295 187 1293 191 q 1316 92 1316 115 m 1185 273 q 1140 584 1135 493 l 1025 477 q 1049 439 1030 470 q 1185 273 1114 332 m 831 693 q 781 789 793 754 q 691 663 722 725 q 648 568 678 630 q 717 617 671 584 q 831 693 731 626 "},"黲":{"x_min":0,"x_max":0,"ha":1389},"晋":{"x_min":0,"x_max":0,"ha":1389},"ΰ":{"x_min":0,"x_max":0,"ha":694},"蠞":{"x_min":0,"x_max":0,"ha":1389},"裸":{"x_min":0,"x_max":0,"ha":1389},"釭":{"x_min":0,"x_max":0,"ha":1389},"睍":{"x_min":0,"x_max":0,"ha":1389},"龕":{"x_min":0,"x_max":0,"ha":1389},"啾":{"x_min":0,"x_max":0,"ha":1389},"迓":{"x_min":0,"x_max":0,"ha":1389},"廾":{"x_min":0,"x_max":0,"ha":1389},"慬":{"x_min":0,"x_max":0,"ha":1389},"皺":{"x_min":0,"x_max":0,"ha":1389},"㍖":{"x_min":0,"x_max":0,"ha":1389},"攽":{"x_min":0,"x_max":0,"ha":1389},"陶":{"x_min":0,"x_max":0,"ha":1389},"腗":{"x_min":0,"x_max":0,"ha":1389},"嗑":{"x_min":0,"x_max":0,"ha":1389},"雲":{"x_min":157.21875,"x_max":1246.0625,"ha":1389,"o":"m 1246 805 q 1100 626 1246 694 q 859 572 984 572 q 727 595 783 572 q 726 589 726 592 q 798 533 726 569 q 870 470 870 497 q 783 401 870 435 q 654 329 680 361 q 733 279 694 304 q 782 205 780 247 q 708 150 745 178 q 652 85 652 106 q 684 71 652 71 q 818 74 729 71 q 951 78 906 78 q 1071 55 1020 78 q 1138 -34 1138 25 q 1137 -49 1138 -42 q 1042 -84 1118 -70 q 934 -99 988 -92 q 832 -118 898 -104 l 807 -107 l 905 -54 q 810 -41 859 -46 q 647 -31 729 -35 q 537 40 537 -16 q 578 136 537 82 q 641 223 633 207 q 595 253 637 228 q 560 289 560 274 q 612 372 560 318 q 683 460 673 435 q 643 504 677 471 q 616 554 616 529 l 646 623 q 580 703 607 649 q 462 635 527 678 q 183 448 334 546 q 157 508 157 456 q 165 557 157 534 q 574 811 306 653 l 585 852 q 477 793 561 831 l 443 793 l 661 981 q 612 1028 656 996 q 574 1085 574 1058 q 638 1093 595 1088 q 692 1105 649 1095 q 745 1115 727 1115 q 807 1100 738 1115 q 911 1023 900 1080 q 831 980 904 1002 q 752 947 757 958 l 771 910 q 1038 954 931 954 q 1176 921 1118 954 q 1246 805 1246 880 m 1159 826 q 1021 875 1137 875 q 786 820 887 875 q 740 663 779 778 q 830 644 775 644 q 1021 692 920 644 q 1159 826 1135 747 m 706 878 l 706 911 q 645 874 684 899 l 636 845 q 706 878 660 855 m 693 764 l 634 728 q 671 691 645 705 q 693 764 683 712 "},"礆":{"x_min":0,"x_max":0,"ha":1389},"☉":{"x_min":0,"x_max":0,"ha":1389},"肛":{"x_min":0,"x_max":0,"ha":1389},"祔":{"x_min":0,"x_max":0,"ha":1389},"僩":{"x_min":0,"x_max":0,"ha":1389},"鑅":{"x_min":0,"x_max":0,"ha":1389},"彣":{"x_min":0,"x_max":0,"ha":1389},"鍥":{"x_min":0,"x_max":0,"ha":1389},"㋛":{"x_min":0,"x_max":0,"ha":1389},"│":{"x_min":0,"x_max":0,"ha":1389},"奫":{"x_min":0,"x_max":0,"ha":1389},"凞":{"x_min":0,"x_max":0,"ha":1389},"兗":{"x_min":0,"x_max":0,"ha":1389},"釯":{"x_min":0,"x_max":0,"ha":1389},"ｫ":{"x_min":0,"x_max":0,"ha":694},"秱":{"x_min":0,"x_max":0,"ha":1389},"嚮":{"x_min":0,"x_max":0,"ha":1389},"☳":{"x_min":0,"x_max":0,"ha":1389},"鏜":{"x_min":0,"x_max":0,"ha":1389},"稾":{"x_min":0,"x_max":0,"ha":1389},"⒀":{"x_min":0,"x_max":0,"ha":1389},"弆":{"x_min":0,"x_max":0,"ha":1389},"劗":{"x_min":0,"x_max":0,"ha":1389},"棏":{"x_min":0,"x_max":0,"ha":1389},"籍":{"x_min":0,"x_max":0,"ha":1389},"錤":{"x_min":0,"x_max":0,"ha":1389},"縁":{"x_min":0,"x_max":0,"ha":1389},"禩":{"x_min":0,"x_max":0,"ha":1389},"績":{"x_min":100,"x_max":1234.265625,"ha":1389,"o":"m 1197 606 q 1196 591 1197 600 q 1075 552 1178 574 q 885 496 952 526 q 725 351 774 445 q 838 431 782 391 q 960 482 915 482 q 1022 442 995 482 q 1045 369 1045 407 q 965 209 1045 297 q 815 106 899 134 q 699 -36 732 -6 q 537 -105 623 -107 q 706 99 634 1 q 687 148 687 115 q 721 235 687 195 q 800 275 755 275 q 851 247 834 275 q 958 392 963 326 l 957 402 l 950 402 q 760 309 885 403 q 599 160 655 229 q 550 220 562 161 q 626 357 564 284 q 727 477 717 463 q 609 422 676 467 q 497 355 523 368 q 493 388 493 373 q 507 441 493 418 q 724 597 622 518 l 684 624 q 735 728 684 685 q 839 791 766 757 l 839 842 q 752 798 819 836 q 659 768 698 768 q 577 817 623 768 l 577 840 q 752 907 657 853 q 863 1035 868 973 l 862 1046 l 812 1088 l 816 1105 q 892 1118 853 1118 q 935 1101 918 1118 q 941 1063 941 1084 q 935 1020 941 1043 q 1028 1001 976 1020 l 1047 963 q 971 918 1033 947 q 916 876 916 895 l 915 814 q 950 818 933 818 q 1033 773 1013 818 q 969 694 1017 732 q 897 632 910 647 l 899 629 q 1067 682 1007 682 q 1150 667 1114 682 q 1197 606 1197 647 m 1234 -70 q 1212 -111 1234 -94 q 1165 -127 1190 -127 q 1055 -58 1110 -127 q 976 56 1015 0 q 918 116 954 85 q 946 124 931 120 q 1125 67 1028 124 q 1234 -70 1234 4 m 551 899 q 469 789 530 857 q 382 682 404 716 q 343 553 343 618 q 349 510 343 530 q 507 678 423 602 l 507 652 q 440 546 459 578 q 382 437 404 487 q 499 221 499 308 q 395 68 499 152 q 216 -16 291 -16 q 135 15 170 -16 q 100 92 100 46 q 291 443 100 233 q 270 578 270 507 q 317 788 270 664 q 270 739 311 784 q 221 705 236 705 q 171 738 199 705 q 133 791 152 765 l 133 804 q 288 907 164 816 q 427 987 399 987 q 497 955 452 987 q 551 899 542 922 m 919 745 l 904 740 l 904 728 l 919 745 m 819 698 q 789 664 793 686 q 798 661 794 661 q 819 698 816 661 m 418 252 q 394 321 418 286 q 348 379 393 324 q 246 248 297 313 q 176 97 176 157 q 180 74 176 85 q 193 72 185 72 q 294 112 233 72 q 378 185 345 147 q 418 252 418 233 "},"満":{"x_min":111.5625,"x_max":1275,"ha":1389,"o":"m 1275 451 q 1230 206 1275 355 q 1179 84 1208 135 q 1033 -44 1138 12 q 845 -112 943 -92 q 805 -97 821 -108 q 729 19 772 -75 q 679 156 691 101 q 524 129 558 129 q 451 198 451 129 q 464 255 451 218 q 491 309 478 291 q 641 380 542 380 q 769 362 681 380 q 830 407 799 375 q 886 458 882 454 q 818 468 882 466 l 799 481 q 940 523 886 523 q 1007 485 989 523 q 965 412 996 454 q 912 346 938 380 q 1038 253 1038 310 q 1016 212 1038 229 q 969 195 993 195 q 890 215 938 195 q 814 244 833 240 l 731 183 q 787 92 749 139 q 867 34 835 34 q 939 63 887 34 q 1007 110 982 89 q 1126 278 1084 172 q 1166 483 1166 375 q 1149 595 1166 548 q 1072 662 1125 662 q 694 435 882 662 q 645 529 645 459 q 760 772 645 564 q 672 731 733 769 q 527 622 581 674 q 384 360 466 564 q 264 65 324 213 q 173 -28 220 -28 q 123 27 141 -28 q 111 111 111 67 q 207 534 111 252 q 258 731 221 600 q 302 812 264 749 q 334 886 334 865 q 298 990 334 890 l 306 1002 q 394 990 366 1000 q 464 952 432 975 q 506 891 506 921 q 438 833 506 856 q 325 766 354 803 q 299 708 299 735 q 303 674 299 697 q 306 638 306 651 q 265 457 306 576 q 223 275 223 337 q 225 257 223 263 q 381 497 275 313 q 559 725 462 637 q 804 873 656 812 l 839 963 q 808 997 836 967 q 790 1033 789 1017 l 790 1039 q 861 1080 805 1065 q 946 1090 907 1092 l 961 1090 q 969 1069 969 1078 q 958 1032 969 1052 q 942 998 944 1004 q 1018 970 948 989 q 1106 909 1089 951 q 1048 873 1094 886 q 975 860 1011 867 q 858 801 911 845 q 782 637 819 730 q 1081 745 938 745 q 1235 645 1184 745 q 1275 451 1275 568 m 938 916 l 920 930 l 904 903 q 938 916 914 907 m 693 299 q 621 316 644 316 q 546 244 549 316 q 693 299 595 248 "},"誕":{"x_min":69.171875,"x_max":1319.71875,"ha":1389,"o":"m 1068 949 l 1068 945 q 859 859 1048 929 q 744 937 771 893 q 839 987 763 944 q 920 1025 908 1025 q 1068 949 1071 1025 m 1319 648 q 1302 626 1319 632 q 1227 613 1276 622 q 1124 583 1193 602 l 1175 655 q 1129 662 1150 662 q 1040 618 1075 662 q 973 548 990 557 l 971 548 q 922 594 948 546 q 888 662 904 628 q 922 660 906 660 q 1059 705 981 660 q 1177 750 1137 750 q 1266 721 1220 750 q 1319 648 1319 689 m 1216 339 q 1193 299 1216 317 q 1077 284 1155 291 q 961 268 999 276 q 714 207 878 245 q 659 316 659 226 q 679 378 659 335 q 710 446 706 435 q 737 679 745 557 q 805 656 802 657 q 835 599 835 638 q 823 526 835 569 q 802 455 812 491 q 781 337 794 428 l 793 337 q 1068 400 910 335 q 1091 511 1085 443 q 1150 434 1110 485 q 1204 373 1169 413 q 1216 339 1216 358 m 527 945 q 489 910 522 920 q 447 895 450 897 q 260 809 375 874 l 343 968 q 269 1041 322 999 q 314 1065 292 1053 q 366 1076 336 1076 q 450 1021 385 1057 q 527 945 500 991 m 1305 81 q 879 -46 1203 -46 q 733 -36 839 -46 q 550 -9 600 -24 q 439 112 439 25 q 445 217 439 189 q 505 305 460 268 q 604 344 550 341 q 531 278 567 310 q 504 177 504 246 q 636 89 504 108 q 824 82 685 82 q 948 92 803 82 q 1114 99 1072 99 q 1305 81 1210 99 m 524 607 q 397 259 461 432 q 263 -47 298 -9 q 254 -48 259 -48 q 199 -14 225 -48 q 173 50 173 20 q 210 303 173 134 q 268 561 238 432 q 195 526 242 557 q 120 485 142 492 q 81 526 96 486 q 69 587 69 557 q 70 611 69 599 l 112 585 q 198 656 154 621 q 280 710 261 708 q 317 713 298 713 q 390 684 383 713 q 282 236 282 360 q 286 195 282 212 q 404 415 316 236 q 524 607 481 571 "},"蟶":{"x_min":0,"x_max":0,"ha":1389},"冺":{"x_min":0,"x_max":0,"ha":1389},"眆":{"x_min":0,"x_max":0,"ha":1389},"乾":{"x_min":0,"x_max":0,"ha":1389},"日":{"x_min":307,"x_max":1041,"ha":1389,"o":"m 1041 478 q 955 153 1041 275 q 783 38 875 38 q 605 183 682 38 q 536 420 536 309 q 564 512 536 472 q 647 557 595 557 q 721 554 695 557 q 812 521 765 550 q 868 449 868 487 q 864 434 868 441 q 846 420 861 427 q 828 410 831 412 q 744 362 769 362 q 702 408 719 362 q 653 455 685 455 q 601 409 601 455 q 659 264 601 340 q 785 190 718 188 l 789 190 q 896 336 869 223 q 911 530 911 401 q 882 841 911 727 q 810 904 866 904 q 592 750 728 904 q 450 518 462 602 q 444 278 444 476 q 410 148 444 177 q 327 214 354 155 q 307 323 307 259 q 338 564 307 400 q 404 792 373 742 l 428 783 q 445 639 428 710 q 591 828 466 692 q 837 991 741 991 q 1000 850 954 991 q 1034 614 1019 787 q 1041 478 1041 538 "},"牱":{"x_min":0,"x_max":0,"ha":1389},"獹":{"x_min":0,"x_max":0,"ha":1389},"銘":{"x_min":0,"x_max":0,"ha":1389},"蚕":{"x_min":80,"x_max":1268.140625,"ha":1389,"o":"m 1268 546 q 1265 531 1268 538 q 1219 513 1242 513 q 1171 519 1203 513 q 1124 526 1139 526 q 868 498 1047 526 q 1045 615 929 534 q 889 640 990 640 q 668 614 764 640 q 523 536 568 585 q 485 485 511 519 q 394 371 439 422 q 104 151 203 147 l 97 151 q 80 220 80 176 q 119 332 80 272 q 261 467 169 409 q 438 559 297 489 q 573 713 523 658 q 432 649 526 691 q 235 555 364 621 q 218 600 218 570 q 223 638 218 616 q 373 761 245 664 q 655 969 501 859 q 505 1061 598 969 l 511 1076 q 674 1100 566 1081 q 731 1118 702 1109 q 789 1129 766 1129 q 850 1115 817 1129 q 895 1080 882 1102 q 846 1027 897 1060 q 770 985 827 1015 q 490 801 619 904 q 374 685 397 726 q 690 840 450 717 q 821 939 781 939 q 849 923 832 939 q 874 900 861 912 q 937 874 888 887 q 987 844 977 862 q 840 778 972 814 q 679 727 694 737 q 595 650 625 691 q 962 713 777 713 q 1150 673 1056 713 q 1268 546 1268 626 m 1070 346 q 731 115 1070 266 q 698 13 698 46 q 719 -10 698 -7 q 830 26 775 7 q 944 47 898 47 q 1014 20 986 47 q 1045 -49 1042 -6 q 946 -97 1038 -66 q 828 -133 886 -114 q 887 -63 870 -94 q 797 -79 867 -66 q 704 -91 740 -91 q 644 -66 668 -91 q 621 -5 621 -41 q 638 83 621 23 q 604 121 634 92 q 549 199 576 145 q 648 168 607 169 q 669 298 669 221 l 662 298 q 521 229 627 301 q 379 131 450 180 q 351 237 351 164 q 418 347 351 258 q 414 282 414 308 q 417 249 414 262 q 538 327 446 278 q 669 388 623 372 q 681 442 681 437 q 660 503 681 475 q 616 552 638 528 q 634 553 625 553 q 757 492 727 553 q 765 400 750 422 q 834 418 799 408 q 902 429 879 429 q 1000 404 940 429 q 1070 346 1070 377 m 891 348 q 878 350 885 350 q 760 325 842 350 l 754 219 q 891 348 873 287 m 397 497 q 238 412 282 443 q 145 269 145 344 q 149 252 145 259 q 290 358 225 286 q 397 497 317 387 "},"旉":{"x_min":0,"x_max":0,"ha":1389},"傑":{"x_min":0,"x_max":0,"ha":1389},"遒":{"x_min":0,"x_max":0,"ha":1389},"跌":{"x_min":0,"x_max":0,"ha":1389},"渋":{"x_min":0,"x_max":0,"ha":1389},"駁":{"x_min":0,"x_max":0,"ha":1389},"佰":{"x_min":0,"x_max":0,"ha":1389},"⒣":{"x_min":0,"x_max":0,"ha":1389},"錷":{"x_min":0,"x_max":0,"ha":1389},"適":{"x_min":141,"x_max":1237.921875,"ha":1389,"o":"m 877 1048 q 832 1022 851 1028 q 774 1011 828 1021 q 622 964 720 1002 q 671 1021 629 976 q 710 1074 709 1060 l 667 1123 q 769 1120 718 1121 q 861 1085 830 1117 q 877 1048 877 1067 m 1237 34 l 1235 23 q 734 -84 1077 -84 q 379 -58 486 -84 q 145 157 165 -6 q 141 228 141 190 q 161 411 141 317 q 230 578 187 521 q 333 624 267 627 l 344 624 q 363 557 363 613 q 354 487 363 526 l 313 529 q 232 381 266 530 q 205 194 205 266 q 272 75 205 111 q 414 41 318 49 q 551 33 509 33 q 768 39 640 33 q 671 149 757 47 l 591 119 q 672 199 646 172 q 744 289 717 247 q 669 265 692 274 q 598 232 627 250 q 539 166 570 195 q 503 218 509 176 q 598 361 550 311 q 413 265 504 335 q 400 293 400 275 q 413 332 400 309 q 527 400 455 364 q 646 460 641 457 q 652 522 652 522 q 648 541 652 522 q 691 547 672 547 q 744 499 737 547 q 802 512 794 512 q 854 479 854 512 q 804 434 854 459 q 733 403 768 418 q 648 311 686 377 q 787 379 694 332 q 840 368 813 379 q 875 334 875 356 q 806 248 875 307 q 709 178 757 209 q 801 148 764 148 q 821 151 814 148 q 921 248 871 171 q 999 489 985 346 q 1006 566 1006 567 q 992 604 1006 586 q 958 622 978 622 q 702 570 854 622 q 460 466 571 527 q 452 499 452 478 q 453 518 452 509 q 752 741 491 581 l 744 741 q 657 728 704 742 q 647 751 647 735 q 654 784 647 765 q 782 879 702 815 q 422 746 548 811 q 384 792 384 746 q 387 808 384 801 q 466 865 421 838 l 459 828 q 729 941 497 856 q 999 1026 962 1026 q 1077 1014 1042 1026 q 1128 964 1128 998 q 1107 937 1128 946 q 1019 915 1080 925 q 752 795 839 885 q 840 812 803 795 q 886 796 863 804 q 921 765 915 784 q 816 702 901 740 q 703 631 730 663 q 1007 703 859 703 q 1105 568 1105 703 q 1102 526 1105 552 q 1098 483 1098 492 q 1052 237 1087 331 q 900 47 1004 110 q 1111 65 1105 65 q 1237 34 1187 65 "},"鏸":{"x_min":0,"x_max":0,"ha":1389},"拕":{"x_min":0,"x_max":0,"ha":1389},"㍃":{"x_min":0,"x_max":0,"ha":1389},"責":{"x_min":110.28125,"x_max":1277.765625,"ha":1389,"o":"m 1277 619 l 1277 614 q 1201 590 1251 590 q 1121 592 1176 590 q 1041 595 1067 595 q 570 440 740 595 q 525 380 525 398 l 525 378 q 821 526 732 526 q 889 490 858 526 q 921 416 921 454 q 835 230 921 329 q 668 107 755 140 q 332 -116 501 -121 q 538 103 459 0 q 510 163 510 121 q 548 255 510 214 q 637 296 587 296 q 694 264 677 296 q 777 332 739 291 q 821 422 823 384 l 821 432 l 815 432 q 597 334 742 434 q 405 175 475 251 q 353 239 366 177 q 477 419 376 322 q 950 653 647 584 q 494 544 722 650 q 302 446 397 495 q 123 368 142 368 q 113 372 117 368 q 110 398 110 381 q 113 437 110 414 q 182 497 136 470 q 264 540 193 503 q 460 634 328 574 q 439 680 439 654 q 490 757 439 711 q 568 814 528 791 q 631 848 590 824 q 641 870 641 858 q 640 877 641 870 q 476 833 536 833 q 347 888 420 833 l 374 904 q 517 945 435 913 q 655 1001 586 973 l 654 1042 q 579 1106 631 1073 l 587 1121 q 646 1149 614 1132 q 693 1141 678 1145 q 736 1124 724 1134 q 757 1091 746 1107 q 785 1075 768 1075 q 806 1077 792 1075 q 826 1080 819 1080 q 914 1063 872 1080 q 965 1001 968 1039 l 965 995 q 854 953 952 985 q 769 890 778 927 q 830 874 800 882 q 880 837 865 865 l 881 828 q 815 761 881 797 q 727 704 738 719 q 1024 747 892 747 q 1157 736 1112 747 q 1237 695 1201 725 q 1277 619 1279 660 m 1118 -86 q 1092 -134 1118 -115 q 1037 -154 1066 -154 q 918 -74 980 -154 q 830 54 873 -10 q 766 119 807 85 q 796 127 796 127 q 995 63 884 127 q 1118 -86 1118 -6 m 621 759 q 541 702 546 739 q 569 697 556 697 q 621 759 613 697 m 629 217 q 622 219 625 219 q 597 190 597 219 l 597 187 q 629 217 614 195 "},"圖":{"x_min":0,"x_max":0,"ha":1389},"嚷":{"x_min":0,"x_max":0,"ha":1389},"ノ":{"x_min":303.8125,"x_max":1002.328125,"ha":1389,"o":"m 1002 876 q 969 819 1002 850 q 920 771 926 779 q 801 553 881 698 q 457 101 641 279 q 397 47 420 66 q 332 4 352 8 q 303 88 303 24 q 367 282 303 169 q 367 267 367 276 q 366 250 366 254 q 378 196 366 218 q 834 859 724 480 l 802 889 l 801 901 q 859 964 831 927 q 895 950 878 964 q 925 929 916 933 q 973 915 949 922 q 1002 876 1002 903 "},"ギ":{"x_min":173.609375,"x_max":1307.515625,"ha":1389,"o":"m 1307 905 q 1274 852 1307 859 q 1201 890 1250 857 q 1127 919 1159 919 q 1113 912 1113 919 q 1117 902 1113 908 q 1161 836 1161 881 q 1120 772 1161 794 q 1043 833 1082 780 q 977 914 990 905 l 990 921 l 1038 925 q 1150 977 1095 977 q 1307 905 1307 977 m 1205 462 q 1144 409 1205 409 q 1081 413 1124 409 q 1018 417 1038 417 q 801 387 965 417 q 820 107 820 132 q 794 -32 820 12 l 785 -39 q 716 158 744 33 q 679 366 710 185 q 211 124 434 294 q 181 164 185 139 q 173 212 176 188 q 214 256 193 253 l 242 250 q 607 665 406 359 q 428 596 423 596 q 291 655 335 596 l 292 664 q 633 797 434 695 q 572 956 618 929 l 572 986 q 626 1025 599 995 q 675 1018 634 1025 q 722 1010 716 1011 q 745 977 739 1002 q 736 944 744 971 q 731 908 731 922 q 735 877 731 896 q 741 845 740 851 q 808 872 801 869 q 872 878 831 878 q 994 813 964 878 q 887 748 967 763 q 771 714 792 731 q 1006 562 897 591 q 1117 531 1104 537 q 1205 462 1178 507 m 888 524 q 756 674 813 595 l 777 504 l 888 524 m 672 466 q 642 626 664 535 q 549 482 577 535 q 511 404 537 455 l 672 466 "},"幡":{"x_min":0,"x_max":0,"ha":1389},"抷":{"x_min":0,"x_max":0,"ha":1389},"讐":{"x_min":0,"x_max":0,"ha":1389},"兄":{"x_min":201.921875,"x_max":1172,"ha":1389,"o":"m 463 743 q 401 611 463 633 q 364 695 364 634 q 435 897 364 819 l 449 882 q 463 743 463 793 m 1172 148 q 1102 16 1172 83 q 973 -68 1046 -37 q 863 -88 926 -88 q 638 -25 728 -88 q 528 88 593 4 q 442 150 479 150 q 322 51 395 150 q 226 -63 242 -56 q 201 -12 201 -37 q 216 96 201 65 q 268 162 229 120 q 328 225 325 221 q 395 315 349 256 l 479 414 q 584 540 517 455 l 512 534 q 490 547 500 532 q 481 574 481 562 q 489 599 481 590 q 527 639 498 620 q 576 669 551 654 q 711 791 637 710 q 836 928 774 860 q 790 942 821 942 q 580 879 699 942 l 543 894 q 699 995 612 952 q 877 1044 801 1044 q 953 1001 911 1044 q 1002 928 991 964 q 932 862 989 901 q 844 795 862 814 q 775 717 814 766 q 836 645 800 699 q 709 533 793 608 q 470 232 597 424 q 547 173 507 225 q 630 85 599 107 q 794 41 694 41 q 958 83 895 41 q 1032 228 1032 133 q 962 457 1032 321 q 990 439 972 451 q 1076 340 1008 426 q 1155 230 1144 255 q 1172 148 1172 192 "},"㌵":{"x_min":0,"x_max":0,"ha":1389},"諠":{"x_min":0,"x_max":0,"ha":1389},"兼":{"x_min":0,"x_max":0,"ha":1389},"Ė":{"x_min":0,"x_max":0,"ha":694},"蠵":{"x_min":0,"x_max":0,"ha":1389},"睺":{"x_min":0,"x_max":0,"ha":1389},"春":{"x_min":145.125,"x_max":1177.296875,"ha":1389,"o":"m 1177 406 q 1162 373 1177 384 q 994 337 1147 361 q 786 283 836 312 q 697 186 758 266 q 648 107 674 157 q 950 199 862 199 q 1026 182 992 199 q 1074 126 1070 162 q 968 10 1063 89 q 834 -79 880 -60 q 756 -96 800 -93 l 735 -86 q 826 5 813 -8 q 904 111 869 52 q 893 114 900 114 q 695 42 824 114 q 511 -40 557 -33 q 488 16 488 -12 q 512 84 488 51 q 621 239 562 158 q 377 147 486 197 q 154 48 303 111 q 145 92 145 67 q 151 138 145 114 q 225 194 176 165 q 305 245 264 220 q 545 430 383 308 q 429 597 429 536 q 507 708 429 652 q 627 782 534 730 l 634 833 q 507 798 562 798 q 363 871 398 798 q 526 923 424 879 q 679 1000 621 962 q 722 1141 695 1064 q 737 1143 737 1143 q 774 1127 756 1143 q 792 1092 792 1111 q 783 1046 792 1090 q 830 1052 808 1052 q 923 992 920 1052 q 828 929 908 965 q 745 877 748 893 l 733 806 q 827 745 827 803 q 774 676 827 718 q 706 596 716 628 q 759 578 712 588 q 813 538 802 569 q 762 477 802 517 q 718 426 722 436 q 703 392 709 403 q 678 367 691 372 q 632 390 648 367 q 425 274 595 376 q 569 315 458 277 q 722 359 621 329 q 853 454 760 369 q 977 542 950 542 q 1013 527 990 542 q 1074 486 1032 512 q 1148 454 1099 475 q 1177 406 1177 437 m 617 682 q 614 691 617 686 q 546 655 557 661 q 507 592 512 629 q 560 542 515 571 q 598 610 579 565 q 617 682 617 655 "},"鴎":{"x_min":0,"x_max":0,"ha":1389},"銃":{"x_min":0,"x_max":0,"ha":1389},"軒":{"x_min":0,"x_max":0,"ha":1389},"齔":{"x_min":0,"x_max":0,"ha":1389},"奢":{"x_min":0,"x_max":0,"ha":1389},"衵":{"x_min":0,"x_max":0,"ha":1389},"衝":{"x_min":0,"x_max":0,"ha":1389},"橪":{"x_min":0,"x_max":0,"ha":1389},"痴":{"x_min":0,"x_max":0,"ha":1389},"軀":{"x_min":0,"x_max":0,"ha":1389},"鵃":{"x_min":0,"x_max":0,"ha":1389},"歠":{"x_min":0,"x_max":0,"ha":1389},"馟":{"x_min":0,"x_max":0,"ha":1389},"閹":{"x_min":0,"x_max":0,"ha":1389},"滝":{"x_min":0,"x_max":0,"ha":1389},"纛":{"x_min":0,"x_max":0,"ha":1389},"嫺":{"x_min":0,"x_max":0,"ha":1389},"盙":{"x_min":0,"x_max":0,"ha":1389},"幨":{"x_min":0,"x_max":0,"ha":1389},"ｃ":{"x_min":460,"x_max":1036.15625,"ha":1389,"o":"m 1036 343 q 867 131 976 218 q 621 34 747 34 q 501 115 550 34 q 460 260 460 184 q 584 505 460 401 q 840 624 688 591 q 855 627 851 627 q 904 605 884 627 q 924 553 924 583 q 873 446 924 513 q 783 373 821 378 q 790 450 790 422 q 781 491 790 476 q 633 401 702 469 q 556 252 556 328 q 583 181 556 212 q 649 151 610 151 q 1036 343 778 151 "},"功":{"x_min":169.546875,"x_max":1215.28125,"ha":1389,"o":"m 1215 668 q 1166 356 1215 516 q 1024 78 1113 180 q 960 18 996 47 q 884 -16 911 -16 q 766 71 840 -16 q 684 203 695 155 q 481 17 630 104 q 375 -18 453 0 l 355 -5 q 457 97 396 27 q 655 373 577 236 q 802 679 718 481 q 683 606 743 652 q 595 519 646 577 q 404 343 561 481 q 217 196 236 196 q 179 237 192 196 q 169 298 169 265 q 174 332 169 320 q 225 413 192 359 q 379 710 332 588 q 286 717 333 714 q 217 764 226 725 q 444 897 303 801 l 538 897 q 571 882 550 897 q 599 854 591 866 q 558 793 587 828 q 512 737 535 764 q 406 580 459 671 q 330 412 344 472 q 566 552 410 457 l 580 592 q 694 708 595 638 q 839 798 766 752 q 912 988 876 876 l 891 1049 l 907 1066 q 994 1064 950 1066 q 1079 1051 1048 1063 q 1083 1032 1083 1040 q 1048 954 1083 1011 q 983 824 1018 907 q 1104 815 1078 820 q 1208 763 1174 802 q 1215 668 1215 720 m 1097 689 q 1051 720 1090 709 q 992 731 1019 731 q 948 722 963 731 q 842 497 906 644 q 737 272 770 337 q 895 150 770 199 q 1052 393 1003 223 q 1097 689 1082 497 "},"＃":{"x_min":282.125,"x_max":1048.453125,"ha":1389,"o":"m 1048 685 l 863 685 l 831 364 l 999 364 l 999 284 l 824 284 l 794 20 l 716 20 l 741 284 l 546 284 l 516 20 l 434 20 l 459 284 l 282 284 l 282 364 l 467 364 l 504 685 l 322 685 l 322 766 l 511 766 l 543 1011 l 626 1011 l 599 766 l 792 766 l 819 1011 l 900 1011 l 874 766 l 1048 766 l 1048 685 m 783 685 l 590 685 l 554 364 l 751 364 l 783 685 "},"鐓":{"x_min":0,"x_max":0,"ha":1389},"嚠":{"x_min":0,"x_max":0,"ha":1389},"馨":{"x_min":0,"x_max":0,"ha":1389},"假":{"x_min":0,"x_max":0,"ha":1389},"鵔":{"x_min":0,"x_max":0,"ha":1389},"寠":{"x_min":0,"x_max":0,"ha":1389},"灌":{"x_min":0,"x_max":0,"ha":1389},"婧":{"x_min":0,"x_max":0,"ha":1389},"怕":{"x_min":0,"x_max":0,"ha":1389},"蠉":{"x_min":0,"x_max":0,"ha":1389},"麀":{"x_min":0,"x_max":0,"ha":1389},"舉":{"x_min":0,"x_max":0,"ha":1389},"韓":{"x_min":0,"x_max":0,"ha":1389},"歧":{"x_min":0,"x_max":0,"ha":1389},"ŉ":{"x_min":0,"x_max":0,"ha":694},"鯒":{"x_min":0,"x_max":0,"ha":1389},"㎋":{"x_min":0,"x_max":0,"ha":1389},"搬":{"x_min":0,"x_max":0,"ha":1389},"彺":{"x_min":0,"x_max":0,"ha":1389},"銎":{"x_min":0,"x_max":0,"ha":1389},"笭":{"x_min":0,"x_max":0,"ha":1389},"畭":{"x_min":0,"x_max":0,"ha":1389},"㌔":{"x_min":0,"x_max":0,"ha":1389},"徑":{"x_min":0,"x_max":0,"ha":1389},"絈":{"x_min":0,"x_max":0,"ha":1389},"ʙ":{"x_min":0,"x_max":0,"ha":694},"ｇ":{"x_min":361.921875,"x_max":1018.859375,"ha":1389,"o":"m 1018 423 q 843 283 934 360 q 762 120 784 158 q 651 -23 715 37 q 452 -157 552 -118 q 424 -168 427 -168 q 380 -150 399 -168 q 361 -108 361 -133 q 367 -91 361 -100 q 421 64 374 -2 q 576 225 475 146 q 765 343 668 298 q 827 492 800 409 q 548 314 641 336 q 484 376 508 325 q 465 466 465 418 q 618 717 465 599 q 902 829 763 829 q 986 766 986 829 q 980 728 986 751 q 909 688 934 691 q 896 721 898 692 q 883 754 894 749 q 676 649 797 754 q 555 466 555 545 q 561 433 555 448 q 751 546 662 482 q 838 615 795 580 q 926 664 903 664 q 960 618 960 664 q 918 501 960 589 q 862 375 869 397 q 1018 423 957 412 m 729 245 q 572 138 653 218 q 480 -21 481 48 q 628 87 550 2 q 729 245 706 172 "},"釗":{"x_min":0,"x_max":0,"ha":1389},"蟿":{"x_min":0,"x_max":0,"ha":1389},"ʧ":{"x_min":0,"x_max":0,"ha":694},"駝":{"x_min":0,"x_max":0,"ha":1389},"廴":{"x_min":0,"x_max":0,"ha":1389},"鉀":{"x_min":0,"x_max":0,"ha":1389},"揸":{"x_min":0,"x_max":0,"ha":1389},"雍":{"x_min":0,"x_max":0,"ha":1389},"澂":{"x_min":0,"x_max":0,"ha":1389},"揀":{"x_min":0,"x_max":0,"ha":1389},"岩":{"x_min":147.84375,"x_max":1208.5,"ha":1389,"o":"m 632 861 l 612 816 q 475 722 601 792 q 321 652 349 652 q 252 731 280 652 q 313 855 253 763 q 373 1006 373 946 l 388 1011 q 425 908 425 969 q 414 811 425 880 q 513 846 431 823 q 624 878 618 876 l 632 861 m 1169 921 q 1159 892 1169 906 q 840 708 869 776 q 910 690 874 705 q 956 647 956 671 q 934 617 956 629 q 876 597 914 610 q 754 533 820 573 q 444 261 626 453 q 199 -52 259 68 q 158 -11 168 -41 q 147 49 154 -2 q 191 126 162 89 q 394 335 226 173 q 497 436 446 385 q 606 534 558 498 q 668 567 642 561 q 495 510 610 557 q 328 430 389 466 q 309 487 309 450 q 325 556 309 521 q 474 629 328 557 q 755 773 687 734 q 1007 957 916 864 q 941 970 981 970 q 668 889 802 970 q 615 986 615 942 q 619 1016 615 995 q 622 1048 622 1037 q 610 1102 622 1083 l 625 1116 q 682 1105 675 1108 q 732 1076 714 1097 q 737 1015 737 1033 q 958 1047 823 1047 q 1052 1038 1024 1047 q 1125 992 1087 1028 q 1169 921 1169 953 m 1208 94 q 1147 43 1208 48 q 1071 33 1121 39 q 995 31 1045 33 q 925 16 991 29 q 853 8 881 8 l 823 8 q 910 73 846 31 q 996 145 967 109 q 926 225 977 179 q 850 302 868 279 l 865 318 q 889 316 878 316 q 934 320 904 316 q 977 325 964 325 q 1072 279 1000 325 q 1208 94 1208 189 m 724 260 q 648 127 705 234 q 623 37 640 113 q 576 -36 613 -16 q 476 74 519 -24 q 458 104 474 74 q 447 132 447 124 q 476 250 447 157 l 495 259 q 566 191 539 226 q 644 236 579 200 q 724 279 709 272 l 724 260 "},"ҕ":{"x_min":0,"x_max":0,"ha":694},"穏":{"x_min":0,"x_max":0,"ha":1389},"斗":{"x_min":0,"x_max":0,"ha":1389},"蓬":{"x_min":0,"x_max":0,"ha":1389},"綮":{"x_min":0,"x_max":0,"ha":1389},"懴":{"x_min":0,"x_max":0,"ha":1389},"囝":{"x_min":0,"x_max":0,"ha":1389},"迅":{"x_min":0,"x_max":0,"ha":1389},"獲":{"x_min":0,"x_max":0,"ha":1389},"砣":{"x_min":0,"x_max":0,"ha":1389},"熱":{"x_min":122.078125,"x_max":1295.296875,"ha":1389,"o":"m 1294 509 q 1224 368 1294 430 q 1083 290 1167 313 q 939 273 1023 273 q 858 332 886 273 q 834 438 834 378 q 857 595 834 514 q 785 586 825 579 q 717 410 718 412 q 598 262 678 330 q 560 392 560 334 q 595 556 560 460 q 602 479 598 509 q 623 407 610 426 q 705 591 674 460 q 659 614 698 598 q 604 647 621 631 q 732 698 684 686 q 766 822 754 738 q 625 705 717 785 q 583 652 618 698 q 451 450 530 583 q 324 245 365 304 l 318 245 q 274 312 274 243 q 298 385 282 331 q 232 403 281 399 q 176 424 188 405 q 253 572 179 505 q 392 679 323 627 l 411 761 q 192 617 339 735 q 164 656 179 617 q 152 708 152 690 q 186 786 152 716 q 220 915 220 856 q 299 810 299 867 q 422 872 345 815 q 427 963 427 911 q 414 1081 427 1046 q 452 1092 433 1092 q 509 1062 496 1092 q 514 1001 513 1051 q 534 951 515 963 q 593 940 563 945 q 631 898 633 932 l 631 890 q 542 825 586 857 q 487 739 487 783 q 491 708 487 724 q 519 711 507 711 q 560 679 553 711 q 659 792 576 716 q 777 891 721 849 q 846 1062 792 921 q 879 1093 853 1078 q 923 1108 904 1108 q 950 1096 942 1108 q 928 1039 948 1082 q 903 963 908 995 q 959 982 931 972 q 1017 993 992 993 q 1058 983 1037 993 q 1100 925 1087 952 q 972 700 1003 765 q 898 460 898 551 q 968 368 898 368 q 1075 388 1021 368 q 1162 450 1135 412 q 1168 500 1168 476 q 1142 618 1168 549 q 1100 732 1121 675 q 1216 632 1158 682 q 1294 509 1294 559 m 1295 50 q 1241 3 1295 16 q 1161 -13 1200 -5 q 1089 -41 1136 -22 q 986 -61 1047 -55 q 1132 69 1086 5 q 1057 94 1094 94 q 942 63 1015 94 q 840 33 869 33 q 751 78 815 33 q 652 139 679 131 q 706 157 675 157 q 781 145 732 157 q 855 133 831 133 q 963 165 893 133 q 1070 197 1032 197 q 1180 172 1132 197 q 1250 121 1212 154 q 1295 50 1295 79 m 623 131 q 596 64 610 104 q 571 -15 583 24 q 503 -53 552 -53 q 431 24 480 -53 q 339 101 382 101 q 249 33 303 101 q 164 -53 188 -42 q 122 45 124 -37 q 160 101 130 65 q 206 156 200 148 q 242 214 223 180 q 252 114 257 145 q 362 140 316 140 q 453 104 402 140 q 518 69 503 69 q 623 131 580 108 m 981 915 q 882 876 925 912 q 820 703 870 865 q 874 641 843 674 q 981 915 882 709 m 378 562 q 374 584 378 575 q 280 477 287 509 q 322 450 295 453 q 378 562 378 519 "},"囘":{"x_min":0,"x_max":0,"ha":1389},"鴨":{"x_min":0,"x_max":0,"ha":1389},"繢":{"x_min":0,"x_max":0,"ha":1389},"灃":{"x_min":0,"x_max":0,"ha":1389},"徊":{"x_min":0,"x_max":0,"ha":1389},"倚":{"x_min":0,"x_max":0,"ha":1389},"鼃":{"x_min":0,"x_max":0,"ha":1389},"矑":{"x_min":0,"x_max":0,"ha":1389},"式":{"x_min":208.875,"x_max":1213.921875,"ha":1389,"o":"m 1158 941 q 1155 918 1158 930 q 1131 901 1143 901 q 1103 904 1120 901 q 1079 908 1086 907 q 980 906 1029 911 q 1029 963 1009 933 l 952 1013 q 997 1027 967 1014 q 1045 1040 1028 1040 q 1120 1009 1082 1040 q 1158 941 1158 977 m 1213 -58 q 1198 -95 1213 -80 q 1162 -111 1182 -111 q 1072 -71 1118 -111 q 1033 -27 1055 -56 q 636 640 813 268 l 512 546 l 596 657 q 447 629 497 629 q 320 672 348 629 q 583 808 503 743 q 531 954 557 881 q 428 1062 497 1037 q 478 1104 457 1086 q 553 1089 516 1095 q 621 1055 599 1079 q 622 1038 622 1047 q 610 983 622 1013 l 661 853 q 740 899 701 876 q 826 925 788 925 q 908 885 908 925 q 832 800 908 851 q 717 701 740 739 q 1043 134 821 447 q 1072 249 1059 157 q 1091 375 1082 313 q 1156 158 1098 360 q 1213 -58 1213 -43 m 785 192 q 783 177 785 185 q 646 113 767 166 q 314 -89 413 9 q 245 1 273 -92 q 466 335 335 180 q 379 298 440 332 q 298 242 318 264 q 208 354 246 261 l 221 354 q 374 419 279 351 q 485 486 469 486 q 562 478 523 486 q 618 440 618 465 q 587 379 618 424 q 554 339 577 367 q 463 214 511 287 q 394 81 408 128 q 636 204 512 147 q 646 362 641 268 q 700 275 672 292 q 754 241 728 257 q 785 192 785 219 "},"鶇":{"x_min":0,"x_max":0,"ha":1389},"躬":{"x_min":0,"x_max":0,"ha":1389},"図":{"x_min":197,"x_max":1141,"ha":1389,"o":"m 1141 382 q 1123 181 1141 242 q 1035 17 1097 88 q 876 -65 962 -65 q 689 -6 787 -65 q 537 121 601 44 l 544 140 q 788 107 709 107 q 917 138 873 107 q 1019 413 1019 211 q 1010 684 1019 519 q 983 931 1000 893 q 856 972 933 972 q 468 795 659 972 l 435 799 q 561 938 495 891 q 875 1051 721 1051 q 1108 912 1063 1051 q 1132 646 1119 880 q 1141 382 1141 503 m 986 409 q 979 378 986 391 q 864 317 968 355 q 728 271 796 294 l 698 278 q 845 421 824 362 q 767 469 811 469 q 667 318 735 405 q 545 188 595 225 q 438 139 504 158 q 380 267 380 162 q 474 470 380 397 q 689 564 540 522 q 795 769 762 674 q 786 770 790 770 q 737 750 769 770 q 686 678 705 729 q 643 634 670 636 q 573 775 602 648 q 641 760 639 760 q 723 802 670 760 q 801 859 786 853 q 918 792 906 839 q 820 581 872 655 q 986 409 986 496 m 545 676 q 514 600 542 672 q 472 537 492 549 q 421 568 444 541 q 397 625 397 596 q 400 671 397 640 q 402 718 402 702 l 416 718 q 489 651 428 712 l 545 698 l 545 676 m 339 583 q 293 105 339 212 q 271 97 283 97 q 214 145 237 97 q 197 222 197 183 q 233 493 197 333 q 302 762 268 627 l 321 752 q 339 583 339 665 m 607 463 q 438 318 438 423 q 454 250 438 282 q 541 345 486 264 q 607 463 583 409 "},"ʞ":{"x_min":0,"x_max":0,"ha":694},"汗":{"x_min":0,"x_max":0,"ha":1389},"妰":{"x_min":0,"x_max":0,"ha":1389},"獯":{"x_min":0,"x_max":0,"ha":1389},"ャ":{"x_min":139.703125,"x_max":994.203125,"ha":1389,"o":"m 994 553 q 938 505 975 528 q 876 466 907 485 q 754 374 815 420 q 614 328 686 328 q 587 329 600 328 q 619 186 591 298 q 642 44 642 98 q 610 -38 642 -11 q 552 40 571 -5 q 453 443 505 151 q 257 326 301 386 l 249 326 q 189 347 226 323 q 139 391 151 370 l 146 399 q 436 531 200 405 l 391 717 q 385 720 389 720 q 354 684 371 720 l 336 683 l 336 691 q 353 753 335 725 q 405 781 371 781 q 503 728 474 781 q 534 568 509 657 q 604 599 560 584 q 678 623 641 611 q 840 669 801 669 q 925 624 866 669 q 994 553 983 578 m 804 564 q 546 473 661 531 l 584 344 q 804 564 695 354 "},"肦":{"x_min":0,"x_max":0,"ha":1389},"贉":{"x_min":0,"x_max":0,"ha":1389},"焅":{"x_min":0,"x_max":0,"ha":1389},"❆":{"x_min":0,"x_max":0,"ha":1389},"囙":{"x_min":0,"x_max":0,"ha":1389},"鶯":{"x_min":0,"x_max":0,"ha":1389},"陦":{"x_min":0,"x_max":0,"ha":1389},"蒒":{"x_min":0,"x_max":0,"ha":1389},"脼":{"x_min":0,"x_max":0,"ha":1389},"恱":{"x_min":0,"x_max":0,"ha":1389},"鋺":{"x_min":0,"x_max":0,"ha":1389},"帆":{"x_min":0,"x_max":0,"ha":1389},"嚆":{"x_min":0,"x_max":0,"ha":1389},"皧":{"x_min":0,"x_max":0,"ha":1389},"彀":{"x_min":0,"x_max":0,"ha":1389},"╜":{"x_min":0,"x_max":0,"ha":694},"悆":{"x_min":0,"x_max":0,"ha":1389},"壑":{"x_min":0,"x_max":0,"ha":1389},"荸":{"x_min":0,"x_max":0,"ha":1389},"偕":{"x_min":0,"x_max":0,"ha":1389},"條":{"x_min":0,"x_max":0,"ha":1389},"驌":{"x_min":0,"x_max":0,"ha":1389},"乑":{"x_min":0,"x_max":0,"ha":1389},"◧":{"x_min":0,"x_max":0,"ha":694},"Ｌ":{"x_min":300,"x_max":1120.328125,"ha":1389,"o":"m 1120 251 q 912 76 1068 133 q 636 32 792 32 q 412 78 499 32 q 300 262 300 137 q 363 523 300 369 q 577 932 488 829 q 695 987 623 987 q 703 953 703 980 q 679 835 703 905 q 652 891 671 857 q 485 633 603 891 q 373 317 373 384 q 634 195 373 195 q 988 231 819 195 q 1120 251 1063 247 "},"竪":{"x_min":0,"x_max":0,"ha":1389},"╨":{"x_min":0,"x_max":0,"ha":694},"遰":{"x_min":0,"x_max":0,"ha":1389},"肯":{"x_min":0,"x_max":0,"ha":1389},"盈":{"x_min":0,"x_max":0,"ha":1389},"焙":{"x_min":0,"x_max":0,"ha":1389},"鏓":{"x_min":0,"x_max":0,"ha":1389},"燈":{"x_min":0,"x_max":0,"ha":1389},"а":{"x_min":0,"x_max":0,"ha":1389},"朽":{"x_min":0,"x_max":0,"ha":1389},"玢":{"x_min":0,"x_max":0,"ha":1389},"隸":{"x_min":0,"x_max":0,"ha":1389},"剋":{"x_min":0,"x_max":0,"ha":1389},"樑":{"x_min":0,"x_max":0,"ha":1389},"莒":{"x_min":0,"x_max":0,"ha":1389},"ｲ":{"x_min":0,"x_max":0,"ha":694},"館":{"x_min":0,"x_max":0,"ha":1389},"熹":{"x_min":0,"x_max":0,"ha":1389},"齧":{"x_min":0,"x_max":0,"ha":1389},"笊":{"x_min":0,"x_max":0,"ha":1389},"搔":{"x_min":0,"x_max":0,"ha":1389},"餽":{"x_min":0,"x_max":0,"ha":1389},"螿":{"x_min":0,"x_max":0,"ha":1389},"編":{"x_min":100,"x_max":1262,"ha":1389,"o":"m 1262 350 q 1210 110 1262 212 q 1148 21 1187 64 q 1062 -44 1102 -29 q 1047 -45 1059 -45 q 946 -10 1004 -45 q 898 -124 940 -92 q 868 29 876 -48 q 804 63 836 52 q 788 57 796 57 q 753 95 758 57 q 699 128 743 107 q 653 167 659 147 q 779 288 676 232 q 795 365 794 362 q 829 436 806 409 l 852 434 q 852 329 856 368 l 887 347 q 899 428 891 361 q 922 502 906 478 q 983 444 965 487 l 973 403 q 993 406 993 406 q 1104 353 1104 406 q 1102 341 1104 349 q 1035 312 1078 323 q 965 292 978 297 l 965 254 q 958 110 966 196 q 1025 86 977 94 q 1132 192 1087 120 q 1177 337 1177 265 q 1162 455 1177 362 q 1140 563 1148 548 q 1124 565 1132 565 q 1042 541 1095 565 q 959 517 989 517 q 930 601 930 565 q 950 676 930 626 q 978 753 974 739 q 782 539 870 684 q 647 278 752 490 q 581 142 613 210 q 505 27 527 39 q 456 138 456 46 q 520 272 478 183 q 592 413 544 318 q 753 754 643 527 q 814 875 783 814 q 859 1001 851 950 q 597 753 776 958 q 369 464 447 581 q 481 246 481 337 q 381 92 481 179 q 209 6 281 6 q 131 38 162 6 q 100 118 100 71 q 283 473 100 256 q 262 607 262 536 q 308 818 262 695 q 262 771 299 813 q 214 736 232 736 q 167 769 194 736 q 130 821 149 795 l 130 835 q 279 936 161 847 q 412 1018 385 1018 q 479 986 436 1018 q 533 932 522 955 q 453 822 511 893 q 370 711 392 748 q 331 585 331 646 q 339 539 331 561 q 478 710 408 632 q 665 931 572 821 q 890 1096 798 1076 q 969 1077 924 1091 l 989 1043 q 900 864 973 997 q 826 700 836 746 q 1046 886 974 863 q 1079 873 1053 879 q 1121 847 1104 867 q 1064 728 1110 806 q 1009 605 1019 650 q 1134 637 1084 637 q 1213 601 1191 637 q 1262 350 1262 522 m 871 259 l 834 236 q 824 165 823 203 l 824 155 q 868 135 846 142 q 871 259 871 214 m 401 279 q 337 408 401 328 q 234 272 245 287 q 171 125 171 178 q 175 100 171 111 q 188 98 180 98 q 317 167 233 98 q 401 279 401 236 "},"竎":{"x_min":0,"x_max":0,"ha":1389},"邘":{"x_min":0,"x_max":0,"ha":1389},"襌":{"x_min":0,"x_max":0,"ha":1389},"纐":{"x_min":0,"x_max":0,"ha":1389},"施":{"x_min":0,"x_max":0,"ha":1389},"な":{"x_min":249.21875,"x_max":1172.890625,"ha":1389,"o":"m 1172 170 q 1114 105 1172 155 q 1041 47 1069 66 q 987 20 1020 33 l 977 22 q 1038 132 1026 82 q 878 180 970 173 q 764 -34 841 14 q 741 -35 752 -35 q 633 12 688 -35 q 555 79 557 78 q 511 168 511 126 q 534 220 511 202 q 661 272 569 250 q 801 294 734 290 q 811 448 805 372 q 850 569 817 524 q 981 659 889 622 q 883 693 932 693 q 614 526 779 693 q 397 275 551 463 q 293 204 342 208 q 253 273 253 227 q 310 414 253 314 q 393 556 352 485 q 435 645 417 602 q 249 733 300 650 l 257 738 q 391 773 329 740 q 502 827 483 820 q 525 1002 525 914 q 517 1074 525 1039 q 534 1077 528 1077 q 595 1051 567 1077 q 627 990 622 1025 q 603 871 615 928 q 660 877 660 877 q 709 859 685 877 q 734 815 732 841 q 656 732 718 776 q 554 665 604 698 q 433 421 439 480 q 631 608 623 600 q 858 739 770 725 q 949 749 919 749 q 1079 724 1022 749 q 1166 633 1152 694 q 1109 599 1143 599 q 1063 602 1094 599 q 1015 604 1031 604 q 924 573 962 604 q 885 490 885 542 q 890 404 885 461 q 896 317 896 347 q 894 283 896 299 q 1057 258 981 280 q 1172 170 1172 227 m 760 192 l 749 192 q 674 184 714 193 q 618 147 618 172 q 712 100 618 109 q 760 192 752 126 "},"韵":{"x_min":0,"x_max":0,"ha":1389},"蔿":{"x_min":0,"x_max":0,"ha":1389},"倌":{"x_min":0,"x_max":0,"ha":1389},"瓠":{"x_min":0,"x_max":0,"ha":1389},"♋":{"x_min":0,"x_max":0,"ha":1389},"苧":{"x_min":0,"x_max":0,"ha":1389},"陁":{"x_min":0,"x_max":0,"ha":1389},"敲":{"x_min":0,"x_max":0,"ha":1389},"醪":{"x_min":0,"x_max":0,"ha":1389},"諧":{"x_min":0,"x_max":0,"ha":1389},"筱":{"x_min":0,"x_max":0,"ha":1389},"担":{"x_min":46.78125,"x_max":1276.96875,"ha":1389,"o":"m 1276 88 q 1260 58 1276 69 q 1224 47 1243 47 q 1141 60 1225 47 q 941 75 1026 75 q 513 -10 722 75 q 473 49 473 1 q 481 88 473 68 q 589 147 517 107 q 705 244 633 173 q 802 361 776 316 q 760 493 760 421 q 799 588 760 551 q 898 626 839 626 q 971 604 945 626 q 1012 821 1012 685 q 974 911 1012 906 q 828 801 885 886 q 748 623 792 745 q 676 451 704 495 q 660 448 668 448 q 615 474 636 448 q 595 525 595 501 q 596 538 595 532 q 620 715 592 588 q 660 902 660 898 l 683 901 q 719 734 714 816 q 788 849 752 793 q 876 951 827 912 q 964 999 934 999 q 1102 816 1102 999 q 1084 597 1102 708 q 1019 395 1061 452 q 941 335 988 353 q 868 323 894 316 q 716 168 814 261 q 1097 203 886 203 q 1210 174 1154 203 q 1276 88 1276 140 m 528 649 q 448 520 488 598 q 402 381 402 427 q 407 277 402 345 q 413 174 413 208 q 383 43 413 124 q 316 -65 351 -47 q 206 24 277 -54 q 76 101 141 96 q 52 158 56 123 q 162 313 64 199 q 303 462 247 413 q 307 556 303 485 q 309 649 309 614 q 181 564 263 623 l 175 564 q 46 641 126 561 l 46 661 q 327 839 197 703 q 341 983 335 952 q 400 1105 358 1081 l 411 1105 q 468 1098 440 1106 q 450 1009 468 1064 q 433 930 433 954 q 438 895 433 912 l 442 895 q 509 865 479 895 q 478 797 509 836 q 427 736 452 766 q 394 553 396 689 l 525 674 l 528 649 m 904 534 l 904 535 q 859 516 879 533 q 839 476 839 499 q 853 447 839 457 q 904 534 906 488 m 298 246 q 296 307 298 275 q 156 149 196 218 q 279 115 197 134 q 298 246 298 143 "},"淩":{"x_min":0,"x_max":0,"ha":1389},"頯":{"x_min":0,"x_max":0,"ha":1389},"菴":{"x_min":0,"x_max":0,"ha":1389},"漂":{"x_min":0,"x_max":0,"ha":1389},"◮":{"x_min":0,"x_max":0,"ha":694},"茋":{"x_min":0,"x_max":0,"ha":1389},"滸":{"x_min":0,"x_max":0,"ha":1389},"➪":{"x_min":0,"x_max":0,"ha":1389},"泥":{"x_min":0,"x_max":0,"ha":1389},"鷓":{"x_min":0,"x_max":0,"ha":1389},"踟":{"x_min":0,"x_max":0,"ha":1389},"捂":{"x_min":0,"x_max":0,"ha":1389},"姷":{"x_min":0,"x_max":0,"ha":1389},"垡":{"x_min":0,"x_max":0,"ha":1389},"黠":{"x_min":0,"x_max":0,"ha":1389},"氨":{"x_min":0,"x_max":0,"ha":1389},"ό":{"x_min":0,"x_max":0,"ha":694},"釐":{"x_min":0,"x_max":0,"ha":1389},"椦":{"x_min":0,"x_max":0,"ha":1389},"₨":{"x_min":0,"x_max":0,"ha":694},"凈":{"x_min":0,"x_max":0,"ha":1389},"楠":{"x_min":0,"x_max":0,"ha":1389},"猜":{"x_min":0,"x_max":0,"ha":1389},"㋺":{"x_min":0,"x_max":0,"ha":1389},"鋨":{"x_min":0,"x_max":0,"ha":1389},"衾":{"x_min":0,"x_max":0,"ha":1389},"縋":{"x_min":0,"x_max":0,"ha":1389},"旐":{"x_min":0,"x_max":0,"ha":1389},"敎":{"x_min":0,"x_max":0,"ha":1389},"梁":{"x_min":0,"x_max":0,"ha":1389},"祹":{"x_min":0,"x_max":0,"ha":1389},"犇":{"x_min":0,"x_max":0,"ha":1389},"鼹":{"x_min":0,"x_max":0,"ha":1389},"躙":{"x_min":0,"x_max":0,"ha":1389},"崔":{"x_min":0,"x_max":0,"ha":1389},"腊":{"x_min":0,"x_max":0,"ha":1389},"觚":{"x_min":0,"x_max":0,"ha":1389},"劃":{"x_min":0,"x_max":0,"ha":1389},"＊":{"x_min":302.46875,"x_max":1079.640625,"ha":1389,"o":"m 1079 324 q 1064 292 1079 307 q 1034 276 1049 276 q 977 288 1032 276 l 702 480 l 756 165 q 738 116 760 143 q 694 89 716 89 q 633 164 633 89 q 638 193 633 164 l 684 477 q 531 374 554 389 q 351 276 401 291 q 302 318 302 290 q 318 370 302 351 q 374 405 335 390 q 438 429 405 417 l 657 520 q 503 585 541 568 q 321 680 345 655 q 305 727 305 698 q 355 771 305 771 q 524 675 428 744 q 686 564 674 571 q 636 903 636 802 q 654 937 636 925 q 694 946 672 950 q 705 948 699 948 q 741 919 724 948 q 756 872 759 891 q 702 560 743 758 l 994 759 q 1038 771 994 759 q 1066 757 1053 775 q 1079 722 1079 739 q 1048 665 1079 706 l 737 518 l 995 406 q 1079 324 1079 370 "},"酇":{"x_min":0,"x_max":0,"ha":1389},"擻":{"x_min":0,"x_max":0,"ha":1389},"骻":{"x_min":0,"x_max":0,"ha":1389},"胮":{"x_min":0,"x_max":0,"ha":1389},"痏":{"x_min":0,"x_max":0,"ha":1389},"㎐":{"x_min":0,"x_max":0,"ha":1389},"聊":{"x_min":0,"x_max":0,"ha":1389},"磤":{"x_min":0,"x_max":0,"ha":1389},"泮":{"x_min":0,"x_max":0,"ha":1389},"骵":{"x_min":0,"x_max":0,"ha":1389},"嬋":{"x_min":0,"x_max":0,"ha":1389},"⊣":{"x_min":0,"x_max":0,"ha":694},"㏒":{"x_min":0,"x_max":0,"ha":1389},"ɰ":{"x_min":0,"x_max":0,"ha":694},"暄":{"x_min":0,"x_max":0,"ha":1389},"啊":{"x_min":0,"x_max":0,"ha":1389},"琢":{"x_min":0,"x_max":0,"ha":1389},"摂":{"x_min":0,"x_max":0,"ha":1389},"塲":{"x_min":0,"x_max":0,"ha":1389},"〲":{"x_min":0,"x_max":0,"ha":1389},"¸":{"x_min":0,"x_max":0,"ha":694},"泜":{"x_min":0,"x_max":0,"ha":1389},"捧":{"x_min":0,"x_max":0,"ha":1389},"黙":{"x_min":0,"x_max":0,"ha":1389},"醲":{"x_min":0,"x_max":0,"ha":1389},"ま":{"x_min":252.28125,"x_max":1024.03125,"ha":1389,"o":"m 1024 109 q 824 -8 1024 58 l 815 -3 q 881 106 868 52 q 727 173 798 162 q 598 -54 680 -8 q 579 -56 588 -56 q 427 20 512 -56 q 343 161 343 96 q 467 271 343 239 q 657 292 519 283 q 674 431 670 337 q 428 391 565 402 q 381 461 381 406 q 390 491 381 481 q 533 591 447 531 q 694 705 637 666 l 694 727 q 382 643 408 643 q 305 662 341 643 q 252 720 263 685 q 363 740 290 727 q 519 786 424 754 q 674 838 638 827 q 621 991 621 957 q 644 1035 621 1017 q 695 1053 668 1053 q 775 1034 724 1053 q 835 990 835 1012 q 823 925 835 964 q 807 860 809 873 l 874 875 q 949 849 911 861 q 1000 795 990 831 l 995 777 q 897 740 946 758 q 824 674 836 710 q 889 613 857 643 q 933 546 934 569 l 933 541 q 775 466 889 504 q 754 276 770 363 q 885 235 842 253 q 998 161 958 205 q 1024 109 1024 132 m 735 853 q 687 969 731 969 q 671 963 679 969 l 710 851 l 735 853 m 816 595 l 788 630 l 781 566 q 816 595 808 575 m 686 622 q 466 473 592 588 q 683 535 538 493 l 686 622 m 633 199 q 561 208 596 208 q 477 196 518 208 q 410 149 423 180 q 466 101 412 119 q 546 88 507 88 l 553 88 q 633 199 602 115 "},"⅟":{"x_min":0,"x_max":0,"ha":694},"蛄":{"x_min":0,"x_max":0,"ha":1389},"楎":{"x_min":0,"x_max":0,"ha":1389},"鄆":{"x_min":0,"x_max":0,"ha":1389},"纂":{"x_min":0,"x_max":0,"ha":1389},"犢":{"x_min":0,"x_max":0,"ha":1389},"条":{"x_min":92.5625,"x_max":1212.671875,"ha":1389,"o":"m 1163 108 q 1095 33 1163 33 q 1014 65 1068 33 q 933 111 933 111 q 865 135 903 124 l 843 155 q 979 207 944 165 q 934 273 964 222 q 884 335 910 317 l 896 349 q 1013 322 973 344 q 1116 233 1072 288 q 1163 108 1163 170 m 1212 619 q 1129 562 1212 573 q 1013 560 1113 560 q 889 531 945 560 l 912 516 q 923 484 923 499 q 862 432 923 455 q 773 398 777 400 q 780 209 774 334 q 784 152 780 193 q 788 97 788 117 q 738 -12 788 48 q 647 -98 697 -63 q 612 -84 626 -95 q 560 -35 590 -68 q 511 14 523 3 q 434 75 484 33 q 392 132 397 109 q 325 40 377 116 q 248 -44 287 -15 q 183 22 226 -20 q 179 52 179 38 q 226 139 179 94 l 244 141 l 285 117 q 476 266 385 187 q 423 173 462 196 q 602 95 519 95 q 666 130 655 95 q 669 210 669 140 q 662 364 669 300 q 553 323 648 360 q 451 295 480 295 q 407 310 437 295 q 365 337 378 324 l 373 356 q 662 494 470 399 l 660 544 q 593 554 635 558 l 575 574 q 679 632 620 607 q 752 602 739 623 q 786 535 752 540 q 919 653 877 590 q 830 664 892 664 q 652 650 716 664 q 526 564 602 638 q 418 448 472 506 q 270 323 354 380 q 141 262 183 262 q 92 319 92 262 q 213 522 92 406 q 416 670 315 621 q 523 714 453 684 q 612 791 544 724 q 681 871 681 857 q 679 882 681 878 q 669 883 674 883 q 570 842 639 883 q 484 804 502 802 l 479 804 q 460 869 460 831 q 462 898 460 883 q 595 1016 475 911 q 698 1151 685 1092 l 712 1168 q 752 1142 716 1162 q 778 1104 778 1126 q 777 1090 778 1097 q 687 966 724 1029 l 735 970 q 790 944 743 963 q 836 901 824 929 l 693 741 q 931 760 812 760 q 1009 754 987 760 q 1127 701 1052 745 q 1212 619 1212 651 m 455 607 q 314 526 401 595 q 218 406 218 453 q 219 400 218 406 q 455 607 352 491 "},"含":{"x_min":0,"x_max":0,"ha":1389},"疺":{"x_min":0,"x_max":0,"ha":1389},"楩":{"x_min":0,"x_max":0,"ha":1389},"水":{"x_min":164,"x_max":1245.921875,"ha":1389,"o":"m 1245 122 q 1243 97 1245 111 q 1199 71 1226 82 q 1096 37 1159 54 q 990 12 1043 25 q 760 -50 914 -13 q 601 -59 692 -59 q 942 127 826 42 q 822 210 859 158 q 785 347 785 261 q 811 541 785 423 q 831 626 820 584 q 844 713 844 680 q 664 641 770 709 q 618 356 652 457 q 461 115 573 223 q 326 5 386 42 l 321 5 q 267 29 292 4 q 226 77 246 54 q 192 104 208 90 q 166 138 172 119 q 164 162 164 149 q 219 309 164 210 q 309 446 264 389 q 556 675 425 595 q 491 724 553 687 q 429 778 429 762 q 498 918 429 826 q 583 1028 566 1010 q 695 1110 637 1089 q 789 1086 735 1110 q 853 1025 853 1059 q 817 986 853 999 q 713 942 781 972 q 509 781 550 853 q 629 720 564 759 q 846 805 778 805 q 939 785 888 805 q 1001 722 1001 759 q 948 525 1001 678 q 896 311 896 373 q 897 284 896 297 q 1009 261 917 261 q 1125 227 1051 261 q 1228 165 1194 196 q 1245 122 1245 147 m 584 558 q 580 592 584 577 q 388 413 481 528 q 281 183 281 279 q 340 139 281 145 q 507 324 438 214 q 584 558 584 447 "},"裓":{"x_min":0,"x_max":0,"ha":1389},"場":{"x_min":49.234375,"x_max":1277,"ha":1389,"o":"m 1277 471 q 1214 197 1277 333 q 1039 -19 1147 56 q 974 -57 1016 -35 q 906 -82 924 -82 q 780 -8 849 -82 q 682 113 731 52 q 420 9 538 9 q 385 12 403 9 l 373 21 q 621 204 575 142 q 594 290 606 242 l 602 303 l 662 239 q 804 393 749 303 l 800 393 q 556 295 720 395 q 492 261 534 282 q 477 309 477 282 q 488 363 477 333 q 602 465 498 374 q 697 570 682 537 q 711 625 704 588 q 844 612 791 625 q 857 584 858 600 l 856 574 l 688 442 q 884 515 826 477 q 956 490 936 503 q 1000 435 994 471 q 930 348 978 395 q 849 271 890 310 q 747 166 808 233 q 816 120 770 145 q 891 92 867 92 q 1093 242 1017 92 q 1156 504 1156 364 q 1138 659 1156 579 q 1063 773 1111 773 q 783 675 997 773 q 740 766 751 717 q 811 968 758 842 q 740 931 787 967 q 677 872 694 896 q 610 752 648 831 q 549 625 579 688 q 507 538 536 595 q 441 416 484 499 q 343 212 373 272 q 237 36 260 46 q 188 85 210 46 q 168 151 168 120 q 224 475 168 178 q 164 462 197 462 q 49 503 112 462 q 61 519 53 508 q 182 625 107 558 q 285 726 218 657 q 321 859 306 754 q 343 969 335 961 q 362 976 351 976 q 380 965 370 976 q 403 889 396 948 q 433 844 408 844 q 450 846 438 844 q 469 847 462 847 q 541 786 517 847 q 445 660 534 754 q 331 520 348 558 q 285 382 302 461 q 264 257 264 294 q 266 242 264 248 q 423 481 312 307 q 471 555 439 505 q 641 902 485 583 q 731 1007 666 952 q 839 1089 812 1078 q 879 1094 852 1094 q 955 1053 963 1094 q 956 1045 956 1049 q 909 948 956 1032 q 858 824 861 863 q 971 861 914 842 q 1085 883 1043 883 q 1210 774 1153 883 q 1268 604 1253 691 q 1277 471 1277 553 "},"詃":{"x_min":0,"x_max":0,"ha":1389},"螬":{"x_min":0,"x_max":0,"ha":1389},"舸":{"x_min":0,"x_max":0,"ha":1389},"淕":{"x_min":0,"x_max":0,"ha":1389},"ν":{"x_min":0,"x_max":0,"ha":1389},"ɹ":{"x_min":0,"x_max":0,"ha":694},"裀":{"x_min":0,"x_max":0,"ha":1389},"宀":{"x_min":0,"x_max":0,"ha":1389},"Ό":{"x_min":0,"x_max":0,"ha":694},"蘒":{"x_min":0,"x_max":0,"ha":1389},"瘇":{"x_min":0,"x_max":0,"ha":1389},"埞":{"x_min":0,"x_max":0,"ha":1389},"鈸":{"x_min":0,"x_max":0,"ha":1389},"泰":{"x_min":0,"x_max":0,"ha":1389},"匼":{"x_min":0,"x_max":0,"ha":1389},"ĵ":{"x_min":0,"x_max":0,"ha":694},"靊":{"x_min":0,"x_max":0,"ha":1389},"偌":{"x_min":0,"x_max":0,"ha":1389},"愡":{"x_min":0,"x_max":0,"ha":1389},"匕":{"x_min":0,"x_max":0,"ha":1389},"枼":{"x_min":0,"x_max":0,"ha":1389},"荏":{"x_min":0,"x_max":0,"ha":1389},"櫃":{"x_min":0,"x_max":0,"ha":1389},"夋":{"x_min":0,"x_max":0,"ha":1389},"纉":{"x_min":0,"x_max":0,"ha":1389},"寧":{"x_min":0,"x_max":0,"ha":1389},"㊮":{"x_min":0,"x_max":0,"ha":1389},"鰙":{"x_min":0,"x_max":0,"ha":1389},"豙":{"x_min":0,"x_max":0,"ha":1389},"碲":{"x_min":0,"x_max":0,"ha":1389},"ⅴ":{"x_min":0,"x_max":0,"ha":1389},"跅":{"x_min":0,"x_max":0,"ha":1389},"肓":{"x_min":0,"x_max":0,"ha":1389},"⅗":{"x_min":0,"x_max":0,"ha":694},"哈":{"x_min":0,"x_max":0,"ha":1389},"㎪":{"x_min":0,"x_max":0,"ha":1389},"缾":{"x_min":0,"x_max":0,"ha":1389},"矟":{"x_min":0,"x_max":0,"ha":1389},"楓":{"x_min":0,"x_max":0,"ha":1389},"揎":{"x_min":0,"x_max":0,"ha":1389},"肌":{"x_min":0,"x_max":0,"ha":1389},"何":{"x_min":87.203125,"x_max":1263,"ha":1389,"o":"m 1163 977 q 1137 950 1154 961 q 975 892 1121 939 q 798 839 835 847 q 758 835 778 835 q 633 862 690 835 q 790 972 665 891 q 945 1067 914 1053 q 995 1075 968 1075 q 1093 1047 1040 1075 q 1163 977 1151 1015 m 1263 398 q 1132 94 1263 248 q 850 -63 998 -63 q 822 -59 850 -63 q 1020 150 937 36 q 1126 410 1126 296 q 1097 530 1126 474 q 1003 598 1062 598 q 842 519 885 598 q 798 345 828 423 q 587 60 695 83 q 514 122 545 78 q 484 212 484 166 q 576 410 484 290 q 736 573 653 509 q 775 701 754 615 q 811 826 796 788 q 834 808 831 811 q 845 781 840 801 q 847 626 857 718 q 1016 681 927 681 q 1196 592 1124 681 q 1263 398 1263 508 m 494 528 q 343 139 435 396 q 293 16 328 96 q 254 -20 273 -20 q 205 9 222 -20 q 190 69 190 35 q 227 178 190 109 q 264 287 264 246 q 263 299 264 294 q 137 227 202 291 l 131 227 q 87 336 87 226 q 206 595 87 379 q 357 862 281 728 q 410 984 410 965 q 389 1059 410 1015 l 408 1078 q 462 1021 450 1038 q 486 946 486 988 q 424 760 486 877 q 310 564 423 759 q 249 417 249 458 q 251 408 249 413 q 300 420 277 420 q 359 373 346 420 q 494 564 399 419 l 494 528 m 724 462 q 637 370 683 431 q 583 261 583 299 q 600 210 583 241 q 677 330 634 244 q 724 462 721 417 "},"鬻":{"x_min":0,"x_max":0,"ha":1389},"凶":{"x_min":0,"x_max":0,"ha":1389},"輶":{"x_min":0,"x_max":0,"ha":1389},"匵":{"x_min":0,"x_max":0,"ha":1389},"躱":{"x_min":0,"x_max":0,"ha":1389},"襡":{"x_min":0,"x_max":0,"ha":1389},"忸":{"x_min":0,"x_max":0,"ha":1389},"覜":{"x_min":0,"x_max":0,"ha":1389},"佈":{"x_min":0,"x_max":0,"ha":1389},"d":{"x_min":0,"x_max":0,"ha":694},"驢":{"x_min":0,"x_max":0,"ha":1389},"承":{"x_min":138.34375,"x_max":1267.578125,"ha":1389,"o":"m 1267 253 q 1195 162 1267 199 q 1081 116 1138 139 q 851 18 934 50 l 809 18 q 948 134 879 75 q 1080 257 1028 200 q 985 348 1032 303 q 930 465 930 404 q 959 599 930 503 q 996 741 992 705 l 965 733 l 944 750 q 1018 842 973 842 q 1039 836 1023 842 q 1091 809 1080 820 q 1107 754 1107 793 q 1072 622 1107 722 q 1037 467 1037 522 q 1056 419 1037 432 q 1182 351 1118 385 q 1267 253 1267 303 m 883 305 q 831 253 883 276 q 755 223 793 238 q 716 46 738 101 q 599 -84 678 -48 q 554 -71 571 -81 q 466 17 523 -54 q 396 126 410 89 q 386 207 386 154 q 592 80 464 99 q 642 124 622 92 q 661 189 662 157 l 661 196 q 565 188 588 187 l 551 188 q 525 236 525 202 q 569 347 525 278 q 639 453 604 400 l 578 439 q 540 501 551 444 q 576 564 543 519 q 620 632 613 615 l 613 655 q 498 537 592 641 q 467 622 467 565 q 600 744 467 672 q 595 781 595 766 q 643 881 595 808 q 712 981 677 931 q 443 854 533 937 q 418 893 418 865 q 424 931 418 906 q 429 969 429 956 q 595 1056 477 1017 q 781 1095 704 1094 q 831 1059 808 1082 q 859 1005 859 1029 l 859 1002 q 819 945 841 971 q 750 874 785 910 q 699 807 699 821 q 703 788 699 793 q 724 790 713 790 q 784 773 755 790 q 812 725 812 755 q 765 660 812 699 q 708 591 713 618 q 766 554 738 572 q 800 500 803 531 l 800 491 l 747 420 l 750 349 q 806 354 789 354 q 872 333 834 354 q 883 305 883 318 m 438 537 q 432 503 436 526 q 389 425 431 497 q 301 254 333 332 q 265 147 283 200 q 218 56 240 71 l 214 56 q 162 88 185 55 q 138 150 138 120 q 184 310 138 179 q 245 480 215 394 q 188 527 241 520 l 177 554 q 245 573 214 573 q 324 530 298 573 q 344 439 345 495 q 438 537 363 461 m 675 337 l 655 320 l 672 326 l 675 337 "},"┳":{"x_min":0,"x_max":0,"ha":1389},"随":{"x_min":0,"x_max":0,"ha":1389},"裊":{"x_min":0,"x_max":0,"ha":1389},"麝":{"x_min":0,"x_max":0,"ha":1389},"窖":{"x_min":0,"x_max":0,"ha":1389},"頔":{"x_min":0,"x_max":0,"ha":1389},"蕃":{"x_min":0,"x_max":0,"ha":1389},"靗":{"x_min":0,"x_max":0,"ha":1389},"杈":{"x_min":0,"x_max":0,"ha":1389},"晒":{"x_min":0,"x_max":0,"ha":1389},"⊎":{"x_min":0,"x_max":0,"ha":694}}}
